<?xml version="1.0" encoding="UTF-8" standalone="no"?>
<!DOCTYPE svg PUBLIC "-//W3C//DTD SVG 1.1//EN"
 "http://www.w3.org/Graphics/SVG/1.1/DTD/svg11.dtd">
<!-- Generated by graphviz version 2.40.1 (20161225.0304)
 -->
<!-- Title: dependency&#45;cruiser output Pages: 1 -->
<svg width="897pt" height="1183pt"
 viewBox="0.00 0.00 896.88 1182.50" xmlns="http://www.w3.org/2000/svg" xmlns:xlink="http://www.w3.org/1999/xlink">
<g id="graph0" class="graph" transform="scale(1 1) rotate(0) translate(4 1178.5)">
<title>dependency&#45;cruiser output</title>
<polygon fill="#ffffff" stroke="transparent" points="-4,4 -4,-1178.5 892.8845,-1178.5 892.8845,4 -4,4"/>
<g id="clust1" class="cluster">
<title>cluster_..</title>
<path fill="#ffffff" stroke="#000000" stroke-width="2" d="M228.2122,-8C228.2122,-8 432.3267,-8 432.3267,-8 438.3267,-8 444.3267,-14 444.3267,-20 444.3267,-20 444.3267,-264 444.3267,-264 444.3267,-270 438.3267,-276 432.3267,-276 432.3267,-276 228.2122,-276 228.2122,-276 222.2122,-276 216.2122,-270 216.2122,-264 216.2122,-264 216.2122,-20 216.2122,-20 216.2122,-14 222.2122,-8 228.2122,-8"/>
<text text-anchor="middle" x="330.2694" y="-264.8" font-family="Helvetica,sans-Serif" font-weight="bold" font-size="9.00" fill="#000000">..</text>
</g>
<g id="clust2" class="cluster">
<title>cluster_../..</title>
<path fill="#ffffff" stroke="#000000" stroke-width="2" d="M236.2122,-75C236.2122,-75 321.5593,-75 321.5593,-75 327.5593,-75 333.5593,-81 333.5593,-87 333.5593,-87 333.5593,-239 333.5593,-239 333.5593,-245 327.5593,-251 321.5593,-251 321.5593,-251 236.2122,-251 236.2122,-251 230.2122,-251 224.2122,-245 224.2122,-239 224.2122,-239 224.2122,-87 224.2122,-87 224.2122,-81 230.2122,-75 236.2122,-75"/>
<text text-anchor="middle" x="278.8857" y="-239.8" font-family="Helvetica,sans-Serif" font-weight="bold" font-size="9.00" fill="#000000">..</text>
</g>
<g id="clust3" class="cluster">
<title>cluster_../../drafts</title>
<path fill="#ffffff" stroke="#000000" stroke-width="2" d="M244.2122,-83C244.2122,-83 313.5593,-83 313.5593,-83 319.5593,-83 325.5593,-89 325.5593,-95 325.5593,-95 325.5593,-155 325.5593,-155 325.5593,-161 319.5593,-167 313.5593,-167 313.5593,-167 244.2122,-167 244.2122,-167 238.2122,-167 232.2122,-161 232.2122,-155 232.2122,-155 232.2122,-95 232.2122,-95 232.2122,-89 238.2122,-83 244.2122,-83"/>
<text text-anchor="middle" x="278.8857" y="-155.8" font-family="Helvetica,sans-Serif" font-weight="bold" font-size="9.00" fill="#000000">drafts</text>
</g>
<g id="clust4" class="cluster">
<title>cluster_../../drafts/voicing</title>
<path fill="#ffffff" stroke="#000000" stroke-width="2" d="M252.2122,-91C252.2122,-91 305.5593,-91 305.5593,-91 311.5593,-91 317.5593,-97 317.5593,-103 317.5593,-103 317.5593,-130 317.5593,-130 317.5593,-136 311.5593,-142 305.5593,-142 305.5593,-142 252.2122,-142 252.2122,-142 246.2122,-142 240.2122,-136 240.2122,-130 240.2122,-130 240.2122,-103 240.2122,-103 240.2122,-97 246.2122,-91 252.2122,-91"/>
<text text-anchor="middle" x="278.8857" y="-130.8" font-family="Helvetica,sans-Serif" font-weight="bold" font-size="9.00" fill="#000000">voicing</text>
</g>
<g id="clust5" class="cluster">
<title>cluster_../../instruments</title>
<path fill="#ffffff" stroke="#000000" stroke-width="2" d="M255.8857,-175C255.8857,-175 301.8857,-175 301.8857,-175 307.8857,-175 313.8857,-181 313.8857,-187 313.8857,-187 313.8857,-214 313.8857,-214 313.8857,-220 307.8857,-226 301.8857,-226 301.8857,-226 255.8857,-226 255.8857,-226 249.8857,-226 243.8857,-220 243.8857,-214 243.8857,-214 243.8857,-187 243.8857,-187 243.8857,-181 249.8857,-175 255.8857,-175"/>
<text text-anchor="middle" x="278.8857" y="-214.8" font-family="Helvetica,sans-Serif" font-weight="bold" font-size="9.00" fill="#000000">instruments</text>
</g>
<g id="clust6" class="cluster">
<title>cluster_../common</title>
<path fill="#ffffff" stroke="#000000" stroke-width="2" d="M242.4541,-16C242.4541,-16 315.3174,-16 315.3174,-16 321.3174,-16 327.3174,-22 327.3174,-28 327.3174,-28 327.3174,-55 327.3174,-55 327.3174,-61 321.3174,-67 315.3174,-67 315.3174,-67 242.4541,-67 242.4541,-67 236.4541,-67 230.4541,-61 230.4541,-55 230.4541,-55 230.4541,-28 230.4541,-28 230.4541,-22 236.4541,-16 242.4541,-16"/>
<text text-anchor="middle" x="278.8857" y="-55.8" font-family="Helvetica,sans-Serif" font-weight="bold" font-size="9.00" fill="#000000">common</text>
</g>
<g id="clust7" class="cluster">
<title>cluster_components</title>
<path fill="#ffffff" stroke="#000000" stroke-width="2" d="M20,-98C20,-98 196.2122,-98 196.2122,-98 202.2122,-98 208.2122,-104 208.2122,-110 208.2122,-110 208.2122,-195 208.2122,-195 208.2122,-201 202.2122,-207 196.2122,-207 196.2122,-207 20,-207 20,-207 14,-207 8,-201 8,-195 8,-195 8,-110 8,-110 8,-104 14,-98 20,-98"/>
<text text-anchor="middle" x="108.1061" y="-195.8" font-family="Helvetica,sans-Serif" font-weight="bold" font-size="9.00" fill="#000000">components</text>
</g>
<g id="clust8" class="cluster">
<title>cluster_dictionary</title>
<path fill="#ffffff" stroke="#000000" stroke-width="2" d="M590.3755,-1037C590.3755,-1037 640.3916,-1037 640.3916,-1037 646.3916,-1037 652.3916,-1043 652.3916,-1049 652.3916,-1049 652.3916,-1105 652.3916,-1105 652.3916,-1111 646.3916,-1117 640.3916,-1117 640.3916,-1117 590.3755,-1117 590.3755,-1117 584.3755,-1117 578.3755,-1111 578.3755,-1105 578.3755,-1105 578.3755,-1049 578.3755,-1049 578.3755,-1043 584.3755,-1037 590.3755,-1037"/>
<text text-anchor="middle" x="615.3835" y="-1105.8" font-family="Helvetica,sans-Serif" font-weight="bold" font-size="9.00" fill="#000000">dictionary</text>
</g>
<g id="clust9" class="cluster">
<title>cluster_features</title>
<path fill="#ffffff" stroke="#000000" stroke-width="2" d="M474.0803,-520C474.0803,-520 644.6499,-520 644.6499,-520 650.6499,-520 656.6499,-526 656.6499,-532 656.6499,-532 656.6499,-791 656.6499,-791 656.6499,-797 650.6499,-803 644.6499,-803 644.6499,-803 474.0803,-803 474.0803,-803 468.0803,-803 462.0803,-797 462.0803,-791 462.0803,-791 462.0803,-532 462.0803,-532 462.0803,-526 468.0803,-520 474.0803,-520"/>
<text text-anchor="middle" x="559.3651" y="-791.8" font-family="Helvetica,sans-Serif" font-weight="bold" font-size="9.00" fill="#000000">features</text>
</g>
<g id="clust10" class="cluster">
<title>cluster_helpers</title>
<path fill="#ffffff" stroke="#000000" stroke-width="2" d="M583.8716,-811C583.8716,-811 754.0918,-811 754.0918,-811 760.0918,-811 766.0918,-817 766.0918,-823 766.0918,-823 766.0918,-879 766.0918,-879 766.0918,-885 760.0918,-891 754.0918,-891 754.0918,-891 583.8716,-891 583.8716,-891 577.8716,-891 571.8716,-885 571.8716,-879 571.8716,-879 571.8716,-823 571.8716,-823 571.8716,-817 577.8716,-811 583.8716,-811"/>
<text text-anchor="middle" x="668.9817" y="-879.8" font-family="Helvetica,sans-Serif" font-weight="bold" font-size="9.00" fill="#000000">helpers</text>
</g>
<g id="clust11" class="cluster">
<title>cluster_instruments</title>
<path fill="#ffffff" stroke="#000000" stroke-width="2" d="M373.3105,-284C373.3105,-284 422.3291,-284 422.3291,-284 428.3291,-284 434.3291,-290 434.3291,-296 434.3291,-296 434.3291,-352 434.3291,-352 434.3291,-358 428.3291,-364 422.3291,-364 422.3291,-364 373.3105,-364 373.3105,-364 367.3105,-364 361.3105,-358 361.3105,-352 361.3105,-352 361.3105,-296 361.3105,-296 361.3105,-290 367.3105,-284 373.3105,-284"/>
<text text-anchor="middle" x="397.8198" y="-352.8" font-family="Helvetica,sans-Serif" font-weight="bold" font-size="9.00" fill="#000000">instruments</text>
</g>
<g id="clust12" class="cluster">
<title>cluster_tunes</title>
<path fill="#ffffff" stroke="#000000" stroke-width="2" d="M353.5593,-643C353.5593,-643 442.0803,-643 442.0803,-643 448.0803,-643 454.0803,-649 454.0803,-655 454.0803,-655 454.0803,-827 454.0803,-827 454.0803,-833 448.0803,-839 442.0803,-839 442.0803,-839 353.5593,-839 353.5593,-839 347.5593,-839 341.5593,-833 341.5593,-827 341.5593,-827 341.5593,-655 341.5593,-655 341.5593,-649 347.5593,-643 353.5593,-643"/>
<text text-anchor="middle" x="397.8198" y="-827.8" font-family="Helvetica,sans-Serif" font-weight="bold" font-size="9.00" fill="#000000">tunes</text>
</g>
<!-- ../../drafts/voicing/Harmony.ts -->
<g id="node1" class="node">
<title>../../drafts/voicing/Harmony.ts</title>
<g id="a_node1"><a xlink:href="../../drafts/voicing/Harmony.ts" xlink:title="Harmony.ts">
<path fill="#ddfeff" stroke="#000000" d="M304.0672,-116.5C304.0672,-116.5 253.7043,-116.5 253.7043,-116.5 250.8709,-116.5 248.0376,-113.6667 248.0376,-110.8333 248.0376,-110.8333 248.0376,-105.1667 248.0376,-105.1667 248.0376,-102.3333 250.8709,-99.5 253.7043,-99.5 253.7043,-99.5 304.0672,-99.5 304.0672,-99.5 306.9006,-99.5 309.7339,-102.3333 309.7339,-105.1667 309.7339,-105.1667 309.7339,-110.8333 309.7339,-110.8333 309.7339,-113.6667 306.9006,-116.5 304.0672,-116.5"/>
<text text-anchor="middle" x="278.8857" y="-105.3" font-family="Helvetica,sans-Serif" font-size="9.00" fill="#000000">Harmony.ts</text>
</a>
</g>
</g>
<!-- ../../instruments/tidal.ts -->
<g id="node2" class="node">
<title>../../instruments/tidal.ts</title>
<g id="a_node2"><a xlink:href="../../instruments/tidal.ts" xlink:title="tidal.ts">
<path fill="#ddfeff" stroke="#000000" d="M300.2191,-200.5C300.2191,-200.5 257.5524,-200.5 257.5524,-200.5 254.7191,-200.5 251.8857,-197.6667 251.8857,-194.8333 251.8857,-194.8333 251.8857,-189.1667 251.8857,-189.1667 251.8857,-186.3333 254.7191,-183.5 257.5524,-183.5 257.5524,-183.5 300.2191,-183.5 300.2191,-183.5 303.0524,-183.5 305.8857,-186.3333 305.8857,-189.1667 305.8857,-189.1667 305.8857,-194.8333 305.8857,-194.8333 305.8857,-197.6667 303.0524,-200.5 300.2191,-200.5"/>
<text text-anchor="middle" x="278.8857" y="-189.3" font-family="Helvetica,sans-Serif" font-size="9.00" fill="#000000">tidal.ts</text>
</a>
</g>
</g>
<!-- ../canUseDOM.ts -->
<g id="node3" class="node">
<title>../canUseDOM.ts</title>
<g id="a_node3"><a xlink:href="../canUseDOM.ts" xlink:title="canUseDOM.ts">
<path fill="#ddfeff" stroke="#000000" d="M430.6668,-41.5C430.6668,-41.5 364.9728,-41.5 364.9728,-41.5 362.1395,-41.5 359.3062,-38.6667 359.3062,-35.8333 359.3062,-35.8333 359.3062,-30.1667 359.3062,-30.1667 359.3062,-27.3333 362.1395,-24.5 364.9728,-24.5 364.9728,-24.5 430.6668,-24.5 430.6668,-24.5 433.5002,-24.5 436.3335,-27.3333 436.3335,-30.1667 436.3335,-30.1667 436.3335,-35.8333 436.3335,-35.8333 436.3335,-38.6667 433.5002,-41.5 430.6668,-41.5"/>
<text text-anchor="middle" x="397.8198" y="-30.3" font-family="Helvetica,sans-Serif" font-size="9.00" fill="#000000">canUseDOM.ts</text>
</a>
</g>
</g>
<!-- ../../instruments/tidal.ts&#45;&gt;../canUseDOM.ts -->
<g id="edge1" class="edge">
<title>../../instruments/tidal.ts&#45;&gt;../canUseDOM.ts</title>
<path fill="none" stroke="#000000" stroke-width="2" stroke-opacity="0.200000" d="M291.248,-183.3117C303.0852,-174.5735 320.9581,-160.2427 333.5593,-145 359.6717,-113.4138 381.2598,-69.8248 391.4691,-47.4832"/>
<polygon fill="#000000" fill-opacity="0.200000" stroke="#000000" stroke-width="2" stroke-opacity="0.200000" points="393.4918,-48.1059 394.0412,-41.7728 389.6623,-46.381 393.4918,-48.1059"/>
</g>
<!-- instruments/rack.ts -->
<g id="node4" class="node">
<title>instruments/rack.ts</title>
<g id="a_node4"><a xlink:href="instruments/rack.ts" xlink:title="rack.ts">
<path fill="#ddfeff" stroke="#000000" d="M419.1532,-338.5C419.1532,-338.5 376.4865,-338.5 376.4865,-338.5 373.6532,-338.5 370.8198,-335.6667 370.8198,-332.8333 370.8198,-332.8333 370.8198,-327.1667 370.8198,-327.1667 370.8198,-324.3333 373.6532,-321.5 376.4865,-321.5 376.4865,-321.5 419.1532,-321.5 419.1532,-321.5 421.9865,-321.5 424.8198,-324.3333 424.8198,-327.1667 424.8198,-327.1667 424.8198,-332.8333 424.8198,-332.8333 424.8198,-335.6667 421.9865,-338.5 419.1532,-338.5"/>
<text text-anchor="middle" x="397.8198" y="-327.3" font-family="Helvetica,sans-Serif" font-size="9.00" fill="#000000">rack.ts</text>
</a>
</g>
</g>
<!-- ../../instruments/tidal.ts&#45;&gt;instruments/rack.ts -->
<g id="edge2" class="edge">
<title>../../instruments/tidal.ts&#45;&gt;instruments/rack.ts</title>
<path fill="none" stroke="#000000" stroke-width="2" stroke-opacity="0.200000" d="M280.7311,-200.6905C285.9815,-223.2274 303.1714,-283.9539 341.5593,-315 348.1358,-320.3187 356.4235,-323.7631 364.6012,-325.9901"/>
<polygon fill="#000000" fill-opacity="0.200000" stroke="#000000" stroke-width="2" stroke-opacity="0.200000" points="364.4798,-328.1199 370.8031,-327.4667 365.4527,-324.0341 364.4798,-328.1199"/>
</g>
<!-- ../common/JSONViewer.tsx -->
<g id="node5" class="node">
<title>../common/JSONViewer.tsx</title>
<g id="a_node5"><a xlink:href="../common/JSONViewer.tsx" xlink:title="JSONViewer.tsx">
<path fill="#bbfeff" stroke="#000000" d="M313.5825,-41.5C313.5825,-41.5 244.189,-41.5 244.189,-41.5 241.3557,-41.5 238.5223,-38.6667 238.5223,-35.8333 238.5223,-35.8333 238.5223,-30.1667 238.5223,-30.1667 238.5223,-27.3333 241.3557,-24.5 244.189,-24.5 244.189,-24.5 313.5825,-24.5 313.5825,-24.5 316.4158,-24.5 319.2491,-27.3333 319.2491,-30.1667 319.2491,-30.1667 319.2491,-35.8333 319.2491,-35.8333 319.2491,-38.6667 316.4158,-41.5 313.5825,-41.5"/>
<text text-anchor="middle" x="278.8857" y="-30.3" font-family="Helvetica,sans-Serif" font-size="9.00" fill="#000000">JSONViewer.tsx</text>
</a>
</g>
</g>
<!-- ../common/JSONViewer.tsx&#45;&gt;../canUseDOM.ts -->
<g id="edge3" class="edge">
<title>../common/JSONViewer.tsx&#45;&gt;../canUseDOM.ts</title>
<path fill="none" stroke="#000000" stroke-width="2" stroke-opacity="0.200000" d="M319.4835,-33C330.2715,-33 341.9837,-33 352.9838,-33"/>
<polygon fill="#000000" fill-opacity="0.200000" stroke="#000000" stroke-width="2" stroke-opacity="0.200000" points="353.0114,-35.1001 359.0114,-33 353.0113,-30.9001 353.0114,-35.1001"/>
</g>
<!-- RhythmZipper.ts -->
<g id="node6" class="node">
<title>RhythmZipper.ts</title>
<g id="a_node6"><a xlink:href="RhythmZipper.ts" xlink:title="RhythmZipper.ts">
<path fill="#ddfeff" stroke="#000000" d="M650.2451,-916.5C650.2451,-916.5 580.522,-916.5 580.522,-916.5 577.6887,-916.5 574.8553,-913.6667 574.8553,-910.8333 574.8553,-910.8333 574.8553,-905.1667 574.8553,-905.1667 574.8553,-902.3333 577.6887,-899.5 580.522,-899.5 580.522,-899.5 650.2451,-899.5 650.2451,-899.5 653.0784,-899.5 655.9118,-902.3333 655.9118,-905.1667 655.9118,-905.1667 655.9118,-910.8333 655.9118,-910.8333 655.9118,-913.6667 653.0784,-916.5 650.2451,-916.5"/>
<text text-anchor="middle" x="615.3835" y="-905.3" font-family="Helvetica,sans-Serif" font-size="9.00" fill="#000000">RhythmZipper.ts</text>
</a>
</g>
</g>
<!-- util.ts -->
<g id="node7" class="node">
<title>util.ts</title>
<g id="a_node7"><a xlink:href="util.ts" xlink:title="util.ts">
<path fill="#ddfeff" stroke="#000000" d="M864.7852,-986.5C864.7852,-986.5 822.1186,-986.5 822.1186,-986.5 819.2852,-986.5 816.4519,-983.6667 816.4519,-980.8333 816.4519,-980.8333 816.4519,-975.1667 816.4519,-975.1667 816.4519,-972.3333 819.2852,-969.5 822.1186,-969.5 822.1186,-969.5 864.7852,-969.5 864.7852,-969.5 867.6186,-969.5 870.4519,-972.3333 870.4519,-975.1667 870.4519,-975.1667 870.4519,-980.8333 870.4519,-980.8333 870.4519,-983.6667 867.6186,-986.5 864.7852,-986.5"/>
<text text-anchor="middle" x="843.4519" y="-975.3" font-family="Helvetica,sans-Serif" font-size="9.00" fill="#000000">util.ts</text>
</a>
</g>
</g>
<!-- RhythmZipper.ts&#45;&gt;util.ts -->
<g id="edge4" class="edge">
<title>RhythmZipper.ts&#45;&gt;util.ts</title>
<path fill="none" stroke="#000000" stroke-width="2" stroke-opacity="0.200000" d="M655.9983,-903.9385C691.5981,-902.0656 743.9308,-903.4909 785.0193,-922 805.6034,-931.2725 823.3666,-950.9648 833.7416,-964.3449"/>
<polygon fill="#000000" fill-opacity="0.200000" stroke="#000000" stroke-width="2" stroke-opacity="0.200000" points="832.1857,-965.7698 837.472,-969.3005 835.5412,-963.2438 832.1857,-965.7698"/>
</g>
<!-- addColors.ts -->
<g id="node8" class="node">
<title>addColors.ts</title>
<g id="a_node8"><a xlink:href="addColors.ts" xlink:title="addColors.ts">
<path fill="#ddfeff" stroke="#000000" d="M758.4422,-1116.5C758.4422,-1116.5 703.7243,-1116.5 703.7243,-1116.5 700.891,-1116.5 698.0576,-1113.6667 698.0576,-1110.8333 698.0576,-1110.8333 698.0576,-1105.1667 698.0576,-1105.1667 698.0576,-1102.3333 700.891,-1099.5 703.7243,-1099.5 703.7243,-1099.5 758.4422,-1099.5 758.4422,-1099.5 761.2755,-1099.5 764.1089,-1102.3333 764.1089,-1105.1667 764.1089,-1105.1667 764.1089,-1110.8333 764.1089,-1110.8333 764.1089,-1113.6667 761.2755,-1116.5 758.4422,-1116.5"/>
<text text-anchor="middle" x="731.0833" y="-1105.3" font-family="Helvetica,sans-Serif" font-size="9.00" fill="#000000">addColors.ts</text>
</a>
</g>
</g>
<!-- addColors.ts&#45;&gt;util.ts -->
<g id="edge6" class="edge">
<title>addColors.ts&#45;&gt;util.ts</title>
<path fill="none" stroke="#000000" stroke-width="2" stroke-opacity="0.200000" d="M764.341,-1104.9552C771.9189,-1102.8499 779.3868,-1099.4479 785.0193,-1094 799.6763,-1079.8234 789.6098,-1068.5764 798.0193,-1050 807.7056,-1028.6032 822.8721,-1006.0278 832.9832,-991.9812"/>
<polygon fill="#000000" fill-opacity="0.200000" stroke="#000000" stroke-width="2" stroke-opacity="0.200000" points="834.8787,-992.946 836.7179,-986.861 831.4854,-990.4709 834.8787,-992.946"/>
</g>
<!-- mapHierarchy.ts -->
<g id="node9" class="node">
<title>mapHierarchy.ts</title>
<g id="a_node9"><a xlink:href="mapHierarchy.ts" xlink:title="mapHierarchy.ts">
<path fill="#ddfeff" stroke="#000000" d="M878.1399,-1116.5C878.1399,-1116.5 808.7639,-1116.5 808.7639,-1116.5 805.9306,-1116.5 803.0973,-1113.6667 803.0973,-1110.8333 803.0973,-1110.8333 803.0973,-1105.1667 803.0973,-1105.1667 803.0973,-1102.3333 805.9306,-1099.5 808.7639,-1099.5 808.7639,-1099.5 878.1399,-1099.5 878.1399,-1099.5 880.9732,-1099.5 883.8065,-1102.3333 883.8065,-1105.1667 883.8065,-1105.1667 883.8065,-1110.8333 883.8065,-1110.8333 883.8065,-1113.6667 880.9732,-1116.5 878.1399,-1116.5"/>
<text text-anchor="middle" x="843.4519" y="-1105.3" font-family="Helvetica,sans-Serif" font-size="9.00" fill="#000000">mapHierarchy.ts</text>
</a>
</g>
</g>
<!-- addColors.ts&#45;&gt;mapHierarchy.ts -->
<g id="edge5" class="edge">
<title>addColors.ts&#45;&gt;mapHierarchy.ts</title>
<path fill="none" stroke="#000000" stroke-width="2" stroke-opacity="0.200000" d="M764.1898,-1108C774.4589,-1108 785.9729,-1108 796.9748,-1108"/>
<polygon fill="#000000" fill-opacity="0.200000" stroke="#000000" stroke-width="2" stroke-opacity="0.200000" points="797.0232,-1110.1001 803.0232,-1108 797.0231,-1105.9001 797.0232,-1110.1001"/>
</g>
<!-- colorize.ts -->
<g id="node10" class="node">
<title>colorize.ts</title>
<g id="a_node10"><a xlink:href="colorize.ts" xlink:title="colorize.ts">
<path fill="#ddfeff" stroke="#000000" d="M637.7321,-972.5C637.7321,-972.5 593.0349,-972.5 593.0349,-972.5 590.2016,-972.5 587.3683,-969.6667 587.3683,-966.8333 587.3683,-966.8333 587.3683,-961.1667 587.3683,-961.1667 587.3683,-958.3333 590.2016,-955.5 593.0349,-955.5 593.0349,-955.5 637.7321,-955.5 637.7321,-955.5 640.5655,-955.5 643.3988,-958.3333 643.3988,-961.1667 643.3988,-961.1667 643.3988,-966.8333 643.3988,-966.8333 643.3988,-969.6667 640.5655,-972.5 637.7321,-972.5"/>
<text text-anchor="middle" x="615.3835" y="-961.3" font-family="Helvetica,sans-Serif" font-size="9.00" fill="#000000">colorize.ts</text>
</a>
</g>
</g>
<!-- colorize.ts&#45;&gt;util.ts -->
<g id="edge8" class="edge">
<title>colorize.ts&#45;&gt;util.ts</title>
<path fill="none" stroke="#000000" stroke-width="2" stroke-opacity="0.200000" d="M643.8074,-965.7448C686.1183,-968.3421 765.4847,-973.214 810.3529,-975.9682"/>
<polygon fill="#000000" fill-opacity="0.200000" stroke="#000000" stroke-width="2" stroke-opacity="0.200000" points="810.3301,-978.0707 816.4476,-976.3423 810.5875,-973.8786 810.3301,-978.0707"/>
</g>
<!-- mapRhythm.ts -->
<g id="node11" class="node">
<title>mapRhythm.ts</title>
<g id="a_node11"><a xlink:href="mapRhythm.ts" xlink:title="mapRhythm.ts">
<path fill="#ddfeff" stroke="#000000" d="M762.4332,-944.5C762.4332,-944.5 699.7333,-944.5 699.7333,-944.5 696.9,-944.5 694.0666,-941.6667 694.0666,-938.8333 694.0666,-938.8333 694.0666,-933.1667 694.0666,-933.1667 694.0666,-930.3333 696.9,-927.5 699.7333,-927.5 699.7333,-927.5 762.4332,-927.5 762.4332,-927.5 765.2665,-927.5 768.0999,-930.3333 768.0999,-933.1667 768.0999,-933.1667 768.0999,-938.8333 768.0999,-938.8333 768.0999,-941.6667 765.2665,-944.5 762.4332,-944.5"/>
<text text-anchor="middle" x="731.0833" y="-933.3" font-family="Helvetica,sans-Serif" font-size="9.00" fill="#000000">mapRhythm.ts</text>
</a>
</g>
</g>
<!-- colorize.ts&#45;&gt;mapRhythm.ts -->
<g id="edge7" class="edge">
<title>colorize.ts&#45;&gt;mapRhythm.ts</title>
<path fill="none" stroke="#000000" stroke-width="2" stroke-opacity="0.200000" d="M643.6869,-957.1504C657.5069,-953.8059 674.4022,-949.7171 689.6415,-946.0292"/>
<polygon fill="#000000" fill-opacity="0.200000" stroke="#000000" stroke-width="2" stroke-opacity="0.200000" points="690.2739,-948.0368 695.6116,-944.5844 689.2859,-943.9546 690.2739,-948.0368"/>
</g>
<!-- mapRhythm.ts&#45;&gt;util.ts -->
<g id="edge36" class="edge">
<title>mapRhythm.ts&#45;&gt;util.ts</title>
<path fill="none" stroke="#000000" stroke-width="2" stroke-opacity="0.200000" d="M757.819,-944.526C766.5352,-947.411 776.229,-950.7323 785.0193,-954 795.8466,-958.025 807.6559,-962.8007 817.8063,-967.0279"/>
<polygon fill="#000000" fill-opacity="0.200000" stroke="#000000" stroke-width="2" stroke-opacity="0.200000" points="817.2256,-969.0615 823.5711,-969.4437 818.849,-965.1879 817.2256,-969.0615"/>
</g>
<!-- components/PianoRoll.tsx -->
<g id="node12" class="node">
<title>components/PianoRoll.tsx</title>
<g id="a_node12"><a xlink:href="components/PianoRoll.tsx" xlink:title="PianoRoll.tsx">
<path fill="#bbfeff" stroke="#000000" d="M191.8062,-152.5C191.8062,-152.5 135.0893,-152.5 135.0893,-152.5 132.256,-152.5 129.4227,-149.6667 129.4227,-146.8333 129.4227,-146.8333 129.4227,-141.1667 129.4227,-141.1667 129.4227,-138.3333 132.256,-135.5 135.0893,-135.5 135.0893,-135.5 191.8062,-135.5 191.8062,-135.5 194.6395,-135.5 197.4728,-138.3333 197.4728,-141.1667 197.4728,-141.1667 197.4728,-146.8333 197.4728,-146.8333 197.4728,-149.6667 194.6395,-152.5 191.8062,-152.5"/>
<text text-anchor="middle" x="163.4478" y="-141.3" font-family="Helvetica,sans-Serif" font-size="9.00" fill="#000000">PianoRoll.tsx</text>
</a>
</g>
</g>
<!-- components/PlayButton.tsx -->
<g id="node13" class="node">
<title>components/PlayButton.tsx</title>
<g id="a_node13"><a xlink:href="components/PlayButton.tsx" xlink:title="PlayButton.tsx">
<path fill="#bbfeff" stroke="#000000" d="M194.3114,-181.5C194.3114,-181.5 132.5841,-181.5 132.5841,-181.5 129.7508,-181.5 126.9174,-178.6667 126.9174,-175.8333 126.9174,-175.8333 126.9174,-170.1667 126.9174,-170.1667 126.9174,-167.3333 129.7508,-164.5 132.5841,-164.5 132.5841,-164.5 194.3114,-164.5 194.3114,-164.5 197.1447,-164.5 199.9781,-167.3333 199.9781,-170.1667 199.9781,-170.1667 199.9781,-175.8333 199.9781,-175.8333 199.9781,-178.6667 197.1447,-181.5 194.3114,-181.5"/>
<text text-anchor="middle" x="163.4478" y="-170.3" font-family="Helvetica,sans-Serif" font-size="9.00" fill="#000000">PlayButton.tsx</text>
</a>
</g>
</g>
<!-- components/PlayButton.tsx&#45;&gt;../../instruments/tidal.ts -->
<g id="edge9" class="edge">
<title>components/PlayButton.tsx&#45;&gt;../../instruments/tidal.ts</title>
<path fill="none" stroke="#000000" stroke-width="2" stroke-opacity="0.200000" d="M200.2904,-179.064C214.71,-181.4373 231.1385,-184.1413 245.2342,-186.4613"/>
<polygon fill="#000000" fill-opacity="0.200000" stroke="#000000" stroke-width="2" stroke-opacity="0.200000" points="245.2694,-188.5953 251.5308,-187.4976 245.9516,-184.451 245.2694,-188.5953"/>
</g>
<!-- components/Player.tsx -->
<g id="node14" class="node">
<title>components/Player.tsx</title>
<g id="a_node14"><a xlink:href="components/Player.tsx" xlink:title="Player.tsx">
<path fill="#bbfeff" stroke="#000000" d="M84.1969,-181.5C84.1969,-181.5 40.4921,-181.5 40.4921,-181.5 37.6588,-181.5 34.8254,-178.6667 34.8254,-175.8333 34.8254,-175.8333 34.8254,-170.1667 34.8254,-170.1667 34.8254,-167.3333 37.6588,-164.5 40.4921,-164.5 40.4921,-164.5 84.1969,-164.5 84.1969,-164.5 87.0302,-164.5 89.8635,-167.3333 89.8635,-170.1667 89.8635,-170.1667 89.8635,-175.8333 89.8635,-175.8333 89.8635,-178.6667 87.0302,-181.5 84.1969,-181.5"/>
<text text-anchor="middle" x="62.3445" y="-170.3" font-family="Helvetica,sans-Serif" font-size="9.00" fill="#000000">Player.tsx</text>
</a>
</g>
</g>
<!-- components/PlayButton.tsx&#45;&gt;components/Player.tsx -->
<g id="edge10" class="edge">
<title>components/PlayButton.tsx&#45;&gt;components/Player.tsx</title>
<path fill="none" stroke="#000000" stroke-width="2" stroke-opacity="0.200000" d="M126.7506,-177.3463C119.3523,-177.5143 111.5251,-177.5446 103.9723,-177.4371"/>
<polygon fill="#000000" fill-opacity="0.200000" stroke="#000000" stroke-width="2" stroke-opacity="0.200000" points="96.0257,-175.1227 89.9714,-177.0605 95.9128,-179.3211 96.0257,-175.1227"/>
<polyline fill="none" stroke="#000000" stroke-width="2" stroke-opacity="0.200000" points="95.9692,-177.2219 98.9681,-177.3026 "/>
<ellipse fill="none" stroke="#000000" stroke-width="2" stroke-opacity="0.200000" cx="101.3673" cy="-177.3671" rx="2.4" ry="2.4"/>
</g>
<!-- components/Player.tsx&#45;&gt;../canUseDOM.ts -->
<g id="edge11" class="edge">
<title>components/Player.tsx&#45;&gt;../canUseDOM.ts</title>
<path fill="none" stroke="#000000" stroke-width="2" stroke-opacity="0.200000" d="M90.3209,-169.3058C97.2429,-167.0864 104.0088,-163.567 108.689,-158 135.2627,-126.3912 98.3696,-100.0806 121.689,-66 148.887,-26.2508 169.6123,-25.173 216.2122,-13 266.6732,.1816 281.9974,-5.1615 333.5593,-13 345.9537,-14.8842 359.2469,-18.7023 370.5083,-22.5023"/>
<polygon fill="#000000" fill-opacity="0.200000" stroke="#000000" stroke-width="2" stroke-opacity="0.200000" points="369.8396,-24.493 376.1965,-24.4774 371.2173,-20.5254 369.8396,-24.493"/>
</g>
<!-- components/Player.tsx&#45;&gt;components/PianoRoll.tsx -->
<g id="edge12" class="edge">
<title>components/Player.tsx&#45;&gt;components/PianoRoll.tsx</title>
<path fill="none" stroke="#000000" stroke-width="2" stroke-opacity="0.200000" d="M89.9714,-165.0756C101.6281,-161.7321 115.3482,-157.7967 127.757,-154.2374"/>
<polygon fill="#000000" fill-opacity="0.200000" stroke="#000000" stroke-width="2" stroke-opacity="0.200000" points="128.54,-156.1975 133.7284,-152.5246 127.382,-152.1603 128.54,-156.1975"/>
</g>
<!-- components/Player.tsx&#45;&gt;components/PlayButton.tsx -->
<g id="edge13" class="edge">
<title>components/Player.tsx&#45;&gt;components/PlayButton.tsx</title>
<path fill="none" stroke="#000000" stroke-width="2" stroke-opacity="0.200000" d="M89.9714,-168.9395C97.0605,-168.6481 104.9126,-168.5016 112.7688,-168.5"/>
<polygon fill="#000000" fill-opacity="0.200000" stroke="#000000" stroke-width="2" stroke-opacity="0.200000" points="120.7278,-170.6876 126.7506,-168.6537 120.774,-166.4878 120.7278,-170.6876"/>
<polyline fill="none" stroke="#000000" stroke-width="2" stroke-opacity="0.200000" points="120.7509,-168.5877 117.7511,-168.5547 "/>
<ellipse fill="none" stroke="#000000" stroke-width="2" stroke-opacity="0.200000" cx="115.3513" cy="-168.5283" rx="2.4" ry="2.4"/>
</g>
<!-- components/RhythmicalTree.tsx -->
<g id="node15" class="node">
<title>components/RhythmicalTree.tsx</title>
<g id="a_node15"><a xlink:href="components/RhythmicalTree.tsx" xlink:title="RhythmicalTree.tsx">
<path fill="#ccffcc" stroke="#000000" d="M102.8673,-152.5C102.8673,-152.5 21.8217,-152.5 21.8217,-152.5 18.9883,-152.5 16.155,-149.6667 16.155,-146.8333 16.155,-146.8333 16.155,-141.1667 16.155,-141.1667 16.155,-138.3333 18.9883,-135.5 21.8217,-135.5 21.8217,-135.5 102.8673,-135.5 102.8673,-135.5 105.7006,-135.5 108.534,-138.3333 108.534,-141.1667 108.534,-141.1667 108.534,-146.8333 108.534,-146.8333 108.534,-149.6667 105.7006,-152.5 102.8673,-152.5"/>
<text text-anchor="middle" x="62.3445" y="-141.3" font-family="Helvetica,sans-Serif" font-size="9.00" fill="#000000">RhythmicalTree.tsx</text>
</a>
</g>
</g>
<!-- components/Tree.tsx -->
<g id="node16" class="node">
<title>components/Tree.tsx</title>
<g id="a_node16"><a xlink:href="components/Tree.tsx" xlink:title="Tree.tsx">
<path fill="#bbfeff" stroke="#000000" d="M184.7811,-123.5C184.7811,-123.5 142.1144,-123.5 142.1144,-123.5 139.2811,-123.5 136.4478,-120.6667 136.4478,-117.8333 136.4478,-117.8333 136.4478,-112.1667 136.4478,-112.1667 136.4478,-109.3333 139.2811,-106.5 142.1144,-106.5 142.1144,-106.5 184.7811,-106.5 184.7811,-106.5 187.6144,-106.5 190.4478,-109.3333 190.4478,-112.1667 190.4478,-112.1667 190.4478,-117.8333 190.4478,-117.8333 190.4478,-120.6667 187.6144,-123.5 184.7811,-123.5"/>
<text text-anchor="middle" x="163.4478" y="-112.3" font-family="Helvetica,sans-Serif" font-size="9.00" fill="#000000">Tree.tsx</text>
</a>
</g>
</g>
<!-- components/TreeAnalyzer.tsx -->
<g id="node17" class="node">
<title>components/TreeAnalyzer.tsx</title>
<g id="a_node17"><a xlink:href="components/TreeAnalyzer.tsx" xlink:title="TreeAnalyzer.tsx">
<path fill="#bbfeff" stroke="#000000" d="M97.8786,-123.5C97.8786,-123.5 26.8104,-123.5 26.8104,-123.5 23.9771,-123.5 21.1437,-120.6667 21.1437,-117.8333 21.1437,-117.8333 21.1437,-112.1667 21.1437,-112.1667 21.1437,-109.3333 23.9771,-106.5 26.8104,-106.5 26.8104,-106.5 97.8786,-106.5 97.8786,-106.5 100.7119,-106.5 103.5452,-109.3333 103.5452,-112.1667 103.5452,-112.1667 103.5452,-117.8333 103.5452,-117.8333 103.5452,-120.6667 100.7119,-123.5 97.8786,-123.5"/>
<text text-anchor="middle" x="62.3445" y="-112.3" font-family="Helvetica,sans-Serif" font-size="9.00" fill="#000000">TreeAnalyzer.tsx</text>
</a>
</g>
</g>
<!-- components/TreeAnalyzer.tsx&#45;&gt;../common/JSONViewer.tsx -->
<g id="edge14" class="edge">
<title>components/TreeAnalyzer.tsx&#45;&gt;../common/JSONViewer.tsx</title>
<path fill="none" stroke="#000000" stroke-width="2" stroke-opacity="0.200000" d="M70.2623,-106.2418C80.8533,-95.0956 100.7407,-76.0821 121.689,-66 156.553,-49.2204 199.8024,-40.9357 232.106,-36.8666"/>
<polygon fill="#000000" fill-opacity="0.200000" stroke="#000000" stroke-width="2" stroke-opacity="0.200000" points="232.7088,-38.9093 238.4151,-36.1078 232.2072,-34.7394 232.7088,-38.9093"/>
</g>
<!-- components/TreeAnalyzer.tsx&#45;&gt;components/Tree.tsx -->
<g id="edge15" class="edge">
<title>components/TreeAnalyzer.tsx&#45;&gt;components/Tree.tsx</title>
<path fill="none" stroke="#000000" stroke-width="2" stroke-opacity="0.200000" d="M103.7588,-115C112.5369,-115 121.6953,-115 130.1272,-115"/>
<polygon fill="#000000" fill-opacity="0.200000" stroke="#000000" stroke-width="2" stroke-opacity="0.200000" points="130.4152,-117.1001 136.4152,-115 130.4151,-112.9001 130.4152,-117.1001"/>
</g>
<!-- deprecated.ts -->
<g id="node18" class="node">
<title>deprecated.ts</title>
<g id="a_node18"><a xlink:href="deprecated.ts" xlink:title="deprecated.ts">
<path fill="#ddfeff" stroke="#000000" d="M308.2567,-439.5C308.2567,-439.5 249.5148,-439.5 249.5148,-439.5 246.6814,-439.5 243.8481,-436.6667 243.8481,-433.8333 243.8481,-433.8333 243.8481,-428.1667 243.8481,-428.1667 243.8481,-425.3333 246.6814,-422.5 249.5148,-422.5 249.5148,-422.5 308.2567,-422.5 308.2567,-422.5 311.0901,-422.5 313.9234,-425.3333 313.9234,-428.1667 313.9234,-428.1667 313.9234,-433.8333 313.9234,-433.8333 313.9234,-436.6667 311.0901,-439.5 308.2567,-439.5"/>
<text text-anchor="middle" x="278.8857" y="-428.3" font-family="Helvetica,sans-Serif" font-size="9.00" fill="#000000">deprecated.ts</text>
</a>
</g>
</g>
<!-- helpers/arrays.ts -->
<g id="node19" class="node">
<title>helpers/arrays.ts</title>
<g id="a_node19"><a xlink:href="helpers/arrays.ts" xlink:title="arrays.ts">
<path fill="#ddfeff" stroke="#000000" d="M752.4166,-836.5C752.4166,-836.5 709.7499,-836.5 709.7499,-836.5 706.9166,-836.5 704.0833,-833.6667 704.0833,-830.8333 704.0833,-830.8333 704.0833,-825.1667 704.0833,-825.1667 704.0833,-822.3333 706.9166,-819.5 709.7499,-819.5 709.7499,-819.5 752.4166,-819.5 752.4166,-819.5 755.2499,-819.5 758.0833,-822.3333 758.0833,-825.1667 758.0833,-825.1667 758.0833,-830.8333 758.0833,-830.8333 758.0833,-833.6667 755.2499,-836.5 752.4166,-836.5"/>
<text text-anchor="middle" x="731.0833" y="-825.3" font-family="Helvetica,sans-Serif" font-size="9.00" fill="#000000">arrays.ts</text>
</a>
</g>
</g>
<!-- deprecated.ts&#45;&gt;helpers/arrays.ts -->
<g id="edge16" class="edge">
<title>deprecated.ts&#45;&gt;helpers/arrays.ts</title>
<path fill="none" stroke="#000000" stroke-width="2" stroke-opacity="0.200000" d="M313.9877,-424.4072C398.8905,-409.3269 612.185,-376.8855 664.1472,-421 694.9518,-447.1522 723.4721,-743.5966 729.7882,-813.3612"/>
<polygon fill="#000000" fill-opacity="0.200000" stroke="#000000" stroke-width="2" stroke-opacity="0.200000" points="727.7011,-813.6002 730.3295,-819.3883 731.8843,-813.2244 727.7011,-813.6002"/>
</g>
<!-- helpers/objects.ts -->
<g id="node20" class="node">
<title>helpers/objects.ts</title>
<g id="a_node20"><a xlink:href="helpers/objects.ts" xlink:title="objects.ts">
<path fill="#ddfeff" stroke="#000000" d="M752.4337,-865.5C752.4337,-865.5 709.7328,-865.5 709.7328,-865.5 706.8995,-865.5 704.0662,-862.6667 704.0662,-859.8333 704.0662,-859.8333 704.0662,-854.1667 704.0662,-854.1667 704.0662,-851.3333 706.8995,-848.5 709.7328,-848.5 709.7328,-848.5 752.4337,-848.5 752.4337,-848.5 755.267,-848.5 758.1003,-851.3333 758.1003,-854.1667 758.1003,-854.1667 758.1003,-859.8333 758.1003,-859.8333 758.1003,-862.6667 755.267,-865.5 752.4337,-865.5"/>
<text text-anchor="middle" x="731.0833" y="-854.3" font-family="Helvetica,sans-Serif" font-size="9.00" fill="#000000">objects.ts</text>
</a>
</g>
</g>
<!-- deprecated.ts&#45;&gt;helpers/objects.ts -->
<g id="edge17" class="edge">
<title>deprecated.ts&#45;&gt;helpers/objects.ts</title>
<path fill="none" stroke="#000000" stroke-width="2" stroke-opacity="0.200000" d="M313.9805,-428.6998C399.8728,-423.9046 617.0787,-417.0886 664.1472,-467 692.8274,-497.4124 651.002,-810.3825 677.1472,-843 682.2581,-849.3761 689.8683,-853.0688 697.7721,-855.1546"/>
<polygon fill="#000000" fill-opacity="0.200000" stroke="#000000" stroke-width="2" stroke-opacity="0.200000" points="697.53,-857.2503 703.8369,-856.4543 698.4102,-853.1436 697.53,-857.2503"/>
</g>
<!-- rhythmical.ts -->
<g id="node21" class="node">
<title>rhythmical.ts</title>
<g id="a_node21"><a xlink:href="rhythmical.ts" xlink:title="rhythmical.ts">
<path fill="#ddfeff" stroke="#000000" d="M425.1657,-504.5C425.1657,-504.5 370.474,-504.5 370.474,-504.5 367.6406,-504.5 364.8073,-501.6667 364.8073,-498.8333 364.8073,-498.8333 364.8073,-493.1667 364.8073,-493.1667 364.8073,-490.3333 367.6406,-487.5 370.474,-487.5 370.474,-487.5 425.1657,-487.5 425.1657,-487.5 427.999,-487.5 430.8324,-490.3333 430.8324,-493.1667 430.8324,-493.1667 430.8324,-498.8333 430.8324,-498.8333 430.8324,-501.6667 427.999,-504.5 425.1657,-504.5"/>
<text text-anchor="middle" x="397.8198" y="-493.3" font-family="Helvetica,sans-Serif" font-size="9.00" fill="#000000">rhythmical.ts</text>
</a>
</g>
</g>
<!-- deprecated.ts&#45;&gt;rhythmical.ts -->
<g id="edge18" class="edge">
<title>deprecated.ts&#45;&gt;rhythmical.ts</title>
<path fill="none" stroke="#000000" stroke-width="2" stroke-opacity="0.200000" d="M294.9257,-439.7662C316.0578,-451.3153 353.277,-471.6564 376.6857,-484.4498"/>
<polygon fill="#000000" fill-opacity="0.200000" stroke="#000000" stroke-width="2" stroke-opacity="0.200000" points="375.7618,-486.338 382.034,-487.3727 377.7761,-482.6524 375.7618,-486.338"/>
</g>
<!-- rhythmical.ts&#45;&gt;helpers/objects.ts -->
<g id="edge55" class="edge">
<title>rhythmical.ts&#45;&gt;helpers/objects.ts</title>
<path fill="none" stroke="#000000" stroke-width="2" stroke-opacity="0.200000" d="M424.7125,-487.4074C480.3266,-471.5163 607.5076,-445.3027 664.1472,-517 686.6189,-545.4458 654.3995,-814.7745 677.1472,-843 682.275,-849.3626 689.8909,-853.0506 697.7949,-855.1363"/>
<polygon fill="#000000" fill-opacity="0.200000" stroke="#000000" stroke-width="2" stroke-opacity="0.200000" points="697.5517,-857.2319 703.8587,-856.4368 698.4325,-853.1252 697.5517,-857.2319"/>
</g>
<!-- features/inherit.ts -->
<g id="node30" class="node">
<title>features/inherit.ts</title>
<g id="a_node30"><a xlink:href="features/inherit.ts" xlink:title="inherit.ts">
<path fill="#ddfeff" stroke="#000000" d="M533.1834,-690.5C533.1834,-690.5 490.5168,-690.5 490.5168,-690.5 487.6834,-690.5 484.8501,-687.6667 484.8501,-684.8333 484.8501,-684.8333 484.8501,-679.1667 484.8501,-679.1667 484.8501,-676.3333 487.6834,-673.5 490.5168,-673.5 490.5168,-673.5 533.1834,-673.5 533.1834,-673.5 536.0168,-673.5 538.8501,-676.3333 538.8501,-679.1667 538.8501,-679.1667 538.8501,-684.8333 538.8501,-684.8333 538.8501,-687.6667 536.0168,-690.5 533.1834,-690.5"/>
<text text-anchor="middle" x="511.8501" y="-679.3" font-family="Helvetica,sans-Serif" font-size="9.00" fill="#000000">inherit.ts</text>
</a>
</g>
</g>
<!-- rhythmical.ts&#45;&gt;features/inherit.ts -->
<g id="edge52" class="edge">
<title>rhythmical.ts&#45;&gt;features/inherit.ts</title>
<path fill="none" stroke="#000000" stroke-width="2" stroke-opacity="0.200000" d="M401.5346,-504.6607C410.9951,-526.8871 436.4913,-587.8644 454.0803,-640 458.2176,-652.2633 452.91,-658.8671 462.0803,-668 466.6118,-672.5129 472.4761,-675.5983 478.5804,-677.7011"/>
<polygon fill="#000000" fill-opacity="0.200000" stroke="#000000" stroke-width="2" stroke-opacity="0.200000" points="478.3761,-679.8289 484.7241,-679.4928 479.5521,-675.7969 478.3761,-679.8289"/>
</g>
<!-- features/parallel.ts -->
<g id="node33" class="node">
<title>features/parallel.ts</title>
<g id="a_node33"><a xlink:href="features/parallel.ts" xlink:title="parallel.ts">
<path fill="#ddfeff" stroke="#000000" d="M636.7371,-545.5C636.7371,-545.5 594.03,-545.5 594.03,-545.5 591.1967,-545.5 588.3634,-542.6667 588.3634,-539.8333 588.3634,-539.8333 588.3634,-534.1667 588.3634,-534.1667 588.3634,-531.3333 591.1967,-528.5 594.03,-528.5 594.03,-528.5 636.7371,-528.5 636.7371,-528.5 639.5704,-528.5 642.4037,-531.3333 642.4037,-534.1667 642.4037,-534.1667 642.4037,-539.8333 642.4037,-539.8333 642.4037,-542.6667 639.5704,-545.5 636.7371,-545.5"/>
<text text-anchor="middle" x="615.3835" y="-534.3" font-family="Helvetica,sans-Serif" font-size="9.00" fill="#000000">parallel.ts</text>
</a>
</g>
</g>
<!-- rhythmical.ts&#45;&gt;features/parallel.ts -->
<g id="edge53" class="edge">
<title>rhythmical.ts&#45;&gt;features/parallel.ts</title>
<path fill="none" stroke="#000000" stroke-width="2" stroke-opacity="0.200000" d="M431.1076,-491.6626C463.1846,-488.6328 512.734,-487.0035 553.6199,-499 571.0102,-504.1026 588.3724,-515.4822 600.2394,-524.4661"/>
<polygon fill="#000000" fill-opacity="0.200000" stroke="#000000" stroke-width="2" stroke-opacity="0.200000" points="599.2608,-526.3656 605.2854,-528.3941 601.8408,-523.0514 599.2608,-526.3656"/>
</g>
<!-- features/sequential.ts -->
<g id="node37" class="node">
<title>features/sequential.ts</title>
<g id="a_node37"><a xlink:href="features/sequential.ts" xlink:title="sequential.ts">
<path fill="#ddfeff" stroke="#000000" d="M642.7512,-603.5C642.7512,-603.5 588.0159,-603.5 588.0159,-603.5 585.1825,-603.5 582.3492,-600.6667 582.3492,-597.8333 582.3492,-597.8333 582.3492,-592.1667 582.3492,-592.1667 582.3492,-589.3333 585.1825,-586.5 588.0159,-586.5 588.0159,-586.5 642.7512,-586.5 642.7512,-586.5 645.5846,-586.5 648.4179,-589.3333 648.4179,-592.1667 648.4179,-592.1667 648.4179,-597.8333 648.4179,-597.8333 648.4179,-600.6667 645.5846,-603.5 642.7512,-603.5"/>
<text text-anchor="middle" x="615.3835" y="-592.3" font-family="Helvetica,sans-Serif" font-size="9.00" fill="#000000">sequential.ts</text>
</a>
</g>
</g>
<!-- rhythmical.ts&#45;&gt;features/sequential.ts -->
<g id="edge54" class="edge">
<title>rhythmical.ts&#45;&gt;features/sequential.ts</title>
<path fill="none" stroke="#000000" stroke-width="2" stroke-opacity="0.200000" d="M431.1129,-498.135C471.0544,-501.3067 534.9764,-508.5161 553.6199,-523 564.774,-531.6655 558.244,-540.6267 566.6199,-552 575.2835,-563.764 587.6525,-574.6247 597.765,-582.4881"/>
<polygon fill="#000000" fill-opacity="0.200000" stroke="#000000" stroke-width="2" stroke-opacity="0.200000" points="596.7656,-584.3656 602.816,-586.3159 599.3023,-581.0182 596.7656,-584.3656"/>
</g>
<!-- dictionary/cr78.ts -->
<g id="node22" class="node">
<title>dictionary/cr78.ts</title>
<g id="a_node22"><a xlink:href="dictionary/cr78.ts" xlink:title="cr78.ts">
<path fill="#ccffcc" stroke="#000000" d="M636.7169,-1091.5C636.7169,-1091.5 594.0502,-1091.5 594.0502,-1091.5 591.2169,-1091.5 588.3835,-1088.6667 588.3835,-1085.8333 588.3835,-1085.8333 588.3835,-1080.1667 588.3835,-1080.1667 588.3835,-1077.3333 591.2169,-1074.5 594.0502,-1074.5 594.0502,-1074.5 636.7169,-1074.5 636.7169,-1074.5 639.5502,-1074.5 642.3835,-1077.3333 642.3835,-1080.1667 642.3835,-1080.1667 642.3835,-1085.8333 642.3835,-1085.8333 642.3835,-1088.6667 639.5502,-1091.5 636.7169,-1091.5"/>
<text text-anchor="middle" x="615.3835" y="-1080.3" font-family="Helvetica,sans-Serif" font-size="9.00" fill="#000000">cr78.ts</text>
</a>
</g>
</g>
<!-- dictionary/voicings.ts -->
<g id="node23" class="node">
<title>dictionary/voicings.ts</title>
<g id="a_node23"><a xlink:href="dictionary/voicings.ts" xlink:title="voicings.ts">
<path fill="#ddfeff" stroke="#000000" d="M638.733,-1062.5C638.733,-1062.5 592.0341,-1062.5 592.0341,-1062.5 589.2008,-1062.5 586.3674,-1059.6667 586.3674,-1056.8333 586.3674,-1056.8333 586.3674,-1051.1667 586.3674,-1051.1667 586.3674,-1048.3333 589.2008,-1045.5 592.0341,-1045.5 592.0341,-1045.5 638.733,-1045.5 638.733,-1045.5 641.5663,-1045.5 644.3997,-1048.3333 644.3997,-1051.1667 644.3997,-1051.1667 644.3997,-1056.8333 644.3997,-1056.8333 644.3997,-1059.6667 641.5663,-1062.5 638.733,-1062.5"/>
<text text-anchor="middle" x="615.3835" y="-1051.3" font-family="Helvetica,sans-Serif" font-size="9.00" fill="#000000">voicings.ts</text>
</a>
</g>
</g>
<!-- editRhythm.ts -->
<g id="node24" class="node">
<title>editRhythm.ts</title>
<g id="a_node24"><a xlink:href="editRhythm.ts" xlink:title="editRhythm.ts">
<path fill="#ddfeff" stroke="#000000" d="M760.9361,-1058.5C760.9361,-1058.5 701.2304,-1058.5 701.2304,-1058.5 698.3971,-1058.5 695.5637,-1055.6667 695.5637,-1052.8333 695.5637,-1052.8333 695.5637,-1047.1667 695.5637,-1047.1667 695.5637,-1044.3333 698.3971,-1041.5 701.2304,-1041.5 701.2304,-1041.5 760.9361,-1041.5 760.9361,-1041.5 763.7695,-1041.5 766.6028,-1044.3333 766.6028,-1047.1667 766.6028,-1047.1667 766.6028,-1052.8333 766.6028,-1052.8333 766.6028,-1055.6667 763.7695,-1058.5 760.9361,-1058.5"/>
<text text-anchor="middle" x="731.0833" y="-1047.3" font-family="Helvetica,sans-Serif" font-size="9.00" fill="#000000">editRhythm.ts</text>
</a>
</g>
</g>
<!-- dictionary/voicings.ts&#45;&gt;editRhythm.ts -->
<g id="edge19" class="edge">
<title>dictionary/voicings.ts&#45;&gt;editRhythm.ts</title>
<path fill="none" stroke="#000000" stroke-width="2" stroke-opacity="0.200000" d="M644.5795,-1052.9906C658.0519,-1052.5249 674.2981,-1051.9632 689.0561,-1051.453"/>
<polygon fill="#000000" fill-opacity="0.200000" stroke="#000000" stroke-width="2" stroke-opacity="0.200000" points="689.3535,-1053.544 695.2774,-1051.2379 689.2084,-1049.3465 689.3535,-1053.544"/>
</g>
<!-- editRhythm.ts&#45;&gt;util.ts -->
<g id="edge24" class="edge">
<title>editRhythm.ts&#45;&gt;util.ts</title>
<path fill="none" stroke="#000000" stroke-width="2" stroke-opacity="0.200000" d="M766.6605,-1043.6212C773.0089,-1041.6963 779.3873,-1039.2084 785.0193,-1036 804.9742,-1024.6322 822.8981,-1004.6869 833.4799,-991.4089"/>
<polygon fill="#000000" fill-opacity="0.200000" stroke="#000000" stroke-width="2" stroke-opacity="0.200000" points="835.2652,-992.5341 837.2933,-986.5093 831.9508,-989.9544 835.2652,-992.5341"/>
</g>
<!-- editTree.ts -->
<g id="node28" class="node">
<title>editTree.ts</title>
<g id="a_node28"><a xlink:href="editTree.ts" xlink:title="editTree.ts">
<path fill="#ddfeff" stroke="#000000" d="M866.973,-1072.5C866.973,-1072.5 819.9308,-1072.5 819.9308,-1072.5 817.0974,-1072.5 814.2641,-1069.6667 814.2641,-1066.8333 814.2641,-1066.8333 814.2641,-1061.1667 814.2641,-1061.1667 814.2641,-1058.3333 817.0974,-1055.5 819.9308,-1055.5 819.9308,-1055.5 866.973,-1055.5 866.973,-1055.5 869.8064,-1055.5 872.6397,-1058.3333 872.6397,-1061.1667 872.6397,-1061.1667 872.6397,-1066.8333 872.6397,-1066.8333 872.6397,-1069.6667 869.8064,-1072.5 866.973,-1072.5"/>
<text text-anchor="middle" x="843.4519" y="-1061.3" font-family="Helvetica,sans-Serif" font-size="9.00" fill="#000000">editTree.ts</text>
</a>
</g>
</g>
<!-- editRhythm.ts&#45;&gt;editTree.ts -->
<g id="edge23" class="edge">
<title>editRhythm.ts&#45;&gt;editTree.ts</title>
<path fill="none" stroke="#000000" stroke-width="2" stroke-opacity="0.200000" d="M766.6374,-1054.4297C779.7883,-1056.0682 794.6904,-1057.9248 807.8459,-1059.5639"/>
<polygon fill="#000000" fill-opacity="0.200000" stroke="#000000" stroke-width="2" stroke-opacity="0.200000" points="807.9348,-1061.6911 814.1484,-1060.3491 808.4541,-1057.5233 807.9348,-1061.6911"/>
</g>
<!-- digRhythm.test.ts -->
<g id="node25" class="node">
<title>digRhythm.test.ts</title>
<g id="a_node25"><a xlink:href="digRhythm.test.ts" xlink:title="digRhythm.test.ts">
<path fill="#ddfeff" stroke="#000000" d="M99.205,-413.5C99.205,-413.5 25.484,-413.5 25.484,-413.5 22.6506,-413.5 19.8173,-410.6667 19.8173,-407.8333 19.8173,-407.8333 19.8173,-402.1667 19.8173,-402.1667 19.8173,-399.3333 22.6506,-396.5 25.484,-396.5 25.484,-396.5 99.205,-396.5 99.205,-396.5 102.0383,-396.5 104.8717,-399.3333 104.8717,-402.1667 104.8717,-402.1667 104.8717,-407.8333 104.8717,-407.8333 104.8717,-410.6667 102.0383,-413.5 99.205,-413.5"/>
<text text-anchor="middle" x="62.3445" y="-402.3" font-family="Helvetica,sans-Serif" font-size="9.00" fill="#000000">digRhythm.test.ts</text>
</a>
</g>
</g>
<!-- digRhythm.ts -->
<g id="node26" class="node">
<title>digRhythm.ts</title>
<g id="a_node26"><a xlink:href="digRhythm.ts" xlink:title="digRhythm.ts">
<path fill="#ddfeff" stroke="#000000" d="M191.8018,-413.5C191.8018,-413.5 135.0937,-413.5 135.0937,-413.5 132.2604,-413.5 129.427,-410.6667 129.427,-407.8333 129.427,-407.8333 129.427,-402.1667 129.427,-402.1667 129.427,-399.3333 132.2604,-396.5 135.0937,-396.5 135.0937,-396.5 191.8018,-396.5 191.8018,-396.5 194.6351,-396.5 197.4685,-399.3333 197.4685,-402.1667 197.4685,-402.1667 197.4685,-407.8333 197.4685,-407.8333 197.4685,-410.6667 194.6351,-413.5 191.8018,-413.5"/>
<text text-anchor="middle" x="163.4478" y="-402.3" font-family="Helvetica,sans-Serif" font-size="9.00" fill="#000000">digRhythm.ts</text>
</a>
</g>
</g>
<!-- digRhythm.test.ts&#45;&gt;digRhythm.ts -->
<g id="edge20" class="edge">
<title>digRhythm.test.ts&#45;&gt;digRhythm.ts</title>
<path fill="none" stroke="#000000" stroke-width="2" stroke-opacity="0.200000" d="M104.9283,-405C110.8731,-405 116.9686,-405 122.8749,-405"/>
<polygon fill="#000000" fill-opacity="0.200000" stroke="#000000" stroke-width="2" stroke-opacity="0.200000" points="123.1935,-407.1001 129.1935,-405 123.1934,-402.9001 123.1935,-407.1001"/>
</g>
<!-- digRhythm.ts&#45;&gt;util.ts -->
<g id="edge22" class="edge">
<title>digRhythm.ts&#45;&gt;util.ts</title>
<path fill="none" stroke="#000000" stroke-width="2" stroke-opacity="0.200000" d="M197.4733,-398.8384C242.9607,-391.1498 326.1762,-379 397.8198,-379 397.8198,-379 397.8198,-379 615.3835,-379 638.1931,-379 648.1697,-378.7213 664.1472,-395 749.1014,-481.5554 825.5801,-879.9721 840.7353,-962.8661"/>
<polygon fill="#000000" fill-opacity="0.200000" stroke="#000000" stroke-width="2" stroke-opacity="0.200000" points="838.7282,-963.5672 841.8669,-969.0952 842.8606,-962.8164 838.7282,-963.5672"/>
</g>
<!-- digRhythm.ts&#45;&gt;deprecated.ts -->
<g id="edge21" class="edge">
<title>digRhythm.ts&#45;&gt;deprecated.ts</title>
<path fill="none" stroke="#000000" stroke-width="2" stroke-opacity="0.200000" d="M197.7704,-412.7305C210.3346,-415.5603 224.6793,-418.7911 237.7766,-421.741"/>
<polygon fill="#000000" fill-opacity="0.200000" stroke="#000000" stroke-width="2" stroke-opacity="0.200000" points="237.3809,-423.8044 243.6957,-423.0742 238.3038,-419.7071 237.3809,-423.8044"/>
</g>
<!-- editRhythm.test.ts -->
<g id="node27" class="node">
<title>editRhythm.test.ts</title>
<g id="a_node27"><a xlink:href="editRhythm.test.ts" xlink:title="editRhythm.test.ts">
<path fill="#ccffcc" stroke="#000000" d="M100.7042,-442.5C100.7042,-442.5 23.9848,-442.5 23.9848,-442.5 21.1514,-442.5 18.3181,-439.6667 18.3181,-436.8333 18.3181,-436.8333 18.3181,-431.1667 18.3181,-431.1667 18.3181,-428.3333 21.1514,-425.5 23.9848,-425.5 23.9848,-425.5 100.7042,-425.5 100.7042,-425.5 103.5375,-425.5 106.3709,-428.3333 106.3709,-431.1667 106.3709,-431.1667 106.3709,-436.8333 106.3709,-436.8333 106.3709,-439.6667 103.5375,-442.5 100.7042,-442.5"/>
<text text-anchor="middle" x="62.3445" y="-431.3" font-family="Helvetica,sans-Serif" font-size="9.00" fill="#000000">editRhythm.test.ts</text>
</a>
</g>
</g>
<!-- features/chords.ts -->
<g id="node29" class="node">
<title>features/chords.ts</title>
<g id="a_node29"><a xlink:href="features/chords.ts" xlink:title="chords.ts">
<path fill="#ddfeff" stroke="#000000" d="M533.1834,-777.5C533.1834,-777.5 490.5168,-777.5 490.5168,-777.5 487.6834,-777.5 484.8501,-774.6667 484.8501,-771.8333 484.8501,-771.8333 484.8501,-766.1667 484.8501,-766.1667 484.8501,-763.3333 487.6834,-760.5 490.5168,-760.5 490.5168,-760.5 533.1834,-760.5 533.1834,-760.5 536.0168,-760.5 538.8501,-763.3333 538.8501,-766.1667 538.8501,-766.1667 538.8501,-771.8333 538.8501,-771.8333 538.8501,-774.6667 536.0168,-777.5 533.1834,-777.5"/>
<text text-anchor="middle" x="511.8501" y="-766.3" font-family="Helvetica,sans-Serif" font-size="9.00" fill="#000000">chords.ts</text>
</a>
</g>
</g>
<!-- features/chords.ts&#45;&gt;dictionary/voicings.ts -->
<g id="edge25" class="edge">
<title>features/chords.ts&#45;&gt;dictionary/voicings.ts</title>
<path fill="none" stroke="#000000" stroke-width="2" stroke-opacity="0.200000" d="M512.5368,-777.6978C515.9516,-818.9281 532.3255,-994.3801 566.6199,-1035 570.3647,-1039.4356 575.2776,-1042.8406 580.5424,-1045.4532"/>
<polygon fill="#000000" fill-opacity="0.200000" stroke="#000000" stroke-width="2" stroke-opacity="0.200000" points="580.0154,-1047.5143 586.3546,-1047.9884 581.6946,-1043.6646 580.0154,-1047.5143"/>
</g>
<!-- features/inherit.ts&#45;&gt;RhythmZipper.ts -->
<g id="edge27" class="edge">
<title>features/inherit.ts&#45;&gt;RhythmZipper.ts</title>
<path fill="none" stroke="#000000" stroke-width="2" stroke-opacity="0.200000" d="M539.1026,-686.7105C544.7112,-688.9337 550.0021,-692.2009 553.6199,-697 580.0299,-732.0335 539.0821,-859.8457 566.6199,-894 567.4491,-895.0285 568.3486,-895.9846 569.3073,-896.8731"/>
<polygon fill="#000000" fill-opacity="0.200000" stroke="#000000" stroke-width="2" stroke-opacity="0.200000" points="568.4769,-898.8734 574.5423,-900.7763 570.9874,-895.5063 568.4769,-898.8734"/>
</g>
<!-- features/inherit.ts&#45;&gt;helpers/objects.ts -->
<g id="edge26" class="edge">
<title>features/inherit.ts&#45;&gt;helpers/objects.ts</title>
<path fill="none" stroke="#000000" stroke-width="2" stroke-opacity="0.200000" d="M539.2502,-689.7465C544.2328,-691.7288 549.2352,-694.1317 553.6199,-697 613.4826,-736.1606 624.3968,-754.5273 664.1472,-814 671.9961,-825.7431 666.3593,-833.8826 677.1472,-843 682.9775,-847.9274 690.3378,-851.1473 697.731,-853.2443"/>
<polygon fill="#000000" fill-opacity="0.200000" stroke="#000000" stroke-width="2" stroke-opacity="0.200000" points="697.5894,-855.3713 703.9163,-854.7544 698.5856,-851.2911 697.5894,-855.3713"/>
</g>
<!-- features/nudge.ts -->
<g id="node31" class="node">
<title>features/nudge.ts</title>
<g id="a_node31"><a xlink:href="features/nudge.ts" xlink:title="nudge.ts">
<path fill="#ccffcc" stroke="#000000" d="M533.1834,-719.5C533.1834,-719.5 490.5168,-719.5 490.5168,-719.5 487.6834,-719.5 484.8501,-716.6667 484.8501,-713.8333 484.8501,-713.8333 484.8501,-708.1667 484.8501,-708.1667 484.8501,-705.3333 487.6834,-702.5 490.5168,-702.5 490.5168,-702.5 533.1834,-702.5 533.1834,-702.5 536.0168,-702.5 538.8501,-705.3333 538.8501,-708.1667 538.8501,-708.1667 538.8501,-713.8333 538.8501,-713.8333 538.8501,-716.6667 536.0168,-719.5 533.1834,-719.5"/>
<text text-anchor="middle" x="511.8501" y="-708.3" font-family="Helvetica,sans-Serif" font-size="9.00" fill="#000000">nudge.ts</text>
</a>
</g>
</g>
<!-- features/parallel.test.ts -->
<g id="node32" class="node">
<title>features/parallel.test.ts</title>
<g id="a_node32"><a xlink:href="features/parallel.test.ts" xlink:title="parallel.test.ts">
<path fill="#ddfeff" stroke="#000000" d="M541.7099,-545.5C541.7099,-545.5 481.9903,-545.5 481.9903,-545.5 479.157,-545.5 476.3236,-542.6667 476.3236,-539.8333 476.3236,-539.8333 476.3236,-534.1667 476.3236,-534.1667 476.3236,-531.3333 479.157,-528.5 481.9903,-528.5 481.9903,-528.5 541.7099,-528.5 541.7099,-528.5 544.5432,-528.5 547.3766,-531.3333 547.3766,-534.1667 547.3766,-534.1667 547.3766,-539.8333 547.3766,-539.8333 547.3766,-542.6667 544.5432,-545.5 541.7099,-545.5"/>
<text text-anchor="middle" x="511.8501" y="-534.3" font-family="Helvetica,sans-Serif" font-size="9.00" fill="#000000">parallel.test.ts</text>
</a>
</g>
</g>
<!-- features/parallel.test.ts&#45;&gt;features/parallel.ts -->
<g id="edge28" class="edge">
<title>features/parallel.test.ts&#45;&gt;features/parallel.ts</title>
<path fill="none" stroke="#000000" stroke-width="2" stroke-opacity="0.200000" d="M547.4804,-537C558.7331,-537 571.116,-537 582.1912,-537"/>
<polygon fill="#000000" fill-opacity="0.200000" stroke="#000000" stroke-width="2" stroke-opacity="0.200000" points="582.1941,-539.1001 588.194,-537 582.194,-534.9001 582.1941,-539.1001"/>
</g>
<!-- features/parallel.ts&#45;&gt;helpers/objects.ts -->
<g id="edge29" class="edge">
<title>features/parallel.ts&#45;&gt;helpers/objects.ts</title>
<path fill="none" stroke="#000000" stroke-width="2" stroke-opacity="0.200000" d="M630.2337,-545.7453C641.7435,-553.4301 656.9111,-565.7539 664.1472,-581 676.6448,-607.3316 658.7473,-820.395 677.1472,-843 682.3059,-849.3376 689.9323,-853.0171 697.8364,-855.1027"/>
<polygon fill="#000000" fill-opacity="0.200000" stroke="#000000" stroke-width="2" stroke-opacity="0.200000" points="697.5914,-857.1979 703.8986,-856.4044 698.4732,-853.0915 697.5914,-857.1979"/>
</g>
<!-- features/pattern.ts -->
<g id="node34" class="node">
<title>features/pattern.ts</title>
<g id="a_node34"><a xlink:href="features/pattern.ts" xlink:title="pattern.ts">
<path fill="#ccffcc" stroke="#000000" d="M533.1834,-661.5C533.1834,-661.5 490.5168,-661.5 490.5168,-661.5 487.6834,-661.5 484.8501,-658.6667 484.8501,-655.8333 484.8501,-655.8333 484.8501,-650.1667 484.8501,-650.1667 484.8501,-647.3333 487.6834,-644.5 490.5168,-644.5 490.5168,-644.5 533.1834,-644.5 533.1834,-644.5 536.0168,-644.5 538.8501,-647.3333 538.8501,-650.1667 538.8501,-650.1667 538.8501,-655.8333 538.8501,-655.8333 538.8501,-658.6667 536.0168,-661.5 533.1834,-661.5"/>
<text text-anchor="middle" x="511.8501" y="-650.3" font-family="Helvetica,sans-Serif" font-size="9.00" fill="#000000">pattern.ts</text>
</a>
</g>
</g>
<!-- features/rotate.ts -->
<g id="node35" class="node">
<title>features/rotate.ts</title>
<g id="a_node35"><a xlink:href="features/rotate.ts" xlink:title="rotate.ts">
<path fill="#ccffcc" stroke="#000000" d="M533.1834,-632.5C533.1834,-632.5 490.5168,-632.5 490.5168,-632.5 487.6834,-632.5 484.8501,-629.6667 484.8501,-626.8333 484.8501,-626.8333 484.8501,-621.1667 484.8501,-621.1667 484.8501,-618.3333 487.6834,-615.5 490.5168,-615.5 490.5168,-615.5 533.1834,-615.5 533.1834,-615.5 536.0168,-615.5 538.8501,-618.3333 538.8501,-621.1667 538.8501,-621.1667 538.8501,-626.8333 538.8501,-626.8333 538.8501,-629.6667 536.0168,-632.5 533.1834,-632.5"/>
<text text-anchor="middle" x="511.8501" y="-621.3" font-family="Helvetica,sans-Serif" font-size="9.00" fill="#000000">rotate.ts</text>
</a>
</g>
</g>
<!-- features/sequential.test.ts -->
<g id="node36" class="node">
<title>features/sequential.test.ts</title>
<g id="a_node36"><a xlink:href="features/sequential.test.ts" xlink:title="sequential.test.ts">
<path fill="#ddfeff" stroke="#000000" d="M547.7242,-603.5C547.7242,-603.5 475.976,-603.5 475.976,-603.5 473.1426,-603.5 470.3093,-600.6667 470.3093,-597.8333 470.3093,-597.8333 470.3093,-592.1667 470.3093,-592.1667 470.3093,-589.3333 473.1426,-586.5 475.976,-586.5 475.976,-586.5 547.7242,-586.5 547.7242,-586.5 550.5576,-586.5 553.3909,-589.3333 553.3909,-592.1667 553.3909,-592.1667 553.3909,-597.8333 553.3909,-597.8333 553.3909,-600.6667 550.5576,-603.5 547.7242,-603.5"/>
<text text-anchor="middle" x="511.8501" y="-592.3" font-family="Helvetica,sans-Serif" font-size="9.00" fill="#000000">sequential.test.ts</text>
</a>
</g>
</g>
<!-- features/sequential.test.ts&#45;&gt;features/sequential.ts -->
<g id="edge30" class="edge">
<title>features/sequential.test.ts&#45;&gt;features/sequential.ts</title>
<path fill="none" stroke="#000000" stroke-width="2" stroke-opacity="0.200000" d="M553.6627,-595C561.1164,-595 568.8561,-595 576.2321,-595"/>
<polygon fill="#000000" fill-opacity="0.200000" stroke="#000000" stroke-width="2" stroke-opacity="0.200000" points="576.328,-597.1001 582.328,-595 576.328,-592.9001 576.328,-597.1001"/>
</g>
<!-- features/sequential.ts&#45;&gt;helpers/objects.ts -->
<g id="edge31" class="edge">
<title>features/sequential.ts&#45;&gt;helpers/objects.ts</title>
<path fill="none" stroke="#000000" stroke-width="2" stroke-opacity="0.200000" d="M619.2963,-603.6989C628.6798,-624.9546 652.5431,-681.4214 664.1472,-731 669.8574,-755.3967 660.6975,-824.1 677.1472,-843 682.4615,-849.1058 690.0637,-852.7159 697.8905,-854.8095"/>
<polygon fill="#000000" fill-opacity="0.200000" stroke="#000000" stroke-width="2" stroke-opacity="0.200000" points="697.5739,-856.89 703.8853,-856.131 698.4781,-852.7885 697.5739,-856.89"/>
</g>
<!-- features/times.ts -->
<g id="node38" class="node">
<title>features/times.ts</title>
<g id="a_node38"><a xlink:href="features/times.ts" xlink:title="times.ts">
<path fill="#ccffcc" stroke="#000000" d="M533.1834,-574.5C533.1834,-574.5 490.5168,-574.5 490.5168,-574.5 487.6834,-574.5 484.8501,-571.6667 484.8501,-568.8333 484.8501,-568.8333 484.8501,-563.1667 484.8501,-563.1667 484.8501,-560.3333 487.6834,-557.5 490.5168,-557.5 490.5168,-557.5 533.1834,-557.5 533.1834,-557.5 536.0168,-557.5 538.8501,-560.3333 538.8501,-563.1667 538.8501,-563.1667 538.8501,-568.8333 538.8501,-568.8333 538.8501,-571.6667 536.0168,-574.5 533.1834,-574.5"/>
<text text-anchor="middle" x="511.8501" y="-563.3" font-family="Helvetica,sans-Serif" font-size="9.00" fill="#000000">times.ts</text>
</a>
</g>
</g>
<!-- features/transpose.ts -->
<g id="node39" class="node">
<title>features/transpose.ts</title>
<g id="a_node39"><a xlink:href="features/transpose.ts" xlink:title="transpose.ts">
<path fill="#ddfeff" stroke="#000000" d="M538.7088,-748.5C538.7088,-748.5 484.9914,-748.5 484.9914,-748.5 482.158,-748.5 479.3247,-745.6667 479.3247,-742.8333 479.3247,-742.8333 479.3247,-737.1667 479.3247,-737.1667 479.3247,-734.3333 482.158,-731.5 484.9914,-731.5 484.9914,-731.5 538.7088,-731.5 538.7088,-731.5 541.5422,-731.5 544.3755,-734.3333 544.3755,-737.1667 544.3755,-737.1667 544.3755,-742.8333 544.3755,-742.8333 544.3755,-745.6667 541.5422,-748.5 538.7088,-748.5"/>
<text text-anchor="middle" x="511.8501" y="-737.3" font-family="Helvetica,sans-Serif" font-size="9.00" fill="#000000">transpose.ts</text>
</a>
</g>
</g>
<!-- features/transpose.ts&#45;&gt;RhythmZipper.ts -->
<g id="edge32" class="edge">
<title>features/transpose.ts&#45;&gt;RhythmZipper.ts</title>
<path fill="none" stroke="#000000" stroke-width="2" stroke-opacity="0.200000" d="M544.4721,-747.3632C547.9831,-749.3351 551.1645,-751.8339 553.6199,-755 572.6322,-779.5153 546.8187,-870.1173 566.6199,-894 567.4631,-895.0171 568.375,-895.963 569.3445,-896.8427"/>
<polygon fill="#000000" fill-opacity="0.200000" stroke="#000000" stroke-width="2" stroke-opacity="0.200000" points="568.5413,-898.8577 574.622,-900.7112 571.0243,-895.4702 568.5413,-898.8577"/>
</g>
<!-- functional.ts -->
<g id="node40" class="node">
<title>functional.ts</title>
<g id="a_node40"><a xlink:href="functional.ts" xlink:title="functional.ts">
<path fill="#ccffcc" stroke="#000000" d="M88.7057,-471.5C88.7057,-471.5 35.9833,-471.5 35.9833,-471.5 33.15,-471.5 30.3166,-468.6667 30.3166,-465.8333 30.3166,-465.8333 30.3166,-460.1667 30.3166,-460.1667 30.3166,-457.3333 33.15,-454.5 35.9833,-454.5 35.9833,-454.5 88.7057,-454.5 88.7057,-454.5 91.539,-454.5 94.3723,-457.3333 94.3723,-460.1667 94.3723,-460.1667 94.3723,-465.8333 94.3723,-465.8333 94.3723,-468.6667 91.539,-471.5 88.7057,-471.5"/>
<text text-anchor="middle" x="62.3445" y="-460.3" font-family="Helvetica,sans-Serif" font-size="9.00" fill="#000000">functional.ts</text>
</a>
</g>
</g>
<!-- helpers/arrays.test.ts -->
<g id="node41" class="node">
<title>helpers/arrays.test.ts</title>
<g id="a_node41"><a xlink:href="helpers/arrays.test.ts" xlink:title="arrays.test.ts">
<path fill="#ddfeff" stroke="#000000" d="M643.2313,-836.5C643.2313,-836.5 587.5358,-836.5 587.5358,-836.5 584.7024,-836.5 581.8691,-833.6667 581.8691,-830.8333 581.8691,-830.8333 581.8691,-825.1667 581.8691,-825.1667 581.8691,-822.3333 584.7024,-819.5 587.5358,-819.5 587.5358,-819.5 643.2313,-819.5 643.2313,-819.5 646.0647,-819.5 648.898,-822.3333 648.898,-825.1667 648.898,-825.1667 648.898,-830.8333 648.898,-830.8333 648.898,-833.6667 646.0647,-836.5 643.2313,-836.5"/>
<text text-anchor="middle" x="615.3835" y="-825.3" font-family="Helvetica,sans-Serif" font-size="9.00" fill="#000000">arrays.test.ts</text>
</a>
</g>
</g>
<!-- helpers/arrays.test.ts&#45;&gt;helpers/arrays.ts -->
<g id="edge33" class="edge">
<title>helpers/arrays.test.ts&#45;&gt;helpers/arrays.ts</title>
<path fill="none" stroke="#000000" stroke-width="2" stroke-opacity="0.200000" d="M649.1597,-828C664.4507,-828 682.4728,-828 697.7147,-828"/>
<polygon fill="#000000" fill-opacity="0.200000" stroke="#000000" stroke-width="2" stroke-opacity="0.200000" points="698.0607,-830.1001 704.0606,-828 698.0606,-825.9001 698.0607,-830.1001"/>
</g>
<!-- helpers/arrays.test.ts&#45;&gt;helpers/objects.ts -->
<g id="edge34" class="edge">
<title>helpers/arrays.test.ts&#45;&gt;helpers/objects.ts</title>
<path fill="none" stroke="#000000" stroke-width="2" stroke-opacity="0.200000" d="M649.1597,-836.466C664.5872,-840.3328 682.7948,-844.8966 698.1223,-848.7384"/>
<polygon fill="#000000" fill-opacity="0.200000" stroke="#000000" stroke-width="2" stroke-opacity="0.200000" points="697.7301,-850.805 704.0606,-850.2268 698.7513,-846.731 697.7301,-850.805"/>
</g>
<!-- helpers/objects.test.ts -->
<g id="node42" class="node">
<title>helpers/objects.test.ts</title>
<g id="a_node42"><a xlink:href="helpers/objects.test.ts" xlink:title="objects.test.ts">
<path fill="#ddfeff" stroke="#000000" d="M645.2408,-865.5C645.2408,-865.5 585.5263,-865.5 585.5263,-865.5 582.6929,-865.5 579.8596,-862.6667 579.8596,-859.8333 579.8596,-859.8333 579.8596,-854.1667 579.8596,-854.1667 579.8596,-851.3333 582.6929,-848.5 585.5263,-848.5 585.5263,-848.5 645.2408,-848.5 645.2408,-848.5 648.0741,-848.5 650.9075,-851.3333 650.9075,-854.1667 650.9075,-854.1667 650.9075,-859.8333 650.9075,-859.8333 650.9075,-862.6667 648.0741,-865.5 645.2408,-865.5"/>
<text text-anchor="middle" x="615.3835" y="-854.3" font-family="Helvetica,sans-Serif" font-size="9.00" fill="#000000">objects.test.ts</text>
</a>
</g>
</g>
<!-- helpers/objects.test.ts&#45;&gt;helpers/objects.ts -->
<g id="edge35" class="edge">
<title>helpers/objects.test.ts&#45;&gt;helpers/objects.ts</title>
<path fill="none" stroke="#000000" stroke-width="2" stroke-opacity="0.200000" d="M651.0413,-857C665.9143,-857 683.0939,-857 697.7151,-857"/>
<polygon fill="#000000" fill-opacity="0.200000" stroke="#000000" stroke-width="2" stroke-opacity="0.200000" points="697.8106,-859.1001 703.8105,-857 697.8105,-854.9001 697.8106,-859.1001"/>
</g>
<!-- hierarchy.ts -->
<g id="node43" class="node">
<title>hierarchy.ts</title>
<g id="a_node43"><a xlink:href="hierarchy.ts" xlink:title="hierarchy.ts">
<path fill="#ddfeff" stroke="#000000" d="M423.0059,-864.5C423.0059,-864.5 372.6338,-864.5 372.6338,-864.5 369.8004,-864.5 366.9671,-861.6667 366.9671,-858.8333 366.9671,-858.8333 366.9671,-853.1667 366.9671,-853.1667 366.9671,-850.3333 369.8004,-847.5 372.6338,-847.5 372.6338,-847.5 423.0059,-847.5 423.0059,-847.5 425.8392,-847.5 428.6725,-850.3333 428.6725,-853.1667 428.6725,-853.1667 428.6725,-858.8333 428.6725,-858.8333 428.6725,-861.6667 425.8392,-864.5 423.0059,-864.5"/>
<text text-anchor="middle" x="397.8198" y="-853.3" font-family="Helvetica,sans-Serif" font-size="9.00" fill="#000000">hierarchy.ts</text>
</a>
</g>
</g>
<!-- instruments/sampler.ts -->
<g id="node44" class="node">
<title>instruments/sampler.ts</title>
<g id="a_node44"><a xlink:href="instruments/sampler.ts" xlink:title="sampler.ts">
<path fill="#ccffcc" stroke="#000000" d="M420.6717,-309.5C420.6717,-309.5 374.9679,-309.5 374.9679,-309.5 372.1346,-309.5 369.3013,-306.6667 369.3013,-303.8333 369.3013,-303.8333 369.3013,-298.1667 369.3013,-298.1667 369.3013,-295.3333 372.1346,-292.5 374.9679,-292.5 374.9679,-292.5 420.6717,-292.5 420.6717,-292.5 423.505,-292.5 426.3384,-295.3333 426.3384,-298.1667 426.3384,-298.1667 426.3384,-303.8333 426.3384,-303.8333 426.3384,-306.6667 423.505,-309.5 420.6717,-309.5"/>
<text text-anchor="middle" x="397.8198" y="-298.3" font-family="Helvetica,sans-Serif" font-size="9.00" fill="#000000">sampler.ts</text>
</a>
</g>
</g>
<!-- r2d3.ts -->
<g id="node45" class="node">
<title>r2d3.ts</title>
<g id="a_node45"><a xlink:href="r2d3.ts" xlink:title="r2d3.ts">
<path fill="#ddfeff" stroke="#000000" d="M752.4166,-1087.5C752.4166,-1087.5 709.7499,-1087.5 709.7499,-1087.5 706.9166,-1087.5 704.0833,-1084.6667 704.0833,-1081.8333 704.0833,-1081.8333 704.0833,-1076.1667 704.0833,-1076.1667 704.0833,-1073.3333 706.9166,-1070.5 709.7499,-1070.5 709.7499,-1070.5 752.4166,-1070.5 752.4166,-1070.5 755.2499,-1070.5 758.0833,-1073.3333 758.0833,-1076.1667 758.0833,-1076.1667 758.0833,-1081.8333 758.0833,-1081.8333 758.0833,-1084.6667 755.2499,-1087.5 752.4166,-1087.5"/>
<text text-anchor="middle" x="731.0833" y="-1076.3" font-family="Helvetica,sans-Serif" font-size="9.00" fill="#000000">r2d3.ts</text>
</a>
</g>
</g>
<!-- r2d3.ts&#45;&gt;util.ts -->
<g id="edge38" class="edge">
<title>r2d3.ts&#45;&gt;util.ts</title>
<path fill="none" stroke="#000000" stroke-width="2" stroke-opacity="0.200000" d="M758.2432,-1075.9114C767.3694,-1073.8874 777.2059,-1070.5388 785.0193,-1065 792.0276,-1060.0319 820.4973,-1015.0445 834.9486,-991.7886"/>
<polygon fill="#000000" fill-opacity="0.200000" stroke="#000000" stroke-width="2" stroke-opacity="0.200000" points="836.7598,-992.8525 838.1356,-986.6463 833.1898,-990.64 836.7598,-992.8525"/>
</g>
<!-- r2d3.ts&#45;&gt;editTree.ts -->
<g id="edge37" class="edge">
<title>r2d3.ts&#45;&gt;editTree.ts</title>
<path fill="none" stroke="#000000" stroke-width="2" stroke-opacity="0.200000" d="M758.2846,-1075.3689C773.1933,-1073.3788 791.8513,-1070.8881 807.9007,-1068.7457"/>
<polygon fill="#000000" fill-opacity="0.200000" stroke="#000000" stroke-width="2" stroke-opacity="0.200000" points="808.4699,-1070.7884 814.1393,-1067.9129 807.9141,-1066.6254 808.4699,-1070.7884"/>
</g>
<!-- reduceHierarchy.test.ts -->
<g id="node46" class="node">
<title>reduceHierarchy.test.ts</title>
<g id="a_node46"><a xlink:href="reduceHierarchy.test.ts" xlink:title="reduceHierarchy.test.ts">
<path fill="#ddfeff" stroke="#000000" d="M779.2887,-1174.5C779.2887,-1174.5 682.8778,-1174.5 682.8778,-1174.5 680.0444,-1174.5 677.2111,-1171.6667 677.2111,-1168.8333 677.2111,-1168.8333 677.2111,-1163.1667 677.2111,-1163.1667 677.2111,-1160.3333 680.0444,-1157.5 682.8778,-1157.5 682.8778,-1157.5 779.2887,-1157.5 779.2887,-1157.5 782.1221,-1157.5 784.9554,-1160.3333 784.9554,-1163.1667 784.9554,-1163.1667 784.9554,-1168.8333 784.9554,-1168.8333 784.9554,-1171.6667 782.1221,-1174.5 779.2887,-1174.5"/>
<text text-anchor="middle" x="731.0833" y="-1163.3" font-family="Helvetica,sans-Serif" font-size="9.00" fill="#000000">reduceHierarchy.test.ts</text>
</a>
</g>
</g>
<!-- reduceHierarchy.ts -->
<g id="node47" class="node">
<title>reduceHierarchy.ts</title>
<g id="a_node47"><a xlink:href="reduceHierarchy.ts" xlink:title="reduceHierarchy.ts">
<path fill="#ddfeff" stroke="#000000" d="M883.1506,-1159.5C883.1506,-1159.5 803.7532,-1159.5 803.7532,-1159.5 800.9199,-1159.5 798.0866,-1156.6667 798.0866,-1153.8333 798.0866,-1153.8333 798.0866,-1148.1667 798.0866,-1148.1667 798.0866,-1145.3333 800.9199,-1142.5 803.7532,-1142.5 803.7532,-1142.5 883.1506,-1142.5 883.1506,-1142.5 885.9839,-1142.5 888.8172,-1145.3333 888.8172,-1148.1667 888.8172,-1148.1667 888.8172,-1153.8333 888.8172,-1153.8333 888.8172,-1156.6667 885.9839,-1159.5 883.1506,-1159.5"/>
<text text-anchor="middle" x="843.4519" y="-1148.3" font-family="Helvetica,sans-Serif" font-size="9.00" fill="#000000">reduceHierarchy.ts</text>
</a>
</g>
</g>
<!-- reduceHierarchy.test.ts&#45;&gt;reduceHierarchy.ts -->
<g id="edge39" class="edge">
<title>reduceHierarchy.test.ts&#45;&gt;reduceHierarchy.ts</title>
<path fill="none" stroke="#000000" stroke-width="2" stroke-opacity="0.200000" d="M784.9637,-1158.8075C787.2379,-1158.504 789.5171,-1158.1997 791.7863,-1157.8968"/>
<polygon fill="#000000" fill-opacity="0.200000" stroke="#000000" stroke-width="2" stroke-opacity="0.200000" points="792.0906,-1159.9749 797.7599,-1157.0994 791.5348,-1155.8118 792.0906,-1159.9749"/>
</g>
<!-- reduceRhythm.ts -->
<g id="node48" class="node">
<title>reduceRhythm.ts</title>
<g id="a_node48"><a xlink:href="reduceRhythm.ts" xlink:title="reduceRhythm.ts">
<path fill="#ddfeff" stroke="#000000" d="M767.4439,-1145.5C767.4439,-1145.5 694.7226,-1145.5 694.7226,-1145.5 691.8892,-1145.5 689.0559,-1142.6667 689.0559,-1139.8333 689.0559,-1139.8333 689.0559,-1134.1667 689.0559,-1134.1667 689.0559,-1131.3333 691.8892,-1128.5 694.7226,-1128.5 694.7226,-1128.5 767.4439,-1128.5 767.4439,-1128.5 770.2773,-1128.5 773.1106,-1131.3333 773.1106,-1134.1667 773.1106,-1134.1667 773.1106,-1139.8333 773.1106,-1139.8333 773.1106,-1142.6667 770.2773,-1145.5 767.4439,-1145.5"/>
<text text-anchor="middle" x="731.0833" y="-1134.3" font-family="Helvetica,sans-Serif" font-size="9.00" fill="#000000">reduceRhythm.ts</text>
</a>
</g>
</g>
<!-- reduceRhythm.ts&#45;&gt;util.ts -->
<g id="edge41" class="edge">
<title>reduceRhythm.ts&#45;&gt;util.ts</title>
<path fill="none" stroke="#000000" stroke-width="2" stroke-opacity="0.200000" d="M773.2694,-1131.2909C777.6752,-1129.2484 781.7344,-1126.5507 785.0193,-1123 807.3989,-1098.8096 786.1155,-1080.7298 798.0193,-1050 806.5032,-1028.0986 821.9601,-1005.645 832.4643,-991.7634"/>
<polygon fill="#000000" fill-opacity="0.200000" stroke="#000000" stroke-width="2" stroke-opacity="0.200000" points="834.3595,-992.7445 836.3578,-986.7098 831.0323,-990.1812 834.3595,-992.7445"/>
</g>
<!-- reduceRhythm.ts&#45;&gt;reduceHierarchy.ts -->
<g id="edge40" class="edge">
<title>reduceRhythm.ts&#45;&gt;reduceHierarchy.ts</title>
<path fill="none" stroke="#000000" stroke-width="2" stroke-opacity="0.200000" d="M773.2449,-1142.2529C779.3168,-1143.0094 785.622,-1143.795 791.8517,-1144.5711"/>
<polygon fill="#000000" fill-opacity="0.200000" stroke="#000000" stroke-width="2" stroke-opacity="0.200000" points="791.831,-1146.6847 798.0446,-1145.3427 792.3503,-1142.5169 791.831,-1146.6847"/>
</g>
<!-- reduceTree.test.ts -->
<g id="node49" class="node">
<title>reduceTree.test.ts</title>
<g id="a_node49"><a xlink:href="reduceTree.test.ts" xlink:title="reduceTree.test.ts">
<path fill="#ddfeff" stroke="#000000" d="M653.9193,-1028.5C653.9193,-1028.5 576.8478,-1028.5 576.8478,-1028.5 574.0145,-1028.5 571.1812,-1025.6667 571.1812,-1022.8333 571.1812,-1022.8333 571.1812,-1017.1667 571.1812,-1017.1667 571.1812,-1014.3333 574.0145,-1011.5 576.8478,-1011.5 576.8478,-1011.5 653.9193,-1011.5 653.9193,-1011.5 656.7526,-1011.5 659.5859,-1014.3333 659.5859,-1017.1667 659.5859,-1017.1667 659.5859,-1022.8333 659.5859,-1022.8333 659.5859,-1025.6667 656.7526,-1028.5 653.9193,-1028.5"/>
<text text-anchor="middle" x="615.3835" y="-1017.3" font-family="Helvetica,sans-Serif" font-size="9.00" fill="#000000">reduceTree.test.ts</text>
</a>
</g>
</g>
<!-- reduceTree.ts -->
<g id="node50" class="node">
<title>reduceTree.ts</title>
<g id="a_node50"><a xlink:href="reduceTree.ts" xlink:title="reduceTree.ts">
<path fill="#ddfeff" stroke="#000000" d="M761.1122,-1029.5C761.1122,-1029.5 701.0543,-1029.5 701.0543,-1029.5 698.221,-1029.5 695.3877,-1026.6667 695.3877,-1023.8333 695.3877,-1023.8333 695.3877,-1018.1667 695.3877,-1018.1667 695.3877,-1015.3333 698.221,-1012.5 701.0543,-1012.5 701.0543,-1012.5 761.1122,-1012.5 761.1122,-1012.5 763.9455,-1012.5 766.7788,-1015.3333 766.7788,-1018.1667 766.7788,-1018.1667 766.7788,-1023.8333 766.7788,-1023.8333 766.7788,-1026.6667 763.9455,-1029.5 761.1122,-1029.5"/>
<text text-anchor="middle" x="731.0833" y="-1018.3" font-family="Helvetica,sans-Serif" font-size="9.00" fill="#000000">reduceTree.ts</text>
</a>
</g>
</g>
<!-- reduceTree.test.ts&#45;&gt;reduceTree.ts -->
<g id="edge42" class="edge">
<title>reduceTree.test.ts&#45;&gt;reduceTree.ts</title>
<path fill="none" stroke="#000000" stroke-width="2" stroke-opacity="0.200000" d="M659.7852,-1020.3838C669.4039,-1020.4669 679.5477,-1020.5546 689.0711,-1020.6369"/>
<polygon fill="#000000" fill-opacity="0.200000" stroke="#000000" stroke-width="2" stroke-opacity="0.200000" points="689.21,-1022.7381 695.228,-1020.6901 689.2464,-1018.5382 689.21,-1022.7381"/>
</g>
<!-- reduceTree.ts&#45;&gt;util.ts -->
<g id="edge43" class="edge">
<title>reduceTree.ts&#45;&gt;util.ts</title>
<path fill="none" stroke="#000000" stroke-width="2" stroke-opacity="0.200000" d="M766.8036,-1012.8419C772.9477,-1011.1234 779.2189,-1009.1656 785.0193,-1007 798.0296,-1002.1426 811.983,-995.2847 822.9909,-989.4574"/>
<polygon fill="#000000" fill-opacity="0.200000" stroke="#000000" stroke-width="2" stroke-opacity="0.200000" points="824.1666,-991.2097 828.4582,-986.52 822.1788,-987.5098 824.1666,-991.2097"/>
</g>
<!-- reducers.ts -->
<g id="node51" class="node">
<title>reducers.ts</title>
<g id="a_node51"><a xlink:href="reducers.ts" xlink:title="reducers.ts">
<path fill="#ddfeff" stroke="#000000" d="M187.7996,-89.5C187.7996,-89.5 139.0959,-89.5 139.0959,-89.5 136.2626,-89.5 133.4292,-86.6667 133.4292,-83.8333 133.4292,-83.8333 133.4292,-78.1667 133.4292,-78.1667 133.4292,-75.3333 136.2626,-72.5 139.0959,-72.5 139.0959,-72.5 187.7996,-72.5 187.7996,-72.5 190.6329,-72.5 193.4663,-75.3333 193.4663,-78.1667 193.4663,-78.1667 193.4663,-83.8333 193.4663,-83.8333 193.4663,-86.6667 190.6329,-89.5 187.7996,-89.5"/>
<text text-anchor="middle" x="163.4478" y="-78.3" font-family="Helvetica,sans-Serif" font-size="9.00" fill="#000000">reducers.ts</text>
</a>
</g>
</g>
<!-- reducers.ts&#45;&gt;../../drafts/voicing/Harmony.ts -->
<g id="edge44" class="edge">
<title>reducers.ts&#45;&gt;../../drafts/voicing/Harmony.ts</title>
<path fill="none" stroke="#000000" stroke-width="2" stroke-opacity="0.200000" d="M193.4764,-88.0234C208.3382,-91.4995 226.41,-95.7264 242.0963,-99.3953"/>
<polygon fill="#000000" fill-opacity="0.200000" stroke="#000000" stroke-width="2" stroke-opacity="0.200000" points="241.8833,-101.502 248.2039,-100.8238 242.8399,-97.4124 241.8833,-101.502"/>
</g>
<!-- rhythmEvents.test.ts -->
<g id="node52" class="node">
<title>rhythmEvents.test.ts</title>
<g id="a_node52"><a xlink:href="rhythmEvents.test.ts" xlink:title="rhythmEvents.test.ts">
<path fill="#ddfeff" stroke="#000000" d="M658.2454,-346.5C658.2454,-346.5 572.5217,-346.5 572.5217,-346.5 569.6884,-346.5 566.8551,-343.6667 566.8551,-340.8333 566.8551,-340.8333 566.8551,-335.1667 566.8551,-335.1667 566.8551,-332.3333 569.6884,-329.5 572.5217,-329.5 572.5217,-329.5 658.2454,-329.5 658.2454,-329.5 661.0787,-329.5 663.912,-332.3333 663.912,-335.1667 663.912,-335.1667 663.912,-340.8333 663.912,-340.8333 663.912,-343.6667 661.0787,-346.5 658.2454,-346.5"/>
<text text-anchor="middle" x="615.3835" y="-335.3" font-family="Helvetica,sans-Serif" font-size="9.00" fill="#000000">rhythmEvents.test.ts</text>
</a>
</g>
</g>
<!-- rhythmEvents.test.ts&#45;&gt;util.ts -->
<g id="edge46" class="edge">
<title>rhythmEvents.test.ts&#45;&gt;util.ts</title>
<path fill="none" stroke="#000000" stroke-width="2" stroke-opacity="0.200000" d="M664.3162,-340.5241C708.5383,-343.9031 769.0724,-351.6349 785.0193,-369 826.5053,-414.1754 840.6977,-873.6166 843.0754,-962.9829"/>
<polygon fill="#000000" fill-opacity="0.200000" stroke="#000000" stroke-width="2" stroke-opacity="0.200000" points="840.9818,-963.2568 843.2375,-969.2 845.1803,-963.1473 840.9818,-963.2568"/>
</g>
<!-- rhythmEvents.ts -->
<g id="node53" class="node">
<title>rhythmEvents.ts</title>
<g id="a_node53"><a xlink:href="rhythmEvents.ts" xlink:title="rhythmEvents.ts">
<path fill="#ddfeff" stroke="#000000" d="M765.4385,-333.5C765.4385,-333.5 696.728,-333.5 696.728,-333.5 693.8947,-333.5 691.0613,-330.6667 691.0613,-327.8333 691.0613,-327.8333 691.0613,-322.1667 691.0613,-322.1667 691.0613,-319.3333 693.8947,-316.5 696.728,-316.5 696.728,-316.5 765.4385,-316.5 765.4385,-316.5 768.2718,-316.5 771.1052,-319.3333 771.1052,-322.1667 771.1052,-322.1667 771.1052,-327.8333 771.1052,-327.8333 771.1052,-330.6667 768.2718,-333.5 765.4385,-333.5"/>
<text text-anchor="middle" x="731.0833" y="-322.3" font-family="Helvetica,sans-Serif" font-size="9.00" fill="#000000">rhythmEvents.ts</text>
</a>
</g>
</g>
<!-- rhythmEvents.test.ts&#45;&gt;rhythmEvents.ts -->
<g id="edge45" class="edge">
<title>rhythmEvents.test.ts&#45;&gt;rhythmEvents.ts</title>
<path fill="none" stroke="#000000" stroke-width="2" stroke-opacity="0.200000" d="M664.1153,-332.5245C670.9241,-331.7595 677.9057,-330.975 684.6701,-330.215"/>
<polygon fill="#000000" fill-opacity="0.200000" stroke="#000000" stroke-width="2" stroke-opacity="0.200000" points="685.082,-332.282 690.81,-329.5251 684.613,-328.1083 685.082,-332.282"/>
</g>
<!-- rhythmEvents.ts&#45;&gt;util.ts -->
<g id="edge47" class="edge">
<title>rhythmEvents.ts&#45;&gt;util.ts</title>
<path fill="none" stroke="#000000" stroke-width="2" stroke-opacity="0.200000" d="M771.3181,-332.4637C776.5864,-335.0191 781.4015,-338.4357 785.0193,-343 824.8536,-393.2564 840.4478,-872.7183 843.0492,-963.2822"/>
<polygon fill="#000000" fill-opacity="0.200000" stroke="#000000" stroke-width="2" stroke-opacity="0.200000" points="840.9516,-963.3996 843.2202,-969.3378 845.1499,-963.2809 840.9516,-963.3996"/>
</g>
<!-- visitTree.ts -->
<g id="node54" class="node">
<title>visitTree.ts</title>
<g id="a_node54"><a xlink:href="visitTree.ts" xlink:title="visitTree.ts">
<path fill="#ddfeff" stroke="#000000" d="M867.4618,-319.5C867.4618,-319.5 819.442,-319.5 819.442,-319.5 816.6087,-319.5 813.7754,-316.6667 813.7754,-313.8333 813.7754,-313.8333 813.7754,-308.1667 813.7754,-308.1667 813.7754,-305.3333 816.6087,-302.5 819.442,-302.5 819.442,-302.5 867.4618,-302.5 867.4618,-302.5 870.2951,-302.5 873.1284,-305.3333 873.1284,-308.1667 873.1284,-308.1667 873.1284,-313.8333 873.1284,-313.8333 873.1284,-316.6667 870.2951,-319.5 867.4618,-319.5"/>
<text text-anchor="middle" x="843.4519" y="-308.3" font-family="Helvetica,sans-Serif" font-size="9.00" fill="#000000">visitTree.ts</text>
</a>
</g>
</g>
<!-- rhythmEvents.ts&#45;&gt;visitTree.ts -->
<g id="edge48" class="edge">
<title>rhythmEvents.ts&#45;&gt;visitTree.ts</title>
<path fill="none" stroke="#000000" stroke-width="2" stroke-opacity="0.200000" d="M771.3335,-319.9852C783.1295,-318.5156 795.9469,-316.9186 807.4597,-315.4843"/>
<polygon fill="#000000" fill-opacity="0.200000" stroke="#000000" stroke-width="2" stroke-opacity="0.200000" points="808.0123,-317.5317 813.7067,-314.706 807.493,-313.364 808.0123,-317.5317"/>
</g>
<!-- rhythmical.test.ts -->
<g id="node55" class="node">
<title>rhythmical.test.ts</title>
<g id="a_node55"><a xlink:href="rhythmical.test.ts" xlink:title="rhythmical.test.ts">
<path fill="#ddfeff" stroke="#000000" d="M199.3001,-504.5C199.3001,-504.5 127.5955,-504.5 127.5955,-504.5 124.7621,-504.5 121.9288,-501.6667 121.9288,-498.8333 121.9288,-498.8333 121.9288,-493.1667 121.9288,-493.1667 121.9288,-490.3333 124.7621,-487.5 127.5955,-487.5 127.5955,-487.5 199.3001,-487.5 199.3001,-487.5 202.1334,-487.5 204.9667,-490.3333 204.9667,-493.1667 204.9667,-493.1667 204.9667,-498.8333 204.9667,-498.8333 204.9667,-501.6667 202.1334,-504.5 199.3001,-504.5"/>
<text text-anchor="middle" x="163.4478" y="-493.3" font-family="Helvetica,sans-Serif" font-size="9.00" fill="#000000">rhythmical.test.ts</text>
</a>
</g>
</g>
<!-- rhythmical.test.ts&#45;&gt;deprecated.ts -->
<g id="edge49" class="edge">
<title>rhythmical.test.ts&#45;&gt;deprecated.ts</title>
<path fill="none" stroke="#000000" stroke-width="2" stroke-opacity="0.200000" d="M179.0162,-487.2338C199.4406,-475.7334 235.3477,-455.5151 258.0846,-442.7126"/>
<polygon fill="#000000" fill-opacity="0.200000" stroke="#000000" stroke-width="2" stroke-opacity="0.200000" points="259.3661,-444.4011 263.5639,-439.6273 257.3054,-440.7413 259.3661,-444.4011"/>
</g>
<!-- rhythmical.test.ts&#45;&gt;helpers/objects.ts -->
<g id="edge50" class="edge">
<title>rhythmical.test.ts&#45;&gt;helpers/objects.ts</title>
<path fill="none" stroke="#000000" stroke-width="2" stroke-opacity="0.200000" d="M164.1449,-504.8359C168.4649,-558.6954 192.1849,-841.4956 216.2122,-871 270.3466,-937.4745 312.0912,-936 397.8198,-936 397.8198,-936 397.8198,-936 511.8501,-936 579.7839,-936 602.4476,-951.4279 664.1472,-923 689.1829,-911.4649 710.3208,-886.42 721.8057,-870.714"/>
<polygon fill="#000000" fill-opacity="0.200000" stroke="#000000" stroke-width="2" stroke-opacity="0.200000" points="723.5508,-871.8838 725.3222,-865.7787 720.1302,-869.4466 723.5508,-871.8838"/>
</g>
<!-- rhythmical.test.ts&#45;&gt;rhythmical.ts -->
<g id="edge51" class="edge">
<title>rhythmical.test.ts&#45;&gt;rhythmical.ts</title>
<path fill="none" stroke="#000000" stroke-width="2" stroke-opacity="0.200000" d="M205.0787,-496C248.4586,-496 315.9187,-496 358.4416,-496"/>
<polygon fill="#000000" fill-opacity="0.200000" stroke="#000000" stroke-width="2" stroke-opacity="0.200000" points="358.5288,-498.1001 364.5287,-496 358.5287,-493.9001 358.5288,-498.1001"/>
</g>
<!-- runtime.ts -->
<g id="node56" class="node">
<title>runtime.ts</title>
<g id="a_node56"><a xlink:href="runtime.ts" xlink:title="runtime.ts">
<path fill="#ddfeff" stroke="#000000" d="M300.7324,-864.5C300.7324,-864.5 257.039,-864.5 257.039,-864.5 254.2057,-864.5 251.3724,-861.6667 251.3724,-858.8333 251.3724,-858.8333 251.3724,-853.1667 251.3724,-853.1667 251.3724,-850.3333 254.2057,-847.5 257.039,-847.5 257.039,-847.5 300.7324,-847.5 300.7324,-847.5 303.5658,-847.5 306.3991,-850.3333 306.3991,-853.1667 306.3991,-853.1667 306.3991,-858.8333 306.3991,-858.8333 306.3991,-861.6667 303.5658,-864.5 300.7324,-864.5"/>
<text text-anchor="middle" x="278.8857" y="-853.3" font-family="Helvetica,sans-Serif" font-size="9.00" fill="#000000">runtime.ts</text>
</a>
</g>
</g>
<!-- runtime.ts&#45;&gt;RhythmZipper.ts -->
<g id="edge58" class="edge">
<title>runtime.ts&#45;&gt;RhythmZipper.ts</title>
<path fill="none" stroke="#000000" stroke-width="2" stroke-opacity="0.200000" d="M306.5248,-863.2489C317.3929,-865.9326 330.0114,-868.8436 341.5593,-871 420.7926,-885.796 513.9776,-897.1086 568.6672,-903.1365"/>
<polygon fill="#000000" fill-opacity="0.200000" stroke="#000000" stroke-width="2" stroke-opacity="0.200000" points="568.6228,-905.2441 574.8158,-903.8098 569.0801,-901.0691 568.6228,-905.2441"/>
</g>
<!-- runtime.ts&#45;&gt;rhythmical.ts -->
<g id="edge57" class="edge">
<title>runtime.ts&#45;&gt;rhythmical.ts</title>
<path fill="none" stroke="#000000" stroke-width="2" stroke-opacity="0.200000" d="M281.1159,-847.2702C288.705,-817.8146 314.5599,-719.4902 341.5593,-640 357.9419,-591.7674 380.9547,-535.9071 391.7633,-510.2372"/>
<polygon fill="#000000" fill-opacity="0.200000" stroke="#000000" stroke-width="2" stroke-opacity="0.200000" points="393.7168,-511.0092 394.1178,-504.665 389.848,-509.3744 393.7168,-511.0092"/>
</g>
<!-- runtime.ts&#45;&gt;hierarchy.ts -->
<g id="edge56" class="edge">
<title>runtime.ts&#45;&gt;hierarchy.ts</title>
<path fill="none" stroke="#000000" stroke-width="2" stroke-opacity="0.200000" d="M306.4706,-856C322.483,-856 342.8741,-856 360.3267,-856"/>
<polygon fill="#000000" fill-opacity="0.200000" stroke="#000000" stroke-width="2" stroke-opacity="0.200000" points="360.6102,-858.1001 366.6102,-856 360.6101,-853.9001 360.6102,-858.1001"/>
</g>
<!-- tunes/tetris.ts -->
<g id="node57" class="node">
<title>tunes/tetris.ts</title>
<g id="a_node57"><a xlink:href="tunes/tetris.ts" xlink:title="tetris.ts">
<path fill="#ddfeff" stroke="#000000" d="M419.1532,-813.5C419.1532,-813.5 376.4865,-813.5 376.4865,-813.5 373.6532,-813.5 370.8198,-810.6667 370.8198,-807.8333 370.8198,-807.8333 370.8198,-802.1667 370.8198,-802.1667 370.8198,-799.3333 373.6532,-796.5 376.4865,-796.5 376.4865,-796.5 419.1532,-796.5 419.1532,-796.5 421.9865,-796.5 424.8198,-799.3333 424.8198,-802.1667 424.8198,-802.1667 424.8198,-807.8333 424.8198,-807.8333 424.8198,-810.6667 421.9865,-813.5 419.1532,-813.5"/>
<text text-anchor="middle" x="397.8198" y="-802.3" font-family="Helvetica,sans-Serif" font-size="9.00" fill="#000000">tetris.ts</text>
</a>
</g>
</g>
<!-- runtime.ts&#45;&gt;tunes/tetris.ts -->
<g id="edge59" class="edge">
<title>runtime.ts&#45;&gt;tunes/tetris.ts</title>
<path fill="none" stroke="#000000" stroke-width="2" stroke-opacity="0.200000" d="M298.7926,-847.4637C318.9462,-838.8217 350.1942,-825.4223 372.188,-815.9912"/>
<polygon fill="#000000" fill-opacity="0.200000" stroke="#000000" stroke-width="2" stroke-opacity="0.200000" points="373.1612,-817.8588 377.848,-813.5641 371.5059,-813.9987 373.1612,-817.8588"/>
</g>
<!-- walker.ts -->
<g id="node58" class="node">
<title>walker.ts</title>
<g id="a_node58"><a xlink:href="walker.ts" xlink:title="walker.ts">
<path fill="#ddfeff" stroke="#000000" d="M752.4166,-1000.5C752.4166,-1000.5 709.7499,-1000.5 709.7499,-1000.5 706.9166,-1000.5 704.0833,-997.6667 704.0833,-994.8333 704.0833,-994.8333 704.0833,-989.1667 704.0833,-989.1667 704.0833,-986.3333 706.9166,-983.5 709.7499,-983.5 709.7499,-983.5 752.4166,-983.5 752.4166,-983.5 755.2499,-983.5 758.0833,-986.3333 758.0833,-989.1667 758.0833,-989.1667 758.0833,-994.8333 758.0833,-994.8333 758.0833,-997.6667 755.2499,-1000.5 752.4166,-1000.5"/>
<text text-anchor="middle" x="731.0833" y="-989.3" font-family="Helvetica,sans-Serif" font-size="9.00" fill="#000000">walker.ts</text>
</a>
</g>
</g>
<!-- runtime.ts&#45;&gt;walker.ts -->
<g id="edge60" class="edge">
<title>runtime.ts&#45;&gt;walker.ts</title>
<path fill="none" stroke="#000000" stroke-width="2" stroke-opacity="0.200000" d="M293.8343,-864.6382C335.4081,-888.1548 456.587,-953.2775 566.6199,-979 611.2544,-989.4343 664.3571,-991.9031 697.8962,-992.2879"/>
<polygon fill="#000000" fill-opacity="0.200000" stroke="#000000" stroke-width="2" stroke-opacity="0.200000" points="697.9076,-994.388 703.9246,-992.3369 697.9419,-990.1881 697.9076,-994.388"/>
</g>
<!-- walker.ts&#45;&gt;util.ts -->
<g id="edge62" class="edge">
<title>walker.ts&#45;&gt;util.ts</title>
<path fill="none" stroke="#000000" stroke-width="2" stroke-opacity="0.200000" d="M758.2846,-988.611C773.7667,-986.6821 793.2921,-984.2494 809.7406,-982.2001"/>
<polygon fill="#000000" fill-opacity="0.200000" stroke="#000000" stroke-width="2" stroke-opacity="0.200000" points="810.4173,-984.2321 816.1116,-981.4063 809.898,-980.0643 810.4173,-984.2321"/>
</g>
<!-- tree.ts -->
<g id="node59" class="node">
<title>tree.ts</title>
<g id="a_node59"><a xlink:href="tree.ts" xlink:title="tree.ts">
<path fill="#ccffcc" stroke="#000000" d="M83.6778,-500.5C83.6778,-500.5 41.0111,-500.5 41.0111,-500.5 38.1778,-500.5 35.3445,-497.6667 35.3445,-494.8333 35.3445,-494.8333 35.3445,-489.1667 35.3445,-489.1667 35.3445,-486.3333 38.1778,-483.5 41.0111,-483.5 41.0111,-483.5 83.6778,-483.5 83.6778,-483.5 86.5111,-483.5 89.3445,-486.3333 89.3445,-489.1667 89.3445,-489.1667 89.3445,-494.8333 89.3445,-494.8333 89.3445,-497.6667 86.5111,-500.5 83.6778,-500.5"/>
<text text-anchor="middle" x="62.3445" y="-489.3" font-family="Helvetica,sans-Serif" font-size="9.00" fill="#000000">tree.ts</text>
</a>
</g>
</g>
<!-- tunes/bolero.ts -->
<g id="node60" class="node">
<title>tunes/bolero.ts</title>
<g id="a_node60"><a xlink:href="tunes/bolero.ts" xlink:title="bolero.ts">
<path fill="#ccffcc" stroke="#000000" d="M419.1532,-784.5C419.1532,-784.5 376.4865,-784.5 376.4865,-784.5 373.6532,-784.5 370.8198,-781.6667 370.8198,-778.8333 370.8198,-778.8333 370.8198,-773.1667 370.8198,-773.1667 370.8198,-770.3333 373.6532,-767.5 376.4865,-767.5 376.4865,-767.5 419.1532,-767.5 419.1532,-767.5 421.9865,-767.5 424.8198,-770.3333 424.8198,-773.1667 424.8198,-773.1667 424.8198,-778.8333 424.8198,-778.8333 424.8198,-781.6667 421.9865,-784.5 419.1532,-784.5"/>
<text text-anchor="middle" x="397.8198" y="-773.3" font-family="Helvetica,sans-Serif" font-size="9.00" fill="#000000">bolero.ts</text>
</a>
</g>
</g>
<!-- tunes/marblemachine.ts -->
<g id="node61" class="node">
<title>tunes/marblemachine.ts</title>
<g id="a_node61"><a xlink:href="tunes/marblemachine.ts" xlink:title="marblemachine.ts">
<path fill="#ccffcc" stroke="#000000" d="M435.682,-755.5C435.682,-755.5 359.9577,-755.5 359.9577,-755.5 357.1243,-755.5 354.291,-752.6667 354.291,-749.8333 354.291,-749.8333 354.291,-744.1667 354.291,-744.1667 354.291,-741.3333 357.1243,-738.5 359.9577,-738.5 359.9577,-738.5 435.682,-738.5 435.682,-738.5 438.5153,-738.5 441.3486,-741.3333 441.3486,-744.1667 441.3486,-744.1667 441.3486,-749.8333 441.3486,-749.8333 441.3486,-752.6667 438.5153,-755.5 435.682,-755.5"/>
<text text-anchor="middle" x="397.8198" y="-744.3" font-family="Helvetica,sans-Serif" font-size="9.00" fill="#000000">marblemachine.ts</text>
</a>
</g>
</g>
<!-- tunes/swimming.ts -->
<g id="node62" class="node">
<title>tunes/swimming.ts</title>
<g id="a_node62"><a xlink:href="tunes/swimming.ts" xlink:title="swimming.ts">
<path fill="#ccffcc" stroke="#000000" d="M424.6594,-726.5C424.6594,-726.5 370.9802,-726.5 370.9802,-726.5 368.1469,-726.5 365.3136,-723.6667 365.3136,-720.8333 365.3136,-720.8333 365.3136,-715.1667 365.3136,-715.1667 365.3136,-712.3333 368.1469,-709.5 370.9802,-709.5 370.9802,-709.5 424.6594,-709.5 424.6594,-709.5 427.4927,-709.5 430.3261,-712.3333 430.3261,-715.1667 430.3261,-715.1667 430.3261,-720.8333 430.3261,-720.8333 430.3261,-723.6667 427.4927,-726.5 424.6594,-726.5"/>
<text text-anchor="middle" x="397.8198" y="-715.3" font-family="Helvetica,sans-Serif" font-size="9.00" fill="#000000">swimming.ts</text>
</a>
</g>
</g>
<!-- tunes/swimmingStraight.ts -->
<g id="node63" class="node">
<title>tunes/swimmingStraight.ts</title>
<g id="a_node63"><a xlink:href="tunes/swimmingStraight.ts" xlink:title="swimmingStraight.ts">
<path fill="#ccffcc" stroke="#000000" d="M440.1753,-697.5C440.1753,-697.5 355.4643,-697.5 355.4643,-697.5 352.631,-697.5 349.7976,-694.6667 349.7976,-691.8333 349.7976,-691.8333 349.7976,-686.1667 349.7976,-686.1667 349.7976,-683.3333 352.631,-680.5 355.4643,-680.5 355.4643,-680.5 440.1753,-680.5 440.1753,-680.5 443.0087,-680.5 445.842,-683.3333 445.842,-686.1667 445.842,-686.1667 445.842,-691.8333 445.842,-691.8333 445.842,-694.6667 443.0087,-697.5 440.1753,-697.5"/>
<text text-anchor="middle" x="397.8198" y="-686.3" font-family="Helvetica,sans-Serif" font-size="9.00" fill="#000000">swimmingStraight.ts</text>
</a>
</g>
</g>
<!-- tunes/tetrisQuiet.ts -->
<g id="node64" class="node">
<title>tunes/tetrisQuiet.ts</title>
<g id="a_node64"><a xlink:href="tunes/tetrisQuiet.ts" xlink:title="tetrisQuiet.ts">
<path fill="#ccffcc" stroke="#000000" d="M425.17,-668.5C425.17,-668.5 370.4696,-668.5 370.4696,-668.5 367.6363,-668.5 364.8029,-665.6667 364.8029,-662.8333 364.8029,-662.8333 364.8029,-657.1667 364.8029,-657.1667 364.8029,-654.3333 367.6363,-651.5 370.4696,-651.5 370.4696,-651.5 425.17,-651.5 425.17,-651.5 428.0034,-651.5 430.8367,-654.3333 430.8367,-657.1667 430.8367,-657.1667 430.8367,-662.8333 430.8367,-662.8333 430.8367,-665.6667 428.0034,-668.5 425.17,-668.5"/>
<text text-anchor="middle" x="397.8198" y="-657.3" font-family="Helvetica,sans-Serif" font-size="9.00" fill="#000000">tetrisQuiet.ts</text>
</a>
</g>
</g>
<!-- visitTree.test.ts -->
<g id="node65" class="node">
<title>visitTree.test.ts</title>
<g id="a_node65"><a xlink:href="visitTree.test.ts" xlink:title="visitTree.test.ts">
<path fill="#ddfeff" stroke="#000000" d="M763.5999,-304.5C763.5999,-304.5 698.5666,-304.5 698.5666,-304.5 695.7333,-304.5 692.8999,-301.6667 692.8999,-298.8333 692.8999,-298.8333 692.8999,-293.1667 692.8999,-293.1667 692.8999,-290.3333 695.7333,-287.5 698.5666,-287.5 698.5666,-287.5 763.5999,-287.5 763.5999,-287.5 766.4332,-287.5 769.2666,-290.3333 769.2666,-293.1667 769.2666,-293.1667 769.2666,-298.8333 769.2666,-298.8333 769.2666,-301.6667 766.4332,-304.5 763.5999,-304.5"/>
<text text-anchor="middle" x="731.0833" y="-293.3" font-family="Helvetica,sans-Serif" font-size="9.00" fill="#000000">visitTree.test.ts</text>
</a>
</g>
</g>
<!-- visitTree.test.ts&#45;&gt;visitTree.ts -->
<g id="edge61" class="edge">
<title>visitTree.test.ts&#45;&gt;visitTree.ts</title>
<path fill="none" stroke="#000000" stroke-width="2" stroke-opacity="0.200000" d="M769.4399,-301.1202C781.7841,-302.768 795.4092,-304.5868 807.5686,-306.21"/>
<polygon fill="#000000" fill-opacity="0.200000" stroke="#000000" stroke-width="2" stroke-opacity="0.200000" points="807.5539,-308.3266 813.7791,-307.039 808.1097,-304.1635 807.5539,-308.3266"/>
</g>
</g>
</svg>
