<?xml version="1.0" encoding="UTF-8" standalone="no"?>
<!DOCTYPE svg PUBLIC "-//W3C//DTD SVG 1.1//EN"
 "http://www.w3.org/Graphics/SVG/1.1/DTD/svg11.dtd">
<!-- Generated by graphviz version 2.40.1 (20161225.0304)
 -->
<!-- Title: dependency&#45;cruiser output Pages: 1 -->
<svg width="600pt" height="398pt"
 viewBox="0.00 0.00 600.08 398.00" xmlns="http://www.w3.org/2000/svg" xmlns:xlink="http://www.w3.org/1999/xlink">
<g id="graph0" class="graph" transform="scale(1 1) rotate(0) translate(4 394)">
<title>dependency&#45;cruiser output</title>
<polygon fill="#ffffff" stroke="transparent" points="-4,4 -4,-394 596.0801,-394 596.0801,4 -4,4"/>
<g id="clust1" class="cluster">
<title>cluster_..</title>
<path fill="#ffffff" stroke="#000000" stroke-width="2" d="M245.564,-183.5C245.564,-183.5 572.0801,-183.5 572.0801,-183.5 578.0801,-183.5 584.0801,-189.5 584.0801,-195.5 584.0801,-195.5 584.0801,-351.5 584.0801,-351.5 584.0801,-357.5 578.0801,-363.5 572.0801,-363.5 572.0801,-363.5 245.564,-363.5 245.564,-363.5 239.564,-363.5 233.564,-357.5 233.564,-351.5 233.564,-351.5 233.564,-195.5 233.564,-195.5 233.564,-189.5 239.564,-183.5 245.564,-183.5"/>
<text text-anchor="middle" x="408.822" y="-352.3" font-family="Helvetica,sans-Serif" font-weight="bold" font-size="9.00" fill="#000000">..</text>
</g>
<g id="clust2" class="cluster">
<title>cluster_../features</title>
<path fill="#ffffff" stroke="#000000" stroke-width="2" d="M421.7754,-191.5C421.7754,-191.5 480.3081,-191.5 480.3081,-191.5 486.3081,-191.5 492.3081,-197.5 492.3081,-203.5 492.3081,-203.5 492.3081,-288.5 492.3081,-288.5 492.3081,-294.5 486.3081,-300.5 480.3081,-300.5 480.3081,-300.5 421.7754,-300.5 421.7754,-300.5 415.7754,-300.5 409.7754,-294.5 409.7754,-288.5 409.7754,-288.5 409.7754,-203.5 409.7754,-203.5 409.7754,-197.5 415.7754,-191.5 421.7754,-191.5"/>
<text text-anchor="middle" x="451.0417" y="-289.3" font-family="Helvetica,sans-Serif" font-weight="bold" font-size="9.00" fill="#000000">features</text>
</g>
<g id="clust3" class="cluster">
<title>cluster_../helpers</title>
<path fill="#ffffff" stroke="#000000" stroke-width="2" d="M518.063,-253.5C518.063,-253.5 564.0801,-253.5 564.0801,-253.5 570.0801,-253.5 576.0801,-259.5 576.0801,-265.5 576.0801,-265.5 576.0801,-321.5 576.0801,-321.5 576.0801,-327.5 570.0801,-333.5 564.0801,-333.5 564.0801,-333.5 518.063,-333.5 518.063,-333.5 512.063,-333.5 506.063,-327.5 506.063,-321.5 506.063,-321.5 506.063,-265.5 506.063,-265.5 506.063,-259.5 512.063,-253.5 518.063,-253.5"/>
<text text-anchor="middle" x="541.0715" y="-322.3" font-family="Helvetica,sans-Serif" font-weight="bold" font-size="9.00" fill="#000000">helpers</text>
</g>
<!-- ../deprecated.ts -->
<g id="node1" class="node">
<title>../deprecated.ts</title>
<g id="a_node1"><a xlink:href="../deprecated.ts" xlink:title="deprecated.ts">
<path fill="#ddfeff" stroke="#000000" d="M306.203,-332C306.203,-332 247.461,-332 247.461,-332 244.6277,-332 241.7944,-329.1667 241.7944,-326.3333 241.7944,-326.3333 241.7944,-320.6667 241.7944,-320.6667 241.7944,-317.8333 244.6277,-315 247.461,-315 247.461,-315 306.203,-315 306.203,-315 309.0363,-315 311.8697,-317.8333 311.8697,-320.6667 311.8697,-320.6667 311.8697,-326.3333 311.8697,-326.3333 311.8697,-329.1667 309.0363,-332 306.203,-332"/>
<text text-anchor="middle" x="276.832" y="-320.8" font-family="Helvetica,sans-Serif" font-size="9.00" fill="#000000">deprecated.ts</text>
</a>
</g>
</g>
<!-- ../helpers/arrays.ts -->
<g id="node2" class="node">
<title>../helpers/arrays.ts</title>
<g id="a_node2"><a xlink:href="../helpers/arrays.ts" xlink:title="arrays.ts">
<path fill="#ddfeff" stroke="#000000" d="M562.4049,-308C562.4049,-308 519.7382,-308 519.7382,-308 516.9049,-308 514.0715,-305.1667 514.0715,-302.3333 514.0715,-302.3333 514.0715,-296.6667 514.0715,-296.6667 514.0715,-293.8333 516.9049,-291 519.7382,-291 519.7382,-291 562.4049,-291 562.4049,-291 565.2382,-291 568.0715,-293.8333 568.0715,-296.6667 568.0715,-296.6667 568.0715,-302.3333 568.0715,-302.3333 568.0715,-305.1667 565.2382,-308 562.4049,-308"/>
<text text-anchor="middle" x="541.0715" y="-296.8" font-family="Helvetica,sans-Serif" font-size="9.00" fill="#000000">arrays.ts</text>
</a>
</g>
</g>
<!-- ../deprecated.ts&#45;&gt;../helpers/arrays.ts -->
<g id="edge1" class="edge">
<title>../deprecated.ts&#45;&gt;../helpers/arrays.ts</title>
<path fill="none" stroke="#000000" stroke-width="2" stroke-opacity="0.200000" d="M311.8765,-329.9827C355.1142,-336.6632 430.4882,-343.9863 492.3081,-327.5 503.978,-324.3879 515.7573,-317.7442 524.8147,-311.7093"/>
<polygon fill="#000000" fill-opacity="0.200000" stroke="#000000" stroke-width="2" stroke-opacity="0.200000" points="526.0684,-313.3956 529.8116,-308.2576 523.6813,-309.9399 526.0684,-313.3956"/>
</g>
<!-- ../helpers/objects.ts -->
<g id="node3" class="node">
<title>../helpers/objects.ts</title>
<g id="a_node3"><a xlink:href="../helpers/objects.ts" xlink:title="objects.ts">
<path fill="#ddfeff" stroke="#000000" d="M562.422,-279C562.422,-279 519.7211,-279 519.7211,-279 516.8878,-279 514.0544,-276.1667 514.0544,-273.3333 514.0544,-273.3333 514.0544,-267.6667 514.0544,-267.6667 514.0544,-264.8333 516.8878,-262 519.7211,-262 519.7211,-262 562.422,-262 562.422,-262 565.2553,-262 568.0886,-264.8333 568.0886,-267.6667 568.0886,-267.6667 568.0886,-273.3333 568.0886,-273.3333 568.0886,-276.1667 565.2553,-279 562.422,-279"/>
<text text-anchor="middle" x="541.0715" y="-267.8" font-family="Helvetica,sans-Serif" font-size="9.00" fill="#000000">objects.ts</text>
</a>
</g>
</g>
<!-- ../deprecated.ts&#45;&gt;../helpers/objects.ts -->
<g id="edge2" class="edge">
<title>../deprecated.ts&#45;&gt;../helpers/objects.ts</title>
<path fill="none" stroke="#000000" stroke-width="2" stroke-opacity="0.200000" d="M311.902,-324.075C369.351,-324.694 478.5425,-324.3933 492.3081,-313.5 502.4572,-305.4687 491.5027,-294.9853 500.3081,-285.5 502.6168,-283.013 505.3735,-280.9369 508.3492,-279.204"/>
<polygon fill="#000000" fill-opacity="0.200000" stroke="#000000" stroke-width="2" stroke-opacity="0.200000" points="509.4595,-280.997 513.8926,-276.4409 507.5859,-277.2381 509.4595,-280.997"/>
</g>
<!-- ../rhythmical.ts -->
<g id="node4" class="node">
<title>../rhythmical.ts</title>
<g id="a_node4"><a xlink:href="../rhythmical.ts" xlink:title="rhythmical.ts">
<path fill="#ddfeff" stroke="#000000" d="M395.8659,-275C395.8659,-275 341.1742,-275 341.1742,-275 338.3408,-275 335.5075,-272.1667 335.5075,-269.3333 335.5075,-269.3333 335.5075,-263.6667 335.5075,-263.6667 335.5075,-260.8333 338.3408,-258 341.1742,-258 341.1742,-258 395.8659,-258 395.8659,-258 398.6992,-258 401.5325,-260.8333 401.5325,-263.6667 401.5325,-263.6667 401.5325,-269.3333 401.5325,-269.3333 401.5325,-272.1667 398.6992,-275 395.8659,-275"/>
<text text-anchor="middle" x="368.52" y="-263.8" font-family="Helvetica,sans-Serif" font-size="9.00" fill="#000000">rhythmical.ts</text>
</a>
</g>
</g>
<!-- ../deprecated.ts&#45;&gt;../rhythmical.ts -->
<g id="edge3" class="edge">
<title>../deprecated.ts&#45;&gt;../rhythmical.ts</title>
<path fill="none" stroke="#000000" stroke-width="2" stroke-opacity="0.200000" d="M290.7575,-314.8429C306.4659,-305.0774 332.0999,-289.1414 349.6104,-278.2556"/>
<polygon fill="#000000" fill-opacity="0.200000" stroke="#000000" stroke-width="2" stroke-opacity="0.200000" points="350.7771,-280.0031 354.764,-275.0518 348.5596,-276.4362 350.7771,-280.0031"/>
</g>
<!-- ../rhythmical.ts&#45;&gt;../helpers/objects.ts -->
<g id="edge11" class="edge">
<title>../rhythmical.ts&#45;&gt;../helpers/objects.ts</title>
<path fill="none" stroke="#000000" stroke-width="2" stroke-opacity="0.200000" d="M374.9654,-275.2159C382.2527,-284.2614 395.0395,-297.86 409.7754,-303.5 444.0331,-316.6117 461.5512,-323.4881 492.3081,-303.5 499.6487,-298.7295 493.918,-291.484 500.3081,-285.5 502.7162,-283.2449 505.4918,-281.3226 508.4389,-279.685"/>
<polygon fill="#000000" fill-opacity="0.200000" stroke="#000000" stroke-width="2" stroke-opacity="0.200000" points="509.41,-281.548 513.8867,-277.0347 507.5726,-277.7712 509.41,-281.548"/>
</g>
<!-- ../features/inherit.ts -->
<g id="node5" class="node">
<title>../features/inherit.ts</title>
<g id="a_node5"><a xlink:href="../features/inherit.ts" xlink:title="inherit.ts">
<path fill="#ddfeff" stroke="#000000" d="M472.3751,-217C472.3751,-217 429.7084,-217 429.7084,-217 426.8751,-217 424.0417,-214.1667 424.0417,-211.3333 424.0417,-211.3333 424.0417,-205.6667 424.0417,-205.6667 424.0417,-202.8333 426.8751,-200 429.7084,-200 429.7084,-200 472.3751,-200 472.3751,-200 475.2084,-200 478.0417,-202.8333 478.0417,-205.6667 478.0417,-205.6667 478.0417,-211.3333 478.0417,-211.3333 478.0417,-214.1667 475.2084,-217 472.3751,-217"/>
<text text-anchor="middle" x="451.0417" y="-205.8" font-family="Helvetica,sans-Serif" font-size="9.00" fill="#000000">inherit.ts</text>
</a>
</g>
</g>
<!-- ../rhythmical.ts&#45;&gt;../features/inherit.ts -->
<g id="edge8" class="edge">
<title>../rhythmical.ts&#45;&gt;../features/inherit.ts</title>
<path fill="none" stroke="#000000" stroke-width="2" stroke-opacity="0.200000" d="M374.8962,-257.7686C382.3109,-248.1712 395.3856,-232.8738 409.7754,-223.5 412.49,-221.7317 415.4406,-220.1371 418.474,-218.7072"/>
<polygon fill="#000000" fill-opacity="0.200000" stroke="#000000" stroke-width="2" stroke-opacity="0.200000" points="419.3249,-220.6272 423.9906,-216.3096 417.6508,-216.7753 419.3249,-220.6272"/>
</g>
<!-- ../features/parallel.ts -->
<g id="node7" class="node">
<title>../features/parallel.ts</title>
<g id="a_node7"><a xlink:href="../features/parallel.ts" xlink:title="parallel.ts">
<path fill="#ddfeff" stroke="#000000" d="M472.3953,-275C472.3953,-275 429.6882,-275 429.6882,-275 426.8549,-275 424.0216,-272.1667 424.0216,-269.3333 424.0216,-269.3333 424.0216,-263.6667 424.0216,-263.6667 424.0216,-260.8333 426.8549,-258 429.6882,-258 429.6882,-258 472.3953,-258 472.3953,-258 475.2286,-258 478.0619,-260.8333 478.0619,-263.6667 478.0619,-263.6667 478.0619,-269.3333 478.0619,-269.3333 478.0619,-272.1667 475.2286,-275 472.3953,-275"/>
<text text-anchor="middle" x="451.0417" y="-263.8" font-family="Helvetica,sans-Serif" font-size="9.00" fill="#000000">parallel.ts</text>
</a>
</g>
</g>
<!-- ../rhythmical.ts&#45;&gt;../features/parallel.ts -->
<g id="edge9" class="edge">
<title>../rhythmical.ts&#45;&gt;../features/parallel.ts</title>
<path fill="none" stroke="#000000" stroke-width="2" stroke-opacity="0.200000" d="M401.6093,-266.5C406.8948,-266.5 412.3667,-266.5 417.659,-266.5"/>
<polygon fill="#000000" fill-opacity="0.200000" stroke="#000000" stroke-width="2" stroke-opacity="0.200000" points="417.7673,-268.6001 423.7673,-266.5 417.7673,-264.4001 417.7673,-268.6001"/>
</g>
<!-- ../features/sequential.ts -->
<g id="node8" class="node">
<title>../features/sequential.ts</title>
<g id="a_node8"><a xlink:href="../features/sequential.ts" xlink:title="sequential.ts">
<path fill="#ddfeff" stroke="#000000" d="M478.4094,-246C478.4094,-246 423.6741,-246 423.6741,-246 420.8407,-246 418.0074,-243.1667 418.0074,-240.3333 418.0074,-240.3333 418.0074,-234.6667 418.0074,-234.6667 418.0074,-231.8333 420.8407,-229 423.6741,-229 423.6741,-229 478.4094,-229 478.4094,-229 481.2428,-229 484.0761,-231.8333 484.0761,-234.6667 484.0761,-234.6667 484.0761,-240.3333 484.0761,-240.3333 484.0761,-243.1667 481.2428,-246 478.4094,-246"/>
<text text-anchor="middle" x="451.0417" y="-234.8" font-family="Helvetica,sans-Serif" font-size="9.00" fill="#000000">sequential.ts</text>
</a>
</g>
</g>
<!-- ../rhythmical.ts&#45;&gt;../features/sequential.ts -->
<g id="edge10" class="edge">
<title>../rhythmical.ts&#45;&gt;../features/sequential.ts</title>
<path fill="none" stroke="#000000" stroke-width="2" stroke-opacity="0.200000" d="M392.8329,-257.9559C401.5689,-254.8859 411.5317,-251.3847 420.7156,-248.1573"/>
<polygon fill="#000000" fill-opacity="0.200000" stroke="#000000" stroke-width="2" stroke-opacity="0.200000" points="421.6531,-250.0538 426.6175,-246.0832 420.2605,-246.0914 421.6531,-250.0538"/>
</g>
<!-- ../features/inherit.ts&#45;&gt;../helpers/objects.ts -->
<g id="edge4" class="edge">
<title>../features/inherit.ts&#45;&gt;../helpers/objects.ts</title>
<path fill="none" stroke="#000000" stroke-width="2" stroke-opacity="0.200000" d="M478.44,-216.6221C483.2292,-218.5499 488.0396,-220.8369 492.3081,-223.5 506.882,-232.5928 520.7028,-246.6141 529.8838,-256.9775"/>
<polygon fill="#000000" fill-opacity="0.200000" stroke="#000000" stroke-width="2" stroke-opacity="0.200000" points="528.4863,-258.5717 534.0011,-261.7335 531.6617,-255.8227 528.4863,-258.5717"/>
</g>
<!-- RhythmZipper.ts -->
<g id="node6" class="node">
<title>RhythmZipper.ts</title>
<g id="a_node6"><a xlink:href="RhythmZipper.ts" xlink:title="RhythmZipper.ts">
<path fill="#ddfeff" stroke="#000000" d="M575.9331,-175C575.9331,-175 506.21,-175 506.21,-175 503.3766,-175 500.5433,-172.1667 500.5433,-169.3333 500.5433,-169.3333 500.5433,-163.6667 500.5433,-163.6667 500.5433,-160.8333 503.3766,-158 506.21,-158 506.21,-158 575.9331,-158 575.9331,-158 578.7664,-158 581.5998,-160.8333 581.5998,-163.6667 581.5998,-163.6667 581.5998,-169.3333 581.5998,-169.3333 581.5998,-172.1667 578.7664,-175 575.9331,-175"/>
<text text-anchor="middle" x="541.0715" y="-163.8" font-family="Helvetica,sans-Serif" font-size="9.00" fill="#000000">RhythmZipper.ts</text>
</a>
</g>
</g>
<!-- ../features/inherit.ts&#45;&gt;RhythmZipper.ts -->
<g id="edge5" class="edge">
<title>../features/inherit.ts&#45;&gt;RhythmZipper.ts</title>
<path fill="none" stroke="#000000" stroke-width="2" stroke-opacity="0.200000" d="M469.696,-199.7976C483.4275,-193.3916 502.212,-184.6284 517.0637,-177.6999"/>
<polygon fill="#000000" fill-opacity="0.200000" stroke="#000000" stroke-width="2" stroke-opacity="0.200000" points="518.1996,-179.4874 522.7492,-175.0476 516.424,-175.6812 518.1996,-179.4874"/>
</g>
<!-- ../util.ts -->
<g id="node9" class="node">
<title>../util.ts</title>
<g id="a_node9"><a xlink:href="../util.ts" xlink:title="util.ts">
<path fill="#ddfeff" stroke="#000000" d="M298.1654,-213C298.1654,-213 255.4987,-213 255.4987,-213 252.6654,-213 249.832,-210.1667 249.832,-207.3333 249.832,-207.3333 249.832,-201.6667 249.832,-201.6667 249.832,-198.8333 252.6654,-196 255.4987,-196 255.4987,-196 298.1654,-196 298.1654,-196 300.9987,-196 303.832,-198.8333 303.832,-201.6667 303.832,-201.6667 303.832,-207.3333 303.832,-207.3333 303.832,-210.1667 300.9987,-213 298.1654,-213"/>
<text text-anchor="middle" x="276.832" y="-201.8" font-family="Helvetica,sans-Serif" font-size="9.00" fill="#000000">util.ts</text>
</a>
</g>
</g>
<!-- RhythmZipper.ts&#45;&gt;../util.ts -->
<g id="edge12" class="edge">
<title>RhythmZipper.ts&#45;&gt;../util.ts</title>
<path fill="none" stroke="#000000" stroke-width="2" stroke-opacity="0.200000" d="M500.1758,-172.3812C447.8972,-179.8993 358.3867,-192.7717 310.0809,-199.7185"/>
<polygon fill="#000000" fill-opacity="0.200000" stroke="#000000" stroke-width="2" stroke-opacity="0.200000" points="309.755,-197.6437 304.1151,-200.5765 310.3529,-201.8009 309.755,-197.6437"/>
</g>
<!-- ../features/parallel.ts&#45;&gt;../helpers/objects.ts -->
<g id="edge6" class="edge">
<title>../features/parallel.ts&#45;&gt;../helpers/objects.ts</title>
<path fill="none" stroke="#000000" stroke-width="2" stroke-opacity="0.200000" d="M478.5428,-267.7219C487.7903,-268.1327 498.2059,-268.5955 507.8456,-269.0238"/>
<polygon fill="#000000" fill-opacity="0.200000" stroke="#000000" stroke-width="2" stroke-opacity="0.200000" points="507.9609,-271.1309 514.0482,-269.2994 508.1473,-266.935 507.9609,-271.1309"/>
</g>
<!-- ../features/sequential.ts&#45;&gt;../helpers/objects.ts -->
<g id="edge7" class="edge">
<title>../features/sequential.ts&#45;&gt;../helpers/objects.ts</title>
<path fill="none" stroke="#000000" stroke-width="2" stroke-opacity="0.200000" d="M474.6174,-246.0467C480.4046,-248.151 486.5819,-250.4024 492.3081,-252.5 498.666,-254.8289 505.4858,-257.3389 511.9508,-259.7238"/>
<polygon fill="#000000" fill-opacity="0.200000" stroke="#000000" stroke-width="2" stroke-opacity="0.200000" points="511.4087,-261.7622 517.7647,-261.87 512.8633,-257.822 511.4087,-261.7622"/>
</g>
<!-- addColors.ts -->
<g id="node10" class="node">
<title>addColors.ts</title>
<g id="a_node10"><a xlink:href="addColors.ts" xlink:title="addColors.ts">
<path fill="#ddfeff" stroke="#000000" d="M191.8223,-375C191.8223,-375 137.1044,-375 137.1044,-375 134.2711,-375 131.4378,-372.1667 131.4378,-369.3333 131.4378,-369.3333 131.4378,-363.6667 131.4378,-363.6667 131.4378,-360.8333 134.2711,-358 137.1044,-358 137.1044,-358 191.8223,-358 191.8223,-358 194.6557,-358 197.489,-360.8333 197.489,-363.6667 197.489,-363.6667 197.489,-369.3333 197.489,-369.3333 197.489,-372.1667 194.6557,-375 191.8223,-375"/>
<text text-anchor="middle" x="164.4634" y="-363.8" font-family="Helvetica,sans-Serif" font-size="9.00" fill="#000000">addColors.ts</text>
</a>
</g>
</g>
<!-- addColors.ts&#45;&gt;../util.ts -->
<g id="edge13" class="edge">
<title>addColors.ts&#45;&gt;../util.ts</title>
<path fill="none" stroke="#000000" stroke-width="2" stroke-opacity="0.200000" d="M189.0764,-357.9622C199.201,-353.4567 210.4032,-347.0562 218.3994,-338.5 219.5006,-337.3217 255.7193,-253.4706 270.5723,-219.026"/>
<polygon fill="#000000" fill-opacity="0.200000" stroke="#000000" stroke-width="2" stroke-opacity="0.200000" points="272.6368,-219.5416 273.0838,-213.2004 268.78,-217.8789 272.6368,-219.5416"/>
</g>
<!-- mapHierarchy.ts -->
<g id="node11" class="node">
<title>mapHierarchy.ts</title>
<g id="a_node11"><a xlink:href="mapHierarchy.ts" xlink:title="mapHierarchy.ts">
<path fill="#ddfeff" stroke="#000000" d="M311.52,-389C311.52,-389 242.1441,-389 242.1441,-389 239.3107,-389 236.4774,-386.1667 236.4774,-383.3333 236.4774,-383.3333 236.4774,-377.6667 236.4774,-377.6667 236.4774,-374.8333 239.3107,-372 242.1441,-372 242.1441,-372 311.52,-372 311.52,-372 314.3533,-372 317.1867,-374.8333 317.1867,-377.6667 317.1867,-377.6667 317.1867,-383.3333 317.1867,-383.3333 317.1867,-386.1667 314.3533,-389 311.52,-389"/>
<text text-anchor="middle" x="276.832" y="-377.8" font-family="Helvetica,sans-Serif" font-size="9.00" fill="#000000">mapHierarchy.ts</text>
</a>
</g>
</g>
<!-- addColors.ts&#45;&gt;mapHierarchy.ts -->
<g id="edge14" class="edge">
<title>addColors.ts&#45;&gt;mapHierarchy.ts</title>
<path fill="none" stroke="#000000" stroke-width="2" stroke-opacity="0.200000" d="M197.5699,-370.6247C207.839,-371.9042 219.3531,-373.3387 230.355,-374.7094"/>
<polygon fill="#000000" fill-opacity="0.200000" stroke="#000000" stroke-width="2" stroke-opacity="0.200000" points="230.1897,-376.805 236.4033,-375.463 230.709,-372.6372 230.1897,-376.805"/>
</g>
<!-- colorize.ts -->
<g id="node12" class="node">
<title>colorize.ts</title>
<g id="a_node12"><a xlink:href="colorize.ts" xlink:title="colorize.ts">
<path fill="#ddfeff" stroke="#000000" d="M71.1123,-261C71.1123,-261 26.4151,-261 26.4151,-261 23.5817,-261 20.7484,-258.1667 20.7484,-255.3333 20.7484,-255.3333 20.7484,-249.6667 20.7484,-249.6667 20.7484,-246.8333 23.5817,-244 26.4151,-244 26.4151,-244 71.1123,-244 71.1123,-244 73.9456,-244 76.7789,-246.8333 76.7789,-249.6667 76.7789,-249.6667 76.7789,-255.3333 76.7789,-255.3333 76.7789,-258.1667 73.9456,-261 71.1123,-261"/>
<text text-anchor="middle" x="48.7637" y="-249.8" font-family="Helvetica,sans-Serif" font-size="9.00" fill="#000000">colorize.ts</text>
</a>
</g>
</g>
<!-- colorize.ts&#45;&gt;../util.ts -->
<g id="edge15" class="edge">
<title>colorize.ts&#45;&gt;../util.ts</title>
<path fill="none" stroke="#000000" stroke-width="2" stroke-opacity="0.200000" d="M76.9731,-249.3015C110.8773,-245.1238 169.3367,-236.8544 218.3994,-224.5 228.4739,-221.9632 239.2926,-218.4817 248.8492,-215.134"/>
<polygon fill="#000000" fill-opacity="0.200000" stroke="#000000" stroke-width="2" stroke-opacity="0.200000" points="249.6725,-217.07 254.6184,-213.0765 248.2616,-213.114 249.6725,-217.07"/>
</g>
<!-- mapRhythm.ts -->
<g id="node13" class="node">
<title>mapRhythm.ts</title>
<g id="a_node13"><a xlink:href="mapRhythm.ts" xlink:title="mapRhythm.ts">
<path fill="#ddfeff" stroke="#000000" d="M195.8133,-274C195.8133,-274 133.1134,-274 133.1134,-274 130.2801,-274 127.4468,-271.1667 127.4468,-268.3333 127.4468,-268.3333 127.4468,-262.6667 127.4468,-262.6667 127.4468,-259.8333 130.2801,-257 133.1134,-257 133.1134,-257 195.8133,-257 195.8133,-257 198.6466,-257 201.48,-259.8333 201.48,-262.6667 201.48,-262.6667 201.48,-268.3333 201.48,-268.3333 201.48,-271.1667 198.6466,-274 195.8133,-274"/>
<text text-anchor="middle" x="164.4634" y="-262.8" font-family="Helvetica,sans-Serif" font-size="9.00" fill="#000000">mapRhythm.ts</text>
</a>
</g>
</g>
<!-- colorize.ts&#45;&gt;mapRhythm.ts -->
<g id="edge16" class="edge">
<title>colorize.ts&#45;&gt;mapRhythm.ts</title>
<path fill="none" stroke="#000000" stroke-width="2" stroke-opacity="0.200000" d="M77.067,-255.6802C90.2965,-257.1666 106.3439,-258.9697 121.0591,-260.6231"/>
<polygon fill="#000000" fill-opacity="0.200000" stroke="#000000" stroke-width="2" stroke-opacity="0.200000" points="121.075,-262.738 127.272,-261.3212 121.544,-258.5643 121.075,-262.738"/>
</g>
<!-- mapRhythm.ts&#45;&gt;../util.ts -->
<g id="edge22" class="edge">
<title>mapRhythm.ts&#45;&gt;../util.ts</title>
<path fill="none" stroke="#000000" stroke-width="2" stroke-opacity="0.200000" d="M195.6655,-256.9248C203.2943,-254.3333 211.3006,-251.18 218.3994,-247.5 234.4964,-239.1553 250.9666,-226.5988 262.3004,-217.2057"/>
<polygon fill="#000000" fill-opacity="0.200000" stroke="#000000" stroke-width="2" stroke-opacity="0.200000" points="263.8914,-218.6112 267.1266,-213.1391 261.1851,-215.3994 263.8914,-218.6112"/>
</g>
<!-- digRhythm.test.ts -->
<g id="node14" class="node">
<title>digRhythm.test.ts</title>
<g id="a_node14"><a xlink:href="digRhythm.test.ts" xlink:title="digRhythm.test.ts">
<path fill="#ddfeff" stroke="#000000" d="M85.6242,-332C85.6242,-332 11.9032,-332 11.9032,-332 9.0698,-332 6.2365,-329.1667 6.2365,-326.3333 6.2365,-326.3333 6.2365,-320.6667 6.2365,-320.6667 6.2365,-317.8333 9.0698,-315 11.9032,-315 11.9032,-315 85.6242,-315 85.6242,-315 88.4575,-315 91.2909,-317.8333 91.2909,-320.6667 91.2909,-320.6667 91.2909,-326.3333 91.2909,-326.3333 91.2909,-329.1667 88.4575,-332 85.6242,-332"/>
<text text-anchor="middle" x="48.7637" y="-320.8" font-family="Helvetica,sans-Serif" font-size="9.00" fill="#000000">digRhythm.test.ts</text>
</a>
</g>
</g>
<!-- digRhythm.ts -->
<g id="node15" class="node">
<title>digRhythm.ts</title>
<g id="a_node15"><a xlink:href="digRhythm.ts" xlink:title="digRhythm.ts">
<path fill="#ddfeff" stroke="#000000" d="M192.8174,-332C192.8174,-332 136.1093,-332 136.1093,-332 133.276,-332 130.4427,-329.1667 130.4427,-326.3333 130.4427,-326.3333 130.4427,-320.6667 130.4427,-320.6667 130.4427,-317.8333 133.276,-315 136.1093,-315 136.1093,-315 192.8174,-315 192.8174,-315 195.6508,-315 198.4841,-317.8333 198.4841,-320.6667 198.4841,-320.6667 198.4841,-326.3333 198.4841,-326.3333 198.4841,-329.1667 195.6508,-332 192.8174,-332"/>
<text text-anchor="middle" x="164.4634" y="-320.8" font-family="Helvetica,sans-Serif" font-size="9.00" fill="#000000">digRhythm.ts</text>
</a>
</g>
</g>
<!-- digRhythm.test.ts&#45;&gt;digRhythm.ts -->
<g id="edge17" class="edge">
<title>digRhythm.test.ts&#45;&gt;digRhythm.ts</title>
<path fill="none" stroke="#000000" stroke-width="2" stroke-opacity="0.200000" d="M91.5173,-323.5C102.1718,-323.5 113.561,-323.5 124.0964,-323.5"/>
<polygon fill="#000000" fill-opacity="0.200000" stroke="#000000" stroke-width="2" stroke-opacity="0.200000" points="124.1888,-325.6001 130.1887,-323.5 124.1887,-321.4001 124.1888,-325.6001"/>
</g>
<!-- digRhythm.ts&#45;&gt;../deprecated.ts -->
<g id="edge18" class="edge">
<title>digRhythm.ts&#45;&gt;../deprecated.ts</title>
<path fill="none" stroke="#000000" stroke-width="2" stroke-opacity="0.200000" d="M198.7883,-323.5C210.3302,-323.5 223.3303,-323.5 235.3619,-323.5"/>
<polygon fill="#000000" fill-opacity="0.200000" stroke="#000000" stroke-width="2" stroke-opacity="0.200000" points="235.5525,-325.6001 241.5525,-323.5 235.5525,-321.4001 235.5525,-325.6001"/>
</g>
<!-- digRhythm.ts&#45;&gt;../util.ts -->
<g id="edge19" class="edge">
<title>digRhythm.ts&#45;&gt;../util.ts</title>
<path fill="none" stroke="#000000" stroke-width="2" stroke-opacity="0.200000" d="M198.6176,-319.0591C205.6552,-316.9798 212.6607,-313.9398 218.3994,-309.5 248.8655,-285.9298 265.7811,-241.7382 272.8442,-218.933"/>
<polygon fill="#000000" fill-opacity="0.200000" stroke="#000000" stroke-width="2" stroke-opacity="0.200000" points="274.8805,-219.4525 274.5781,-213.1028 270.8548,-218.2552 274.8805,-219.4525"/>
</g>
<!-- editRhythm.test.ts -->
<g id="node16" class="node">
<title>editRhythm.test.ts</title>
<g id="a_node16"><a xlink:href="editRhythm.test.ts" xlink:title="editRhythm.test.ts">
<path fill="#ccffcc" stroke="#000000" d="M87.1234,-361C87.1234,-361 10.404,-361 10.404,-361 7.5706,-361 4.7373,-358.1667 4.7373,-355.3333 4.7373,-355.3333 4.7373,-349.6667 4.7373,-349.6667 4.7373,-346.8333 7.5706,-344 10.404,-344 10.404,-344 87.1234,-344 87.1234,-344 89.9567,-344 92.79,-346.8333 92.79,-349.6667 92.79,-349.6667 92.79,-355.3333 92.79,-355.3333 92.79,-358.1667 89.9567,-361 87.1234,-361"/>
<text text-anchor="middle" x="48.7637" y="-349.8" font-family="Helvetica,sans-Serif" font-size="9.00" fill="#000000">editRhythm.test.ts</text>
</a>
</g>
</g>
<!-- editRhythm.ts -->
<g id="node17" class="node">
<title>editRhythm.ts</title>
<g id="a_node17"><a xlink:href="editRhythm.ts" xlink:title="editRhythm.ts">
<path fill="#ddfeff" stroke="#000000" d="M194.3162,-162C194.3162,-162 134.6105,-162 134.6105,-162 131.7772,-162 128.9438,-159.1667 128.9438,-156.3333 128.9438,-156.3333 128.9438,-150.6667 128.9438,-150.6667 128.9438,-147.8333 131.7772,-145 134.6105,-145 134.6105,-145 194.3162,-145 194.3162,-145 197.1496,-145 199.9829,-147.8333 199.9829,-150.6667 199.9829,-150.6667 199.9829,-156.3333 199.9829,-156.3333 199.9829,-159.1667 197.1496,-162 194.3162,-162"/>
<text text-anchor="middle" x="164.4634" y="-150.8" font-family="Helvetica,sans-Serif" font-size="9.00" fill="#000000">editRhythm.ts</text>
</a>
</g>
</g>
<!-- editRhythm.ts&#45;&gt;../util.ts -->
<g id="edge20" class="edge">
<title>editRhythm.ts&#45;&gt;../util.ts</title>
<path fill="none" stroke="#000000" stroke-width="2" stroke-opacity="0.200000" d="M193.4044,-162.0244C201.6066,-164.7437 210.4607,-167.9728 218.3994,-171.5 232.124,-177.5978 246.8426,-185.9219 258.0742,-192.6841"/>
<polygon fill="#000000" fill-opacity="0.200000" stroke="#000000" stroke-width="2" stroke-opacity="0.200000" points="257.0718,-194.5324 263.2882,-195.8616 259.2575,-190.9459 257.0718,-194.5324"/>
</g>
<!-- editTree.ts -->
<g id="node18" class="node">
<title>editTree.ts</title>
<g id="a_node18"><a xlink:href="editTree.ts" xlink:title="editTree.ts">
<path fill="#ddfeff" stroke="#000000" d="M300.3532,-147C300.3532,-147 253.3109,-147 253.3109,-147 250.4776,-147 247.6442,-144.1667 247.6442,-141.3333 247.6442,-141.3333 247.6442,-135.6667 247.6442,-135.6667 247.6442,-132.8333 250.4776,-130 253.3109,-130 253.3109,-130 300.3532,-130 300.3532,-130 303.1865,-130 306.0198,-132.8333 306.0198,-135.6667 306.0198,-135.6667 306.0198,-141.3333 306.0198,-141.3333 306.0198,-144.1667 303.1865,-147 300.3532,-147"/>
<text text-anchor="middle" x="276.832" y="-135.8" font-family="Helvetica,sans-Serif" font-size="9.00" fill="#000000">editTree.ts</text>
</a>
</g>
</g>
<!-- editRhythm.ts&#45;&gt;editTree.ts -->
<g id="edge21" class="edge">
<title>editRhythm.ts&#45;&gt;editTree.ts</title>
<path fill="none" stroke="#000000" stroke-width="2" stroke-opacity="0.200000" d="M200.0175,-148.7539C213.1684,-146.9984 228.0705,-145.0091 241.226,-143.253"/>
<polygon fill="#000000" fill-opacity="0.200000" stroke="#000000" stroke-width="2" stroke-opacity="0.200000" points="241.8592,-145.2872 247.5286,-142.4117 241.3034,-141.1241 241.8592,-145.2872"/>
</g>
<!-- hierarchy.ts -->
<g id="node19" class="node">
<title>hierarchy.ts</title>
<g id="a_node19"><a xlink:href="hierarchy.ts" xlink:title="hierarchy.ts">
<path fill="#ccffcc" stroke="#000000" d="M73.9497,-390C73.9497,-390 23.5776,-390 23.5776,-390 20.7443,-390 17.911,-387.1667 17.911,-384.3333 17.911,-384.3333 17.911,-378.6667 17.911,-378.6667 17.911,-375.8333 20.7443,-373 23.5776,-373 23.5776,-373 73.9497,-373 73.9497,-373 76.7831,-373 79.6164,-375.8333 79.6164,-378.6667 79.6164,-378.6667 79.6164,-384.3333 79.6164,-384.3333 79.6164,-387.1667 76.7831,-390 73.9497,-390"/>
<text text-anchor="middle" x="48.7637" y="-378.8" font-family="Helvetica,sans-Serif" font-size="9.00" fill="#000000">hierarchy.ts</text>
</a>
</g>
</g>
<!-- r2d3.ts -->
<g id="node20" class="node">
<title>r2d3.ts</title>
<g id="a_node20"><a xlink:href="r2d3.ts" xlink:title="r2d3.ts">
<path fill="#ddfeff" stroke="#000000" d="M185.7967,-133C185.7967,-133 143.13,-133 143.13,-133 140.2967,-133 137.4634,-130.1667 137.4634,-127.3333 137.4634,-127.3333 137.4634,-121.6667 137.4634,-121.6667 137.4634,-118.8333 140.2967,-116 143.13,-116 143.13,-116 185.7967,-116 185.7967,-116 188.63,-116 191.4634,-118.8333 191.4634,-121.6667 191.4634,-121.6667 191.4634,-127.3333 191.4634,-127.3333 191.4634,-130.1667 188.63,-133 185.7967,-133"/>
<text text-anchor="middle" x="164.4634" y="-121.8" font-family="Helvetica,sans-Serif" font-size="9.00" fill="#000000">r2d3.ts</text>
</a>
</g>
</g>
<!-- r2d3.ts&#45;&gt;../util.ts -->
<g id="edge23" class="edge">
<title>r2d3.ts&#45;&gt;../util.ts</title>
<path fill="none" stroke="#000000" stroke-width="2" stroke-opacity="0.200000" d="M191.5026,-128.2525C200.5188,-130.331 210.3171,-133.5441 218.3994,-138.5 219.8677,-139.4003 248.1812,-171.689 264.8476,-190.7634"/>
<polygon fill="#000000" fill-opacity="0.200000" stroke="#000000" stroke-width="2" stroke-opacity="0.200000" points="263.6791,-192.618 269.2075,-195.7559 266.8426,-189.8553 263.6791,-192.618"/>
</g>
<!-- r2d3.ts&#45;&gt;editTree.ts -->
<g id="edge24" class="edge">
<title>r2d3.ts&#45;&gt;editTree.ts</title>
<path fill="none" stroke="#000000" stroke-width="2" stroke-opacity="0.200000" d="M191.6647,-127.889C206.5734,-129.7465 225.2314,-132.0711 241.2808,-134.0707"/>
<polygon fill="#000000" fill-opacity="0.200000" stroke="#000000" stroke-width="2" stroke-opacity="0.200000" points="241.3058,-136.1899 247.5194,-134.8479 241.8251,-132.0222 241.3058,-136.1899"/>
</g>
<!-- reduceHierarchy.test.ts -->
<g id="node21" class="node">
<title>reduceHierarchy.test.ts</title>
<g id="a_node21"><a xlink:href="reduceHierarchy.test.ts" xlink:title="reduceHierarchy.test.ts">
<path fill="#ddfeff" stroke="#000000" d="M212.6689,-17C212.6689,-17 116.2579,-17 116.2579,-17 113.4246,-17 110.5912,-14.1667 110.5912,-11.3333 110.5912,-11.3333 110.5912,-5.6667 110.5912,-5.6667 110.5912,-2.8333 113.4246,0 116.2579,0 116.2579,0 212.6689,0 212.6689,0 215.5022,0 218.3355,-2.8333 218.3355,-5.6667 218.3355,-5.6667 218.3355,-11.3333 218.3355,-11.3333 218.3355,-14.1667 215.5022,-17 212.6689,-17"/>
<text text-anchor="middle" x="164.4634" y="-5.8" font-family="Helvetica,sans-Serif" font-size="9.00" fill="#000000">reduceHierarchy.test.ts</text>
</a>
</g>
</g>
<!-- reduceHierarchy.ts -->
<g id="node22" class="node">
<title>reduceHierarchy.ts</title>
<g id="a_node22"><a xlink:href="reduceHierarchy.ts" xlink:title="reduceHierarchy.ts">
<path fill="#ddfeff" stroke="#000000" d="M316.5307,-31C316.5307,-31 237.1334,-31 237.1334,-31 234.3,-31 231.4667,-28.1667 231.4667,-25.3333 231.4667,-25.3333 231.4667,-19.6667 231.4667,-19.6667 231.4667,-16.8333 234.3,-14 237.1334,-14 237.1334,-14 316.5307,-14 316.5307,-14 319.364,-14 322.1974,-16.8333 322.1974,-19.6667 322.1974,-19.6667 322.1974,-25.3333 322.1974,-25.3333 322.1974,-28.1667 319.364,-31 316.5307,-31"/>
<text text-anchor="middle" x="276.832" y="-19.8" font-family="Helvetica,sans-Serif" font-size="9.00" fill="#000000">reduceHierarchy.ts</text>
</a>
</g>
</g>
<!-- reduceHierarchy.test.ts&#45;&gt;reduceHierarchy.ts -->
<g id="edge25" class="edge">
<title>reduceHierarchy.test.ts&#45;&gt;reduceHierarchy.ts</title>
<path fill="none" stroke="#000000" stroke-width="2" stroke-opacity="0.200000" d="M218.3438,-15.213C220.618,-15.4963 222.8972,-15.7803 225.1665,-16.063"/>
<polygon fill="#000000" fill-opacity="0.200000" stroke="#000000" stroke-width="2" stroke-opacity="0.200000" points="224.9264,-18.1492 231.1401,-16.8072 225.4458,-13.9815 224.9264,-18.1492"/>
</g>
<!-- reduceRhythm.ts -->
<g id="node23" class="node">
<title>reduceRhythm.ts</title>
<g id="a_node23"><a xlink:href="reduceRhythm.ts" xlink:title="reduceRhythm.ts">
<path fill="#ddfeff" stroke="#000000" d="M200.8241,-75C200.8241,-75 128.1027,-75 128.1027,-75 125.2694,-75 122.436,-72.1667 122.436,-69.3333 122.436,-69.3333 122.436,-63.6667 122.436,-63.6667 122.436,-60.8333 125.2694,-58 128.1027,-58 128.1027,-58 200.8241,-58 200.8241,-58 203.6574,-58 206.4907,-60.8333 206.4907,-63.6667 206.4907,-63.6667 206.4907,-69.3333 206.4907,-69.3333 206.4907,-72.1667 203.6574,-75 200.8241,-75"/>
<text text-anchor="middle" x="164.4634" y="-63.8" font-family="Helvetica,sans-Serif" font-size="9.00" fill="#000000">reduceRhythm.ts</text>
</a>
</g>
</g>
<!-- reduceRhythm.ts&#45;&gt;../util.ts -->
<g id="edge26" class="edge">
<title>reduceRhythm.ts&#45;&gt;../util.ts</title>
<path fill="none" stroke="#000000" stroke-width="2" stroke-opacity="0.200000" d="M206.6413,-72.2167C211.0485,-74.2579 215.1103,-76.9533 218.3994,-80.5 240.5105,-104.3428 217.3034,-123.1967 231.3994,-152.5 238.7,-167.6768 251.6698,-181.8561 261.8881,-191.5623"/>
<polygon fill="#000000" fill-opacity="0.200000" stroke="#000000" stroke-width="2" stroke-opacity="0.200000" points="260.5274,-193.1643 266.3591,-195.6946 263.3782,-190.0799 260.5274,-193.1643"/>
</g>
<!-- reduceRhythm.ts&#45;&gt;reduceHierarchy.ts -->
<g id="edge27" class="edge">
<title>reduceRhythm.ts&#45;&gt;reduceHierarchy.ts</title>
<path fill="none" stroke="#000000" stroke-width="2" stroke-opacity="0.200000" d="M199.0196,-57.9393C205.5296,-56.0321 212.228,-53.8651 218.3994,-51.5 231.1872,-46.5993 244.9315,-39.858 255.8757,-34.1083"/>
<polygon fill="#000000" fill-opacity="0.200000" stroke="#000000" stroke-width="2" stroke-opacity="0.200000" points="257.0149,-35.8809 261.3236,-31.2069 255.0406,-32.1738 257.0149,-35.8809"/>
</g>
<!-- reduceTree.test.ts -->
<g id="node24" class="node">
<title>reduceTree.test.ts</title>
<g id="a_node24"><a xlink:href="reduceTree.test.ts" xlink:title="reduceTree.test.ts">
<path fill="#ddfeff" stroke="#000000" d="M87.2994,-218C87.2994,-218 10.228,-218 10.228,-218 7.3946,-218 4.5613,-215.1667 4.5613,-212.3333 4.5613,-212.3333 4.5613,-206.6667 4.5613,-206.6667 4.5613,-203.8333 7.3946,-201 10.228,-201 10.228,-201 87.2994,-201 87.2994,-201 90.1327,-201 92.9661,-203.8333 92.9661,-206.6667 92.9661,-206.6667 92.9661,-212.3333 92.9661,-212.3333 92.9661,-215.1667 90.1327,-218 87.2994,-218"/>
<text text-anchor="middle" x="48.7637" y="-206.8" font-family="Helvetica,sans-Serif" font-size="9.00" fill="#000000">reduceTree.test.ts</text>
</a>
</g>
</g>
<!-- reduceTree.ts -->
<g id="node25" class="node">
<title>reduceTree.ts</title>
<g id="a_node25"><a xlink:href="reduceTree.ts" xlink:title="reduceTree.ts">
<path fill="#ddfeff" stroke="#000000" d="M194.4923,-218C194.4923,-218 134.4345,-218 134.4345,-218 131.6011,-218 128.7678,-215.1667 128.7678,-212.3333 128.7678,-212.3333 128.7678,-206.6667 128.7678,-206.6667 128.7678,-203.8333 131.6011,-201 134.4345,-201 134.4345,-201 194.4923,-201 194.4923,-201 197.3256,-201 200.159,-203.8333 200.159,-206.6667 200.159,-206.6667 200.159,-212.3333 200.159,-212.3333 200.159,-215.1667 197.3256,-218 194.4923,-218"/>
<text text-anchor="middle" x="164.4634" y="-206.8" font-family="Helvetica,sans-Serif" font-size="9.00" fill="#000000">reduceTree.ts</text>
</a>
</g>
</g>
<!-- reduceTree.test.ts&#45;&gt;reduceTree.ts -->
<g id="edge28" class="edge">
<title>reduceTree.test.ts&#45;&gt;reduceTree.ts</title>
<path fill="none" stroke="#000000" stroke-width="2" stroke-opacity="0.200000" d="M93.1653,-209.5C102.784,-209.5 112.9278,-209.5 122.4512,-209.5"/>
<polygon fill="#000000" fill-opacity="0.200000" stroke="#000000" stroke-width="2" stroke-opacity="0.200000" points="122.6081,-211.6001 128.6081,-209.5 122.6081,-207.4001 122.6081,-211.6001"/>
</g>
<!-- reduceTree.ts&#45;&gt;../util.ts -->
<g id="edge29" class="edge">
<title>reduceTree.ts&#45;&gt;../util.ts</title>
<path fill="none" stroke="#000000" stroke-width="2" stroke-opacity="0.200000" d="M200.3265,-207.9042C214.1398,-207.2896 229.8471,-206.5907 243.4202,-205.9867"/>
<polygon fill="#000000" fill-opacity="0.200000" stroke="#000000" stroke-width="2" stroke-opacity="0.200000" points="243.5911,-208.0813 249.4917,-205.7165 243.4043,-203.8854 243.5911,-208.0813"/>
</g>
<!-- rhythmEvents.test.ts -->
<g id="node26" class="node">
<title>rhythmEvents.test.ts</title>
<g id="a_node26"><a xlink:href="rhythmEvents.test.ts" xlink:title="rhythmEvents.test.ts">
<path fill="#ddfeff" stroke="#000000" d="M91.6255,-147C91.6255,-147 5.9019,-147 5.9019,-147 3.0685,-147 .2352,-144.1667 .2352,-141.3333 .2352,-141.3333 .2352,-135.6667 .2352,-135.6667 .2352,-132.8333 3.0685,-130 5.9019,-130 5.9019,-130 91.6255,-130 91.6255,-130 94.4588,-130 97.2922,-132.8333 97.2922,-135.6667 97.2922,-135.6667 97.2922,-141.3333 97.2922,-141.3333 97.2922,-144.1667 94.4588,-147 91.6255,-147"/>
<text text-anchor="middle" x="48.7637" y="-135.8" font-family="Helvetica,sans-Serif" font-size="9.00" fill="#000000">rhythmEvents.test.ts</text>
</a>
</g>
</g>
<!-- rhythmEvents.test.ts&#45;&gt;../util.ts -->
<g id="edge30" class="edge">
<title>rhythmEvents.test.ts&#45;&gt;../util.ts</title>
<path fill="none" stroke="#000000" stroke-width="2" stroke-opacity="0.200000" d="M64.6153,-147.1311C76.8592,-153.5024 94.3837,-161.9894 110.5273,-167.5 155.4579,-182.837 209.4237,-193.487 243.4317,-199.2982"/>
<polygon fill="#000000" fill-opacity="0.200000" stroke="#000000" stroke-width="2" stroke-opacity="0.200000" points="243.2774,-201.4017 249.5428,-200.327 243.9747,-197.26 243.2774,-201.4017"/>
</g>
<!-- rhythmEvents.ts -->
<g id="node27" class="node">
<title>rhythmEvents.ts</title>
<g id="a_node27"><a xlink:href="rhythmEvents.ts" xlink:title="rhythmEvents.ts">
<path fill="#ddfeff" stroke="#000000" d="M198.8186,-104C198.8186,-104 130.1081,-104 130.1081,-104 127.2748,-104 124.4415,-101.1667 124.4415,-98.3333 124.4415,-98.3333 124.4415,-92.6667 124.4415,-92.6667 124.4415,-89.8333 127.2748,-87 130.1081,-87 130.1081,-87 198.8186,-87 198.8186,-87 201.652,-87 204.4853,-89.8333 204.4853,-92.6667 204.4853,-92.6667 204.4853,-98.3333 204.4853,-98.3333 204.4853,-101.1667 201.652,-104 198.8186,-104"/>
<text text-anchor="middle" x="164.4634" y="-92.8" font-family="Helvetica,sans-Serif" font-size="9.00" fill="#000000">rhythmEvents.ts</text>
</a>
</g>
</g>
<!-- rhythmEvents.test.ts&#45;&gt;rhythmEvents.ts -->
<g id="edge31" class="edge">
<title>rhythmEvents.test.ts&#45;&gt;rhythmEvents.ts</title>
<path fill="none" stroke="#000000" stroke-width="2" stroke-opacity="0.200000" d="M64.9287,-129.8995C77.1894,-123.6271 94.5941,-115.2524 110.5273,-109.5 114.2566,-108.1536 118.1743,-106.8795 122.1243,-105.689"/>
<polygon fill="#000000" fill-opacity="0.200000" stroke="#000000" stroke-width="2" stroke-opacity="0.200000" points="122.7409,-107.6968 127.9167,-104.006 121.569,-103.6636 122.7409,-107.6968"/>
</g>
<!-- rhythmEvents.ts&#45;&gt;../util.ts -->
<g id="edge32" class="edge">
<title>rhythmEvents.ts&#45;&gt;../util.ts</title>
<path fill="none" stroke="#000000" stroke-width="2" stroke-opacity="0.200000" d="M204.6338,-100.9093C209.7155,-102.9642 214.4935,-105.7459 218.3994,-109.5 232.794,-123.3352 221.7253,-135.0349 231.3994,-152.5 239.6606,-167.4142 252.7646,-181.8061 262.7811,-191.653"/>
<polygon fill="#000000" fill-opacity="0.200000" stroke="#000000" stroke-width="2" stroke-opacity="0.200000" points="261.3573,-193.1973 267.1375,-195.8431 264.2688,-190.1702 261.3573,-193.1973"/>
</g>
<!-- visitTree.ts -->
<g id="node28" class="node">
<title>visitTree.ts</title>
<g id="a_node28"><a xlink:href="visitTree.ts" xlink:title="visitTree.ts">
<path fill="#ddfeff" stroke="#000000" d="M300.8419,-89C300.8419,-89 252.8222,-89 252.8222,-89 249.9888,-89 247.1555,-86.1667 247.1555,-83.3333 247.1555,-83.3333 247.1555,-77.6667 247.1555,-77.6667 247.1555,-74.8333 249.9888,-72 252.8222,-72 252.8222,-72 300.8419,-72 300.8419,-72 303.6752,-72 306.5086,-74.8333 306.5086,-77.6667 306.5086,-77.6667 306.5086,-83.3333 306.5086,-83.3333 306.5086,-86.1667 303.6752,-89 300.8419,-89"/>
<text text-anchor="middle" x="276.832" y="-77.8" font-family="Helvetica,sans-Serif" font-size="9.00" fill="#000000">visitTree.ts</text>
</a>
</g>
</g>
<!-- rhythmEvents.ts&#45;&gt;visitTree.ts -->
<g id="edge33" class="edge">
<title>rhythmEvents.ts&#45;&gt;visitTree.ts</title>
<path fill="none" stroke="#000000" stroke-width="2" stroke-opacity="0.200000" d="M204.7137,-90.127C216.5096,-88.5524 229.327,-86.8414 240.8398,-85.3046"/>
<polygon fill="#000000" fill-opacity="0.200000" stroke="#000000" stroke-width="2" stroke-opacity="0.200000" points="241.4174,-87.3462 247.0868,-84.4707 240.8616,-83.1831 241.4174,-87.3462"/>
</g>
<!-- visitTree.test.ts -->
<g id="node29" class="node">
<title>visitTree.test.ts</title>
<g id="a_node29"><a xlink:href="visitTree.test.ts" xlink:title="visitTree.test.ts">
<path fill="#ddfeff" stroke="#000000" d="M196.98,-46C196.98,-46 131.9467,-46 131.9467,-46 129.1134,-46 126.2801,-43.1667 126.2801,-40.3333 126.2801,-40.3333 126.2801,-34.6667 126.2801,-34.6667 126.2801,-31.8333 129.1134,-29 131.9467,-29 131.9467,-29 196.98,-29 196.98,-29 199.8134,-29 202.6467,-31.8333 202.6467,-34.6667 202.6467,-34.6667 202.6467,-40.3333 202.6467,-40.3333 202.6467,-43.1667 199.8134,-46 196.98,-46"/>
<text text-anchor="middle" x="164.4634" y="-34.8" font-family="Helvetica,sans-Serif" font-size="9.00" fill="#000000">visitTree.test.ts</text>
</a>
</g>
</g>
<!-- visitTree.test.ts&#45;&gt;visitTree.ts -->
<g id="edge34" class="edge">
<title>visitTree.test.ts&#45;&gt;visitTree.ts</title>
<path fill="none" stroke="#000000" stroke-width="2" stroke-opacity="0.200000" d="M201.6258,-46.0652C207.3048,-47.6838 213.0522,-49.5036 218.3994,-51.5 231.4098,-56.3574 245.3632,-63.2153 256.371,-69.0426"/>
<polygon fill="#000000" fill-opacity="0.200000" stroke="#000000" stroke-width="2" stroke-opacity="0.200000" points="255.5589,-70.9902 261.8383,-71.98 257.5467,-67.2903 255.5589,-70.9902"/>
</g>
<!-- walker.ts -->
<g id="node30" class="node">
<title>walker.ts</title>
<g id="a_node30"><a xlink:href="walker.ts" xlink:title="walker.ts">
<path fill="#ddfeff" stroke="#000000" d="M185.7967,-303C185.7967,-303 143.13,-303 143.13,-303 140.2967,-303 137.4634,-300.1667 137.4634,-297.3333 137.4634,-297.3333 137.4634,-291.6667 137.4634,-291.6667 137.4634,-288.8333 140.2967,-286 143.13,-286 143.13,-286 185.7967,-286 185.7967,-286 188.63,-286 191.4634,-288.8333 191.4634,-291.6667 191.4634,-291.6667 191.4634,-297.3333 191.4634,-297.3333 191.4634,-300.1667 188.63,-303 185.7967,-303"/>
<text text-anchor="middle" x="164.4634" y="-291.8" font-family="Helvetica,sans-Serif" font-size="9.00" fill="#000000">walker.ts</text>
</a>
</g>
</g>
<!-- walker.ts&#45;&gt;../util.ts -->
<g id="edge35" class="edge">
<title>walker.ts&#45;&gt;../util.ts</title>
<path fill="none" stroke="#000000" stroke-width="2" stroke-opacity="0.200000" d="M191.7041,-291.0636C200.7364,-289.0105 210.4934,-285.7325 218.3994,-280.5 242.3408,-264.6547 260.5484,-235.6561 269.879,-218.4247"/>
<polygon fill="#000000" fill-opacity="0.200000" stroke="#000000" stroke-width="2" stroke-opacity="0.200000" points="271.762,-219.3557 272.6984,-213.0682 268.0454,-217.3995 271.762,-219.3557"/>
</g>
</g>
</svg>
