<?xml version="1.0" encoding="UTF-8" standalone="no"?>
<!DOCTYPE svg PUBLIC "-//W3C//DTD SVG 1.1//EN" "http://www.w3.org/Graphics/SVG/1.1/DTD/svg11.dtd">
<svg width="100%" height="100%" viewBox="0 0 539 165" version="1.1" xmlns="http://www.w3.org/2000/svg" xmlns:xlink="http://www.w3.org/1999/xlink" xml:space="preserve" xmlns:serif="http://www.serif.com/" style="fill-rule:evenodd;clip-rule:evenodd;stroke-linejoin:round;stroke-miterlimit:2;">
    <g id="path2311" transform="matrix(-1,0,0,1,538.312,0)">
        <path d="M257.59,161.73C257.01,160.08 256.17,158.73 255.71,158.73C253.28,158.73 251.74,155.27 251.74,149.83C251.74,143.53 251.13,142.16 249.08,143.86C248.24,144.56 247.74,147.13 247.74,150.71C247.74,155.88 247.4,156.82 244.31,160.09C240.13,164.52 236.28,165.01 235.33,161.23C234.93,159.63 234,158.73 232.74,158.73C230.54,158.73 229.9,156.86 229.5,149.23C229.31,145.57 228.84,144.23 227.74,144.23C226.62,144.23 226.11,145.81 225.74,150.4C225.32,155.63 224.82,156.9 222.49,158.72C220.98,159.91 219.74,161.52 219.74,162.3C219.74,164.67 213.02,164.18 212.25,161.76C211.9,160.67 210.41,159.2 208.93,158.5C206.3,157.24 206.23,156.95 205.62,145.72C205.28,139.4 204.94,133.66 204.87,132.96C204.77,131.95 197.79,131.7 171.82,131.76L138.9,131.83L137.87,134.78C137.31,136.4 136.41,137.73 135.87,137.73C133.4,137.73 131.74,136.32 131.74,134.22C131.74,132.01 131.33,131.89 121.99,131.34C86.533,129.22 81.619,128.02 73.449,119.5C67.179,112.96 63.975,106.44 62.734,97.692C61.083,86.049 63.295,76.15 69.358,68.048C70.668,66.297 71.74,64.715 71.74,64.532C71.74,64.349 66.132,64.116 59.278,64.014C52.424,63.912 44.942,63.324 42.651,62.707C39.686,61.909 38.176,61.895 37.413,62.658C36.004,64.067 31.192,64.03 28.89,62.593C27.417,61.673 26.204,61.961 22.566,64.093C20.09,65.544 16.529,66.745 14.652,66.763C12.775,66.78 10.366,67.455 9.299,68.263C8.231,69.07 6.15,69.731 4.674,69.731C1.703,69.731 1.436,69.041 0.214,58.218C-0.193,54.611 -0.008,50.51 0.676,47.968C1.631,44.421 2.224,43.731 4.314,43.731C5.687,43.731 7.807,44.371 9.025,45.153C10.243,45.935 13.365,46.884 15.962,47.262C18.9,47.69 21.701,48.893 23.377,50.446C25.878,52.764 26.338,52.854 29.816,51.706C31.876,51.026 34.696,50.754 36.082,51.102C37.467,51.45 39.85,51.259 41.376,50.679C43.197,49.987 65.66,49.564 106.7,49.45C141.09,49.355 177.23,49.134 186.99,48.959C203.83,48.658 204.74,48.542 204.74,46.686C204.74,45.282 205.42,44.731 207.17,44.731C208.73,44.731 209.83,44.009 210.24,42.731C210.59,41.631 211.28,40.731 211.77,40.731C213.03,40.731 212.4,32.761 211.08,31.92C209.3,30.792 208.41,24.832 209.77,23.19C211.38,21.255 220.08,21.23 221.68,23.155C223.23,25.021 222.01,31.731 220.13,31.731C219.15,31.731 218.74,33.058 218.74,36.231C218.74,39.396 219.15,40.731 220.12,40.731C220.88,40.731 221.74,41.631 222.03,42.731C222.35,43.953 223.39,44.731 224.71,44.731C226.42,44.731 226.74,45.152 226.24,46.731C225.89,47.831 226.03,48.731 226.56,48.731C227.08,48.731 227.74,47.831 228.03,46.731C228.32,45.631 229.38,44.728 230.4,44.723C234.49,44.706 236.11,34.67 233.05,28.262C231.44,24.874 231.45,24.663 233.3,23.26C236.28,21.012 243.98,21.28 245.48,23.685C246.25,24.915 246.34,25.863 245.72,26.244C245.18,26.577 244.74,27.723 244.74,28.79C244.74,29.858 244.06,30.731 243.24,30.731C242.1,30.731 241.74,31.96 241.74,35.79C241.74,39.121 242.1,40.624 242.81,40.189C243.39,39.826 244.12,40.474 244.42,41.63C244.74,42.827 245.78,43.731 246.86,43.731C248.2,43.731 248.74,44.449 248.74,46.231C248.74,47.606 249.19,48.731 249.74,48.731C250.29,48.731 250.74,47.861 250.74,46.798C250.74,45.666 251.67,44.58 252.99,44.174C256.9,42.974 258.74,40.155 258.74,35.38C258.74,32.551 258.24,30.755 257.37,30.42C255.64,29.756 254.77,25.426 255.95,23.326C256.96,21.514 267.17,21.005 268.23,22.714C269.27,24.397 267.61,30.731 266.13,30.731C265.13,30.731 264.74,32.127 264.74,35.7C264.74,39.564 265.05,40.548 266.15,40.127C267,39.802 267.82,40.415 268.22,41.67C269.56,45.892 273.5,46.774 288.95,46.302C327.94,45.111 396.31,41.485 422.33,39.229C431.63,38.422 442.39,37.502 446.24,37.184C469.29,35.278 489.22,30.047 503.66,22.11C514.26,16.283 521.43,10.214 523.66,5.185C526.2,-0.565 528.35,-1.429 531.36,2.079C535.72,7.15 537.48,18.713 538.19,47.065C538.88,74.069 536.62,94.689 532.25,101.349C529.9,104.939 527.86,104.259 525.58,99.113C522.97,93.2 518.7,89.408 507.91,83.401C490.55,73.733 474.84,70.188 444.4,69.066L426.56,68.409L427.27,77.366C427.89,85.375 427.2,92.625 425.1,99.98C424.19,103.189 427.17,101.759 430.4,97.449C433.23,93.668 434.92,90.474 437.38,84.23C438,82.672 438.25,83.151 438.51,86.402C438.76,89.437 437.75,93.492 434.81,101.279C430.69,112.219 427.58,116.359 420.59,120.219C419.13,121.019 416.92,123.309 415.69,125.309C413.26,129.239 408.39,132.719 405.32,132.729C404.26,132.729 402.62,132.019 401.66,131.159C400.1,129.749 393.33,129.659 335.33,130.309L270.74,131.039L270.74,143.989C270.74,156.529 270.66,156.999 268.3,158.859C266.96,159.919 265.58,161.669 265.23,162.759C264.79,164.139 263.71,164.729 261.62,164.729C259.2,164.729 258.44,164.159 257.59,161.729L257.59,161.73ZM263.55,160.47C263.8,159.18 263.22,158.73 261.31,158.73C258.51,158.73 258.45,158.81 259.37,161.2C260.16,163.27 263.11,162.76 263.55,160.47ZM218.1,160.23C218.52,159.15 217.99,158.73 216.21,158.73C214.68,158.73 213.74,159.3 213.74,160.23C213.74,161.06 214.59,161.73 215.63,161.73C216.67,161.73 217.78,161.06 218.1,160.23ZM241.1,160.23C241.53,159.11 240.94,158.73 238.74,158.73C236.54,158.73 235.95,159.11 236.38,160.23C236.69,161.06 237.76,161.73 238.74,161.73C239.72,161.73 240.78,161.06 241.1,160.23ZM223.74,154.29C223.74,152.44 222.07,151.39 221.25,152.71C220.37,154.14 217.01,153.98 216.4,152.48C216.02,151.54 215.63,151.6 214.83,152.73C214.11,153.75 213.77,153.83 213.76,152.98C213.75,152.26 212.47,151.73 210.74,151.73C208.41,151.73 207.74,152.18 207.74,153.73C207.74,155.56 208.41,155.73 215.74,155.73C222.04,155.73 223.74,155.42 223.74,154.29ZM245.74,153.73C245.74,152.63 245.29,151.73 244.74,151.73C244.19,151.73 243.74,152.18 243.74,152.73C243.74,154.18 240,153.96 239.4,152.48C239.02,151.54 238.63,151.6 237.83,152.73C237.11,153.75 236.77,153.83 236.76,152.98C236.73,151.26 232.08,151.4 231.42,153.13C230.56,155.36 231.64,155.73 238.91,155.73C245.07,155.73 245.74,155.54 245.74,153.73ZM268.74,153.73C268.74,152.62 268.07,151.73 267.24,151.73C266.41,151.73 265.74,152.18 265.74,152.73C265.74,153.28 264.84,153.73 263.74,153.73C262.64,153.73 261.74,153.28 261.74,152.73C261.74,152.18 261.29,151.73 260.74,151.73C260.19,151.73 259.74,152.44 259.74,153.3C259.74,154.73 259.6,154.73 258.17,153.3C256.25,151.38 253.74,151.25 253.74,153.06C253.74,155.36 254.88,155.73 261.91,155.73C268.07,155.73 268.74,155.54 268.74,153.73ZM223.5,142.98C223.4,138.72 223.67,134.22 224.1,132.98C224.59,131.57 224.48,130.73 223.81,130.73C223.22,130.73 222.74,131.6 222.74,132.67C222.74,133.74 222.29,134.89 221.74,135.23C221.19,135.57 220.74,138.75 220.74,142.29C220.74,148.06 220.53,148.73 218.74,148.73C216.91,148.73 216.74,148.06 216.74,141.06C216.74,136.85 216.47,133.67 216.14,134C215.59,134.55 215.33,136.96 214.9,145.48C214.81,147.27 214.29,148.73 213.74,148.73C213.17,148.73 212.74,145.7 212.74,141.62C212.74,135.55 212.51,134.61 211.16,135.12C210.29,135.46 209.16,135.73 208.66,135.73C208.15,135.73 207.74,139.11 207.74,143.23L207.74,150.73L223.68,150.73L223.5,142.98ZM245.72,146.98C245.72,144.92 245.27,142.56 244.74,141.73C244.03,140.63 243.77,141.37 243.76,144.48C243.74,148.06 243.42,148.73 241.74,148.73C239.9,148.73 239.74,148.06 239.74,140.29C239.74,128.43 237.8,128.11 237.53,139.92L237.33,149.23L237,140.48C236.74,133.87 236.32,131.73 235.28,131.73C234.52,131.73 233.19,131.46 232.32,131.12C230.38,130.38 230.14,134.32 231.9,138.18C232.73,140.01 232.76,141.39 232,143.05C231.42,144.33 231.18,146.58 231.46,148.05C231.96,150.65 232.18,150.73 238.86,150.73L245.74,150.73L245.72,146.98ZM268.76,138.73C269.33,126.4 269.03,122.43 267.63,123.3C267.14,123.6 266.74,129.22 266.74,135.79C266.74,142.37 266.33,147.73 265.82,147.73C265.32,147.73 264.17,148.01 263.27,148.36C261.8,148.92 261.71,147.87 262.33,137.48C263.02,125.89 262.53,120.73 260.72,120.73C260.13,120.73 259.74,126.3 259.74,134.9C259.74,142.69 259.49,148.81 259.18,148.5C258.87,148.2 258.53,133.16 258.43,115.09L258.24,82.231L255.4,81.906C252.88,81.618 252.64,81.829 253.25,83.762C253.63,84.962 253.92,100.54 253.9,118.38L253.85,150.82L261.05,150.52L268.24,150.23L268.76,138.73ZM229.97,141.23C231.2,139.57 230.87,139.24 227.74,139.02C225.45,138.86 224.74,139.23 224.74,140.6C224.74,142.55 228.66,143.03 229.97,141.23ZM252.5,139.98C253.11,138.11 248.07,138.42 247.35,140.3C246.89,141.52 247.34,141.79 249.42,141.55C250.89,141.37 252.27,140.67 252.5,139.98ZM245.86,131.57C245.41,125.27 243.92,127.47 243.81,134.6C243.76,137.99 244.02,138.74 244.99,137.94C245.8,137.27 246.11,135.03 245.86,131.57ZM229.55,133.98C229.81,131.29 229.59,130.96 227.8,131.43C226.5,131.77 225.74,132.78 225.74,134.18C225.74,138.9 229.08,138.73 229.55,133.98ZM251.97,133.85C251.64,131.6 251.13,131.08 249.64,131.47C248.44,131.78 247.74,132.85 247.74,134.35C247.74,136.18 248.28,136.73 250.07,136.73C252.06,136.73 252.33,136.32 251.97,133.85ZM135.74,134.79C135.74,133.43 133.98,132.54 133.34,133.58C132.74,134.54 133.6,135.73 134.91,135.73C135.36,135.73 135.74,135.31 135.74,134.79ZM220.74,132.62C220.74,132.13 220.06,131.73 219.24,131.73C218.41,131.73 217.74,132.39 217.74,133.2C217.74,134.09 218.33,134.44 219.24,134.09C220.06,133.78 220.74,133.12 220.74,132.62ZM406.32,125.51C408.47,124.53 409.67,122.73 408.17,122.73C405.16,122.73 401.22,128.04 402.61,130.23C402.95,130.78 403.39,130.19 403.57,128.92C403.75,127.66 404.98,126.12 406.32,125.51ZM409.37,128.03C408.54,127.2 405.74,128.52 405.74,129.73C405.74,130.47 406.38,130.46 407.83,129.69C408.97,129.07 409.67,128.32 409.37,128.03ZM144.74,128.85C144.74,128.36 143.84,127.73 142.74,127.44C140.77,126.93 140.1,127.75 141.41,129.06C142.38,130.03 144.74,129.88 144.74,128.85ZM149.74,124.73C149.74,120.4 149.47,119.73 147.74,119.73C146.01,119.73 145.74,120.4 145.74,124.73C145.74,129.06 146.01,129.73 147.74,129.73C149.47,129.73 149.74,129.06 149.74,124.73ZM198.74,128.83C198.74,127.52 191.45,127.19 169.86,127.54C158.82,127.72 150.74,128.25 150.74,128.79C150.74,129.35 160.44,129.73 174.74,129.73C188.36,129.73 198.74,129.34 198.74,128.83ZM210.81,128.7C213,127.52 213.44,122.83 211.54,120.93C210.88,120.27 208.18,119.73 205.54,119.73C201.41,119.73 200.74,120.01 200.74,121.73C200.74,123.46 201.41,123.73 205.74,123.73C210.6,123.73 212.04,124.77 209.49,126.42C208.8,126.87 207.56,127.28 206.74,127.33C205.91,127.39 204.23,127.5 202.99,127.58C201.75,127.66 200.74,128.18 200.74,128.73C200.74,130.05 208.33,130.02 210.81,128.7ZM218.02,128.44C218.29,127.73 217.95,126.37 217.25,125.42C216.08,123.82 215.94,123.86 215.38,125.96C215.04,127.21 214.76,128.57 214.75,128.98C214.73,130.26 217.5,129.8 218.02,128.44ZM221.74,128.67C221.74,128.09 221.29,127.89 220.74,128.23C220.19,128.57 219.74,129.05 219.74,129.29C219.74,129.53 220.19,129.73 220.74,129.73C221.29,129.73 221.74,129.25 221.74,128.67ZM228.74,128.63C228.74,128.25 227.73,127.67 226.49,127.33C222.31,126.19 219.83,123.18 219.29,118.6C218.95,115.72 219.04,115.08 219.55,116.72C220.26,119 225.88,123.73 227.89,123.73C229.28,123.73 228.86,120.71 227.24,119.09C226.41,118.26 225.74,116.98 225.74,116.23C225.74,115.48 226.41,114.2 227.24,113.37C229.02,111.6 229.36,101.73 227.64,101.73C227.04,101.73 225.05,102.44 223.22,103.31C218.5,105.55 216.34,110.56 217.07,117.6C217.57,122.47 218.1,123.53 221.44,126.35C224.84,129.22 228.74,130.43 228.74,128.63ZM242.42,126.73C242.53,125.29 242.39,124.97 242.1,125.98C241.72,127.31 240.52,127.73 237.17,127.73C234.73,127.73 232.74,128.12 232.74,128.59C232.74,129.07 234.88,129.41 237.49,129.34C241.81,129.24 242.26,129 242.42,126.73ZM125.4,126.24C124.29,123.86 123.84,123.74 115.24,123.71C104.01,123.66 93.853,122.34 86.854,120.02C82.457,118.56 80.677,117.22 77.153,112.73C67.583,100.54 67.428,84.211 76.764,71.698C78.944,68.776 80.552,66.209 80.336,65.994C80.121,65.778 78.363,65.899 76.431,66.261C73.264,66.855 72.54,67.666 69.079,74.483C65.8,80.944 65.189,83.179 64.887,89.821C64.525,97.799 66.219,105.3 69.607,110.73C78.541,125.04 86.812,128.2 116.4,128.6L126.55,128.73L125.4,126.24ZM134.91,125.6C129.84,123.72 128.78,115.47 132.99,110.68C134.23,109.28 134.97,108.61 134.63,109.18C133.29,111.5 132.92,115.08 133.78,117.34C134.86,120.17 140.81,123.3 143.3,122.35C144.9,121.73 144.87,121.49 142.89,119.39C140.23,116.56 140.17,115.1 142.68,113.76C144.31,112.89 144.56,111.88 144.25,107.48C143.93,103.05 143.59,102.29 142.06,102.58C141.06,102.77 139.96,103.38 139.61,103.94C139.27,104.49 138.15,104.69 137.11,104.38C133.36,103.24 127.74,110.2 127.74,115.98C127.74,122.67 133.6,130.73 135.95,127.28C136.34,126.71 135.87,125.95 134.91,125.6ZM231.74,124.79C231.74,122.62 231.29,120.57 230.74,120.23C230.13,119.85 229.74,121.39 229.74,124.17C229.74,126.68 230.19,128.73 230.74,128.73C231.29,128.73 231.74,126.96 231.74,124.79ZM251.74,124.23C251.74,120.4 251.44,119.73 249.74,119.73C248.04,119.73 247.74,120.4 247.74,124.23C247.74,128.06 248.04,128.73 249.74,128.73C251.44,128.73 251.74,128.06 251.74,124.23ZM277.56,127.05C277.24,125.39 272.39,123.41 271.3,124.5C270.99,124.81 270.74,125.89 270.74,126.9C270.74,128.33 271.51,128.73 274.31,128.73C277.12,128.73 277.82,128.37 277.56,127.05ZM286.03,126.73C285.64,125.23 284.67,124.73 282.12,124.73C279.97,124.73 278.74,125.22 278.74,126.06C278.74,128.12 279.79,128.73 283.31,128.73C286.06,128.73 286.47,128.43 286.03,126.73ZM317.74,126.73C315.54,125.01 313.6,124.77 301.49,124.75C288.4,124.73 287.74,124.83 287.74,126.73C287.74,128.65 288.4,128.73 303.99,128.71L320.24,128.69L317.74,126.73ZM382.95,126.35C383.34,125.74 383.27,124.86 382.8,124.4C382.33,123.93 371.43,123.7 358.57,123.89C335.82,124.22 335.11,124.29 332.21,126.57L329.24,128.91L355.74,128.19C373.23,127.7 382.48,127.08 382.95,126.35ZM397.74,126.75C397.74,125.61 395.55,124.1 392.99,123.47C391.14,123.02 390.74,123.34 390.74,125.26C390.74,126.9 391.4,127.7 392.99,127.96C395.62,128.38 397.74,127.84 397.74,126.75ZM327.49,125.79C328.73,124.76 329.74,123.65 329.74,123.32C329.74,122.21 327.6,122.73 326.14,124.19C324.67,125.66 321.74,125.28 321.74,123.62C321.74,123.13 320.73,122.75 319.49,122.76C317.3,122.79 317.32,122.86 320.05,125.26C323.38,128.2 324.51,128.28 327.49,125.79ZM388.74,125.9C388.74,123.54 387.9,122.73 386.14,123.41C383.93,124.26 384.41,127.73 386.74,127.73C388.01,127.73 388.74,127.06 388.74,125.9ZM175.24,123.31C175.79,123.17 174.8,122.31 173.04,121.39C170.71,120.18 167.24,119.73 160.29,119.73C150.91,119.73 150.74,119.77 150.74,122.1L150.74,124.47L162.49,124.02C168.95,123.77 174.69,123.46 175.24,123.31ZM199.74,121.73C199.74,119.9 199.07,119.73 191.85,119.73C185.47,119.73 183.51,120.11 181.6,121.7L179.24,123.66L189.49,123.7C199.08,123.73 199.74,123.6 199.74,121.73ZM242.55,121.98C242.3,120.66 241.05,120.16 237.48,119.93C233.27,119.66 232.74,119.85 232.74,121.68C232.74,123.48 233.36,123.73 237.81,123.73C242.1,123.73 242.84,123.46 242.55,121.98ZM215.06,116.57L214.49,110.98L211.86,112.35C210.42,113.1 208.72,113.72 208.08,113.72C205.99,113.74 207.36,117.22 209.59,117.55C210.78,117.73 212.54,118.92 213.5,120.2C214.46,121.49 215.33,122.45 215.44,122.35C215.55,122.25 215.38,119.65 215.06,116.57ZM244.65,95.311C243.79,94.502 243.63,96.047 243.99,101.48C244.25,105.46 244.16,110.41 243.79,112.48C243.41,114.54 243.59,117.81 244.17,119.73C245.07,122.68 245.28,121.12 245.52,109.81C245.71,100.67 245.43,96.047 244.65,95.311ZM413.32,119.89C411.18,119.48 410.31,120.23 411.23,121.71C411.72,122.51 412.36,122.46 413.48,121.53C414.9,120.36 414.88,120.2 413.32,119.89ZM178.24,120.73C178.59,120.16 177.73,119.73 176.24,119.73C174.75,119.73 173.89,120.16 174.24,120.73C174.58,121.28 175.48,121.73 176.24,121.73C177,121.73 177.9,121.28 178.24,120.73ZM122.74,119.83C121.91,119.37 115.16,118.7 107.74,118.35C100.31,117.99 92.89,117.42 91.24,117.08C89.59,116.74 88.585,116.83 89.008,117.28C89.43,117.73 92.355,118.65 95.508,119.33C101.98,120.72 125.09,121.15 122.74,119.83ZM275.74,119.79C275.74,119.21 274.23,118.73 272.39,118.73C269.04,118.73 262.93,117.07 261.46,115.76C261.03,115.38 260.95,114.35 261.28,113.48C261.8,112.14 262.33,112.08 264.75,113.09C266.32,113.76 269.44,114.12 271.68,113.91C275.19,113.57 275.74,113.2 275.74,111.13C275.74,108.59 275.67,108.56 268.89,108.28C261.69,107.99 257.33,113.31 260.99,117.92C262.56,119.91 263.51,120.18 270.26,120.55C273.63,120.73 275.74,120.44 275.74,119.79ZM284.74,119.73C284.74,119.18 282.94,118.73 280.74,118.73C278.54,118.73 276.74,119.18 276.74,119.73C276.74,120.28 278.54,120.73 280.74,120.73C282.94,120.73 284.74,120.28 284.74,119.73ZM349.74,119.23C349.43,118.61 341.8,118.25 329.74,118.29C295.1,118.4 286.74,118.68 286.74,119.75C286.74,120.41 297.52,120.67 318.49,120.5C339.24,120.32 350.07,119.88 349.74,119.23ZM405.65,117.5C406.78,115.7 406.73,115.52 405.26,116.09C404.33,116.44 402.04,116.73 400.16,116.73C397.88,116.73 396.74,117.2 396.74,118.15C396.74,121.19 403.66,120.69 405.65,117.5ZM385.74,118.73C385.74,118.11 379.91,117.73 370.24,117.73C360.57,117.73 354.74,118.11 354.74,118.73C354.74,119.35 360.57,119.73 370.24,119.73C379.91,119.73 385.74,119.35 385.74,118.73ZM394.74,118.73C394.74,118.18 393.16,117.73 391.24,117.73C389.31,117.73 387.74,118.18 387.74,118.73C387.74,119.28 389.31,119.73 391.24,119.73C393.16,119.73 394.74,119.28 394.74,118.73ZM408.74,118.73C408.74,118.18 408.06,117.73 407.24,117.73C406.41,117.73 405.74,118.18 405.74,118.73C405.74,119.28 406.41,119.73 407.24,119.73C408.06,119.73 408.74,119.28 408.74,118.73ZM162.24,117.86C170.65,117.76 172.74,117.44 172.74,116.29C172.74,114.47 167.26,113.8 155.24,114.13C143.77,114.46 143.74,114.46 143.74,116.15C143.74,117.86 144.79,118.27 148.74,118.11C150.39,118.04 156.46,117.92 162.24,117.86ZM423.74,115.57C423.74,114.87 423.2,114.93 422.22,115.75C419.82,117.74 419.51,116.3 421.73,113.48C424.01,110.58 424.37,107.73 422.46,107.73C421.01,107.73 417.74,111.23 417.74,112.77C417.74,113.33 417.09,114.04 416.3,114.35C414.13,115.18 415.62,117.9 417.86,117.19C418.92,116.86 419.74,117.07 419.74,117.7C419.74,118.49 420.3,118.5 421.74,117.73C422.84,117.14 423.74,116.17 423.74,115.57ZM125.01,114.48C125.84,112.69 126.82,110.22 127.2,108.98C127.57,107.74 129.41,105.56 131.28,104.13C134.23,101.88 134.5,101.34 133.26,100.1C132.47,99.317 132.08,98.011 132.39,97.202C133,95.611 137.74,95.131 137.74,96.66C137.74,97.17 138.45,98.302 139.33,99.174C140.7,100.55 143.62,100.7 161.08,100.33C172.17,100.1 186.57,99.866 193.08,99.818L204.92,99.731L204.71,87.981C204.6,81.519 204.27,73.135 203.98,69.35L203.46,62.469L152.35,63.163C94.184,63.953 94.023,63.973 85.552,71.59C79.86,76.708 78.05,79.822 76.733,86.77C75.769,91.848 76.642,99.05 78.945,105.03C80.167,108.2 86.447,112.86 91.901,114.63C93.915,115.29 101.57,116.19 108.9,116.63C116.24,117.08 122.53,117.5 122.88,117.58C123.23,117.67 124.19,116.27 125.01,114.48ZM177.74,116.73C177.74,116.18 177.06,115.73 176.24,115.73C175.41,115.73 174.74,116.18 174.74,116.73C174.74,117.28 175.41,117.73 176.24,117.73C177.06,117.73 177.74,117.28 177.74,116.73ZM205.74,115.73C205.74,113.87 205.08,113.73 196.49,113.74C184.94,113.76 179.74,114.57 179.74,116.36C179.74,117.45 182.4,117.73 192.74,117.73C205.07,117.73 205.74,117.63 205.74,115.73ZM251.74,107.16C251.74,97.627 251.57,96.617 249.99,96.919C248.48,97.208 248.2,98.671 247.95,107.49C247.68,117.22 247.77,117.73 249.7,117.73C251.62,117.73 251.74,117.12 251.74,107.16ZM413.24,116.73C412.9,116.18 412.2,115.73 411.68,115.73C411.16,115.73 410.74,116.18 410.74,116.73C410.74,117.28 411.44,117.73 412.3,117.73C413.16,117.73 413.58,117.28 413.24,116.73ZM350.55,110.89L350.87,107.68L318.89,107.76C291.94,107.82 286.83,108.06 286.36,109.28C285.58,111.31 286.61,113.53 288.57,114.07C289.49,114.32 303.74,114.43 320.24,114.31L350.24,114.1L350.55,110.89ZM370.17,112.65C367.69,109.92 362.34,107.73 358.12,107.73C355.08,107.73 354.74,108.01 354.74,110.56C354.74,112.12 355.04,113.7 355.41,114.06C355.77,114.43 359.67,114.73 364.06,114.73L372.05,114.73L370.17,112.65ZM385.34,113.46C385.47,113.33 385.89,111.99 386.27,110.48C386.93,107.83 386.81,107.73 383.04,107.73C380.04,107.73 378.48,108.4 376.43,110.54C374.95,112.08 373.74,113.67 373.74,114.08C373.74,114.71 384.68,114.13 385.34,113.46ZM179.2,112.32C177.87,111.35 176.72,111.21 175.5,111.86C172.87,113.27 173.34,113.73 177.43,113.73C180.85,113.73 180.98,113.63 179.2,112.32ZM284.74,111.23C284.74,108.98 284.34,108.73 280.74,108.73C278.54,108.73 276.74,109.14 276.74,109.65C276.74,112.45 278.19,113.73 281.35,113.73C284.3,113.73 284.74,113.41 284.74,111.23ZM394.97,111.31C395.32,109.47 394.92,108.75 393.34,108.32C388.86,107.12 387.74,107.6 387.74,110.73C387.74,113.47 388.03,113.73 391.12,113.73C393.91,113.73 394.59,113.3 394.97,111.31ZM404.97,110.61C416.3,104.89 420.49,97.683 421.46,82.219C421.84,76.18 421.57,73.249 420.34,70.316C419.45,68.175 418.87,66.263 419.07,66.067C419.9,65.242 422.78,73.708 423.69,79.613C425.04,88.378 426.15,88.772 425.43,80.231C423.83,61.228 415.85,50.372 401.83,48.13C397.61,47.454 397.58,47.468 397.91,50.329C398.19,52.771 398.78,53.295 401.83,53.785C407.21,54.652 413.55,59.633 415.12,64.231C415.65,65.786 415.3,65.634 413.52,63.551C412.27,62.078 409.66,59.942 407.74,58.805C404.11,56.663 397.74,55.979 397.74,57.731C397.74,58.281 398.84,58.731 400.19,58.731C406.5,58.731 409.85,62.595 413.13,73.663C417.67,88.993 410.85,106.34 399.35,108.67C397.15,109.12 396.15,109.95 395.92,111.52C395.48,114.58 397.53,114.37 404.97,110.61ZM413.74,112.76C413.74,112.23 413.06,112.05 412.24,112.37C411.41,112.69 410.74,113.12 410.74,113.34C410.74,113.55 411.41,113.73 412.24,113.73C413.06,113.73 413.74,113.3 413.74,112.76ZM149.29,107.48C149.49,104.09 149.19,102.73 148.26,102.73C146.59,102.73 145.74,104.97 145.74,109.39C145.74,112.09 146.11,112.8 147.38,112.55C148.57,112.32 149.09,110.94 149.29,107.48ZM169.84,112.2C173.62,111 170.85,110.44 162.16,110.65C155.77,110.81 153.73,110.56 154.27,109.68C154.67,109.04 154.38,108.11 153.62,107.63C152.81,107.12 162.04,106.76 175.93,106.75C198.99,106.73 199.61,106.68 199.46,104.73C199.32,102.79 198.6,102.73 175.03,102.73L150.74,102.73L150.74,107.06C150.74,109.45 150.93,111.59 151.16,111.81C151.9,112.55 167.72,112.87 169.84,112.2ZM193.86,111.73C197.11,111.73 199.74,111.28 199.74,110.73C199.74,110.13 195.7,109.73 189.62,109.73C180.49,109.73 179.62,109.89 180.81,111.32C181.72,112.41 183.04,112.72 185.06,112.32C186.67,111.99 190.63,111.73 193.86,111.73ZM230.67,102.34C229.76,101.49 229.62,102.16 230.1,105.23C230.44,107.43 230.8,110.13 230.91,111.23C231.01,112.33 231.27,111.03 231.48,108.34C231.71,105.38 231.39,103.01 230.67,102.34ZM210.81,110.7C213.15,109.44 213.34,105.47 211.17,103.3C209.39,101.53 209.18,101.49 204.86,102.36C202.7,102.79 201.74,103.56 201.74,104.86C201.74,106.31 202.48,106.73 205.04,106.73C206.85,106.73 208.88,106.19 209.54,105.53C210.47,104.6 210.74,104.7 210.74,106C210.74,108.02 207.79,109.73 204.31,109.73C202.89,109.73 201.74,110.18 201.74,110.73C201.74,112.05 208.33,112.02 210.81,110.7ZM241.28,110.66C241.64,110.08 241.72,109.37 241.44,109.1C240.64,108.3 233.74,109.86 233.74,110.84C233.74,112.11 240.49,111.95 241.28,110.66ZM374.59,109.21C377.06,106.62 376.07,105.95 372.55,107.83C371.03,108.64 369.79,108.63 367.86,107.79C365.33,106.68 365.35,106.73 368.24,109.15C369.89,110.53 371.46,111.67 371.74,111.68C372.01,111.69 373.3,110.58 374.59,109.21ZM430.53,107.6C430.89,105.7 428.62,104.57 426.75,105.72C424.94,106.84 426.34,109.95 428.48,109.54C429.43,109.36 430.36,108.48 430.53,107.6ZM216.05,94.937C215.6,86.09 215.09,82.731 214.17,82.731C213.48,82.731 212.68,83.294 212.4,83.981C212,84.981 211.88,84.981 211.82,83.981C211.78,83.294 210.55,82.731 209.1,82.731C206.54,82.731 206.49,82.864 207.1,87.371C207.45,89.922 207.74,93.695 207.74,95.754C207.74,98.777 208.17,99.609 209.95,100.08C211.17,100.4 212.43,100.24 212.74,99.723C213.06,99.21 213.92,100.82 214.65,103.3C215.39,105.79 216.14,107.67 216.32,107.48C216.51,107.29 216.39,101.65 216.05,94.937ZM212.99,94.231C212.98,92.031 213.18,91.013 213.43,91.969C213.68,92.925 213.69,94.725 213.45,95.969C213.21,97.213 213,96.431 212.99,94.231ZM261.74,94.172C261.74,86.545 261.35,81.731 260.74,81.731C260.12,81.731 259.74,86.751 259.74,94.79C259.74,103.24 260.09,107.63 260.74,107.23C261.32,106.87 261.74,101.39 261.74,94.172ZM398.74,106.84C398.74,106.35 397.65,105.67 396.31,105.34C391.05,104.02 390.74,102.89 390.74,85.094C390.74,75.189 391.17,67.793 391.82,66.58C392.41,65.47 394.69,63.759 396.88,62.779C399.95,61.403 400.44,60.886 399.01,60.513C396.13,59.758 393.2,61.28 390.65,64.854C388.54,67.817 388.33,69.149 388.41,78.682C388.62,102.09 388.48,101 391.68,104.51C394.4,107.48 398.74,108.92 398.74,106.84ZM241.74,105.48C241.74,103.2 239.5,101.73 236.04,101.73C233.26,101.73 232.74,102.09 232.74,104.04C232.74,106.08 233.27,106.38 237.24,106.59C240.46,106.76 241.74,106.44 241.74,105.48ZM276.74,104.23C276.74,102.23 276.24,101.73 274.24,101.73C272.24,101.73 271.74,102.23 271.74,104.23C271.74,106.23 272.24,106.73 274.24,106.73C276.24,106.73 276.74,106.23 276.74,104.23ZM285.74,104.23C285.74,101.98 285.34,101.73 281.74,101.73C278.53,101.73 277.74,102.09 277.74,103.56C277.74,106.15 278.6,106.73 282.41,106.73C285.3,106.73 285.74,106.4 285.74,104.23ZM348.99,105.74C364.1,105.73 366.74,105.51 366.74,104.23C366.74,103.41 365.87,102.73 364.8,102.73C363.73,102.73 362.57,102.26 362.22,101.69C361.54,100.59 307.11,100.4 294.49,101.46C288.11,101.99 287.74,102.16 287.74,104.52L287.74,107.02L309.49,106.39C321.45,106.04 339.23,105.75 348.99,105.74ZM268.75,95.981C268.76,90.619 269.04,85.219 269.37,83.981C269.81,82.353 269.54,81.731 268.42,81.731C267.11,81.731 266.81,83.665 266.55,93.733C266.31,102.83 266.54,105.73 267.49,105.73C268.4,105.73 268.74,103.11 268.75,95.981ZM372.74,104.23C372.74,103.4 371.85,102.73 370.74,102.73C369.63,102.73 368.74,103.4 368.74,104.23C368.74,105.06 369.63,105.73 370.74,105.73C371.85,105.73 372.74,105.06 372.74,104.23ZM383.74,103.23C383.74,101.25 383.24,100.73 381.3,100.73C379.96,100.73 378.58,101.18 378.24,101.73C377.9,102.28 376.75,102.73 375.68,102.73C373.74,102.73 373.15,103.81 374.41,105.06C374.77,105.43 377.02,105.73 379.41,105.73C383.36,105.73 383.74,105.51 383.74,103.23ZM388.74,104.92C388.74,104.48 388.08,103.24 387.27,102.17C385.87,100.31 385.8,100.35 385.77,102.98C385.75,104.77 386.26,105.73 387.24,105.73C388.06,105.73 388.74,105.37 388.74,104.92ZM422.74,101.54C422.74,100.49 421.6,100.53 419.84,101.65C418.97,102.2 418.72,103.22 419.17,104.38C419.86,106.16 419.93,106.16 421.31,104.29C422.1,103.22 422.74,101.98 422.74,101.54ZM425.6,104.4C426.44,103.39 426.35,103.06 425.27,103.06C424.47,103.06 423.6,103.66 423.31,104.4C423.03,105.13 423.18,105.73 423.65,105.73C424.11,105.73 424.99,105.13 425.6,104.4ZM397.74,102.7C397.74,101.5 394.92,100.22 394.1,101.04C393.22,101.92 394.71,103.73 396.3,103.73C397.09,103.73 397.74,103.27 397.74,102.7ZM404.55,102.33C407.76,100.67 411.03,95.07 412.62,88.483C413.54,84.683 413.47,82.301 412.27,76.549C411.44,72.596 410.43,69.047 410.01,68.663C409.58,68.279 405.53,67.657 400.99,67.279L392.74,66.594L392.62,69.412C392.14,80.982 392.03,93.665 392.4,95.867C392.73,97.818 393.6,98.653 395.74,99.081C397.33,99.399 399.12,100.58 399.72,101.7C401.02,104.11 401.08,104.12 404.55,102.33ZM434.17,99.606C435.08,97.338 435.62,95.278 435.37,95.028C434.66,94.315 429.77,101.97 430.34,102.9C431.4,104.61 432.57,103.61 434.17,99.606ZM138.24,101.73C137.9,101.18 137.42,100.73 137.18,100.73C136.94,100.73 136.74,101.18 136.74,101.73C136.74,102.28 137.22,102.73 137.8,102.73C138.38,102.73 138.58,102.28 138.24,101.73ZM221.74,101.73C221.74,101.18 221.29,100.73 220.74,100.73C220.19,100.73 219.74,101.18 219.74,101.73C219.74,102.28 220.19,102.73 220.74,102.73C221.29,102.73 221.74,102.28 221.74,101.73ZM533.66,93.329C537.1,80.284 537.93,60.557 536.12,34.842C534.53,12.333 532.41,2.731 529.05,2.731C527.87,2.731 527.76,3.053 528.59,4.054C533.4,9.848 536.41,54.293 533.7,79.52C532.54,90.276 530.21,99.731 528.71,99.731C528.18,99.731 527.74,100.18 527.74,100.73C527.74,101.28 528.57,101.73 529.59,101.73C531.06,101.73 531.89,100.03 533.66,93.329L533.66,93.329ZM222.7,95.625C221.76,93.369 221.74,92.335 222.6,91.475C224.3,89.775 224.08,82.731 222.32,82.731C221.31,82.731 220.89,84.077 220.85,87.481C220.79,92.288 222.9,101.76 223.57,99.731C223.78,99.125 223.38,97.277 222.7,95.625ZM235.54,91.734C235.25,83.15 235.14,82.736 232.98,82.734C230.78,82.731 230.74,82.941 231.14,91.481C231.38,96.294 231.6,100.34 231.65,100.48C231.7,100.62 232.66,100.73 233.79,100.73C235.72,100.73 235.82,100.23 235.54,91.734ZM366.98,98.231C366.48,95.614 365.31,95 364.21,96.779C363.28,98.283 364.43,100.73 366.07,100.73C367.02,100.73 367.31,99.93 366.98,98.231ZM370.74,95.731C370.74,92.981 370.29,90.731 369.74,90.731C369.19,90.731 368.74,92.981 368.74,95.731C368.74,98.481 369.19,100.73 369.74,100.73C370.29,100.73 370.74,98.481 370.74,95.731ZM376.73,99.244C378.48,97.138 377.35,95.021 374.58,95.224C373.29,95.319 372.27,95.584 372.31,95.814C373.11,100.72 374.56,101.85 376.73,99.244ZM136.74,98.231C136.74,97.406 136.32,96.731 135.8,96.731C134.54,96.731 133.63,98.293 134.43,99.092C135.56,100.22 136.74,99.777 136.74,98.231ZM219.74,97.672C219.74,97.154 219.29,96.731 218.74,96.731C218.19,96.731 217.74,97.433 217.74,98.29C217.74,99.148 218.19,99.571 218.74,99.231C219.29,98.891 219.74,98.19 219.74,97.672ZM229.45,98.116C229.65,97.502 228.83,97.052 227.61,97.116C226.4,97.179 225.21,97.831 224.96,98.565C224.66,99.473 225.25,99.792 226.8,99.565C228.06,99.381 229.25,98.729 229.45,98.116ZM239.74,91.231C239.74,84.342 239.46,82.731 238.24,82.731C237.02,82.731 236.74,84.342 236.74,91.231C236.74,98.12 237.02,99.731 238.24,99.731C239.46,99.731 239.74,98.12 239.74,91.231ZM352.88,98.734C361.26,98.731 361.54,98.656 362.15,96.231C362.62,94.368 363.44,93.731 365.37,93.731C367.77,93.731 367.92,93.489 367.28,90.481C366.44,86.519 366.4,84.162 366.98,75.537C367.22,71.855 367.16,68.421 366.83,67.906C366.48,67.354 347.02,66.797 319.56,66.552L272.88,66.136L272.35,73.684C272.06,77.835 271.53,85.467 271.17,90.644L270.53,100.06L307.38,99.397C327.65,99.034 348.13,98.736 352.88,98.734ZM386.64,98.731L387.24,66.651L373.24,67.231L372.51,73.147C372.03,77.005 372.15,79.52 372.86,80.378C373.85,81.565 373.74,86.893 372.66,90.707C372.39,91.671 373.11,92.312 374.74,92.553C377.74,92.997 379.93,94.62 379.17,95.844C378.14,97.514 379.86,98.731 383.25,98.731L386.64,98.731ZM251.32,94.731C252.1,94.731 252.74,94.056 252.74,93.231C252.74,91.513 247.25,91.091 246.24,92.731C245.3,94.246 246.75,95.943 248.42,95.299C249.24,94.987 250.54,94.731 251.32,94.731ZM229.48,93.036C229.73,92.274 228.88,91.917 227.13,92.051C225.63,92.167 224.2,92.852 223.96,93.573C223.65,94.492 224.36,94.787 226.3,94.558C227.83,94.378 229.26,93.693 229.48,93.036ZM527.74,89.269C527.74,86.324 527.08,85.489 522.22,82.264C507.44,72.451 487.85,66.64 461.66,64.301C452,63.438 439.21,62.731 433.26,62.731C422.49,62.731 422.44,62.743 424.24,64.731C425.84,66.501 427.33,66.732 437.14,66.74C456.32,66.754 478.96,69.362 490.74,72.911C499.07,75.421 510.5,81.192 517.34,86.341C521.4,89.396 524.98,92.316 525.3,92.83C526.39,94.588 527.74,92.614 527.74,89.269ZM246.04,85.415C246.47,82.687 246.29,81.712 245.44,81.994C244.74,82.223 244.15,84.661 244.02,87.81C243.78,93.667 244.97,92.263 246.04,85.415ZM229.58,87.753C229.77,86.477 229.43,84.487 228.84,83.332C228.24,82.176 227.62,76.956 227.45,71.731L227.15,62.231L226.95,72.422C226.83,78.027 226.29,82.891 225.74,83.231C224.31,84.116 224.5,89.47 225.99,90.064C228.1,90.907 229.22,90.181 229.58,87.753ZM251.2,85.84C250.8,83.855 250.42,77.618 250.35,71.98C250.29,66.342 249.88,61.73 249.43,61.73C248.99,61.731 248.71,66.475 248.81,72.272C248.91,78.07 248.71,83.095 248.37,83.439C248.02,83.783 247.74,85.522 247.74,87.304C247.74,90.099 248.03,90.469 249.83,89.996C251.65,89.52 251.83,88.982 251.2,85.84ZM371.74,85.731C371.74,83.43 371.29,82.731 369.8,82.731C366.65,82.731 367.83,88.651 370.99,88.716C371.4,88.724 371.74,87.381 371.74,85.731ZM224.74,72.731C224.74,66.287 224.45,64.731 223.24,64.731C222.05,64.731 221.74,66.175 221.74,71.731L221.74,78.731L218.86,78.731C215.49,78.731 214.77,77.031 214.75,68.981C214.73,60.621 212.76,62.85 212.54,71.481L212.35,79.231L211.99,72.231C211.59,64.355 210.88,63.051 207.85,64.674C205.99,65.666 205.74,66.698 205.74,73.266L205.74,80.731L224.74,80.731L224.74,72.731ZM247.07,72.718C247.07,67.075 246.72,65.163 245.65,64.954C244.53,64.732 244.31,65.996 244.58,71.204L244.91,77.731L238.74,77.731L238.74,70.731C238.74,65.741 238.38,63.731 237.47,63.731C236.54,63.731 236.25,65.788 236.38,71.481L236.57,79.231L235.84,72.002C235.44,68.026 234.83,64.484 234.47,64.132C234.12,63.779 232.64,63.79 231.18,64.156C229.04,64.693 228.64,65.248 229.12,67.026C229.45,68.239 229.72,71.839 229.73,75.027L229.74,80.824L247.08,80.206L247.07,72.718ZM266.99,80.089L270.74,79.469L270.74,71.6C270.74,65.272 270.45,63.731 269.24,63.731C268.05,63.731 267.74,65.175 267.74,70.731C267.74,77.531 267.67,77.731 265.24,77.731C262.81,77.731 262.74,77.531 262.74,70.731C262.74,65.798 262.37,63.731 261.49,63.731C260.77,63.731 260.2,65.1 260.14,66.981C259.87,76.091 259.67,77.731 258.84,77.731C258.35,77.731 258.12,74.581 258.34,70.731C258.69,64.371 258.55,63.731 256.81,63.731C252.26,63.731 251.74,64.609 251.74,72.281L251.74,79.616L255.99,79.999C258.33,80.209 260.91,80.455 261.74,80.545C262.56,80.635 264.93,80.43 266.99,80.089ZM370.74,75.731C370.74,72.981 370.29,70.731 369.74,70.731C369.19,70.731 368.74,72.981 368.74,75.731C368.74,78.481 369.19,80.731 369.74,80.731C370.29,80.731 370.74,78.481 370.74,75.731ZM530.74,67.838C530.74,63.445 525.5,62.127 522.26,65.706C520.54,67.615 520.55,67.709 522.86,68.562C524.17,69.047 525.91,69.698 526.74,70.008C529.85,71.178 530.74,70.693 530.74,67.838ZM371.13,67.149C372.25,64.247 371.79,60.731 370.3,60.731C368.19,60.731 367.51,62.392 368.25,65.755C368.96,69.02 370.19,69.612 371.13,67.149ZM6.74,66.231C6.74,65.398 5.851,64.731 4.74,64.731C3.629,64.731 2.74,65.398 2.74,66.231C2.74,67.064 3.629,67.731 4.74,67.731C5.851,67.731 6.74,67.064 6.74,66.231ZM519.32,64.845L521.72,62.959L519.48,62.359C518.25,62.028 516.73,61.752 516.1,61.745C514.38,61.724 513.49,64.953 514.96,65.886C516.67,66.975 516.59,66.996 519.32,64.845ZM8.34,63.002C8.008,62.67 7.771,63.26 7.815,64.314C7.863,65.479 8.1,65.716 8.419,64.919C8.708,64.197 8.672,63.334 8.34,63.002ZM357.49,64.808C364.12,64.746 365.74,64.437 365.74,63.231C365.74,61.678 361.85,61.576 292.57,61.304C275.07,61.236 271.33,61.655 273.16,63.481C273.79,64.111 343.23,65.579 347.74,65.058C348.56,64.962 352.95,64.85 357.49,64.808ZM389.24,63.731C391.04,61.746 390.99,61.731 382.39,61.731C375.49,61.731 373.74,62.025 373.74,63.185C373.74,64.28 375.41,64.726 380.49,64.989C384.2,65.182 387.28,65.427 387.33,65.535C387.39,65.643 388.24,64.831 389.24,63.731ZM404.74,64.731C403.91,64.198 402.11,63.762 400.74,63.762C399.36,63.762 397.56,64.198 396.74,64.731C395.67,65.421 396.82,65.7 400.74,65.7C404.66,65.7 405.81,65.421 404.74,64.731ZM21.24,61.532L23.24,59.474L20.74,60.216C19.365,60.624 16.552,61.179 14.49,61.45C10.819,61.931 10.001,62.659 11.474,64.132C12.736,65.394 19.145,63.688 21.24,61.532ZM59.981,56.996C59.717,53.566 59.105,51.005 58.621,51.305C57.311,52.114 57.555,61.146 58.923,62.514C59.574,63.165 60.186,63.593 60.283,63.464C60.381,63.336 60.245,60.425 59.981,56.996ZM64.297,56.192C64.467,52.352 64.187,50.747 63.392,51.008C62.129,51.423 61.263,59.045 62.2,61.489C63.203,64.103 64.04,61.989 64.297,56.192ZM115.99,61.848C137.75,61.772 149.74,61.376 149.74,60.731C149.74,60.08 135.24,59.731 108.24,59.731C72.524,59.731 66.74,59.934 66.74,61.191C66.74,62.375 68.205,62.586 74.49,62.307C78.752,62.119 97.427,61.912 115.99,61.848ZM35.69,60.291C36.347,59.5 36.739,57.587 36.562,56.041C35.986,51.016 28.74,52.046 28.74,57.153C28.74,61.276 33.201,63.29 35.69,60.291ZM31.338,59.995C30.247,58.905 30.716,57.814 32.74,56.731C34.418,55.833 34.74,55.971 34.74,57.589C34.74,59.516 32.466,61.124 31.338,59.995ZM55.158,61.124C58.331,59.906 56.59,59.233 50.486,59.316C42.53,59.424 41.917,59.553 43.74,60.731C45.412,61.812 52.711,62.063 55.158,61.124ZM203.238,60.51C262.688,60.092 274.738,59.759 274.738,58.533C274.738,57.729 265.018,57.6 239.488,58.065C220.098,58.418 192.428,58.712 177.988,58.719C154.308,58.73 151.738,58.892 151.738,60.375C151.738,61.812 152.708,61.94 159.488,61.391C163.748,61.046 183.438,60.65 203.238,60.51ZM26.738,57.172C26.738,55.829 26.288,54.731 25.738,54.731C25.188,54.731 24.738,56.108 24.738,57.79C24.738,59.575 25.154,60.592 25.738,60.231C26.288,59.891 26.738,58.515 26.738,57.172ZM495.198,59.823C498.098,58.691 488.638,57.722 465.988,56.829C455.408,56.412 446.508,55.834 446.218,55.546C445.928,55.257 458.418,55.187 473.968,55.39C499.168,55.719 524.398,57.513 529.078,59.308C530.358,59.799 530.738,59.359 530.738,57.383C530.738,54.209 529.548,53.978 509.878,53.326C501.988,53.064 495.268,52.598 494.968,52.29C494.658,51.983 496.168,51.679 498.318,51.616C500.478,51.552 502.688,51.396 503.238,51.268C503.788,51.14 510.198,50.967 517.488,50.883L530.738,50.731L530.738,40.29C530.738,29.351 529.958,27.319 526.828,30.145C525.088,31.728 510.158,37.655 506.238,38.322C505.138,38.509 502.258,39.144 499.848,39.733C493.548,41.269 492.448,40.39 498.008,38.267C500.608,37.273 502.738,36.101 502.738,35.663C502.738,35.224 503.668,34.569 504.818,34.207C505.958,33.845 506.728,33.386 506.528,33.188C506.328,32.99 501.908,34.185 496.698,35.844C487.978,38.624 471.988,41.77 467.238,41.641C466.138,41.611 471.088,40.085 478.238,38.249C496.608,33.532 511.838,27.161 523.488,19.324C527.748,16.459 528.498,14.506 526.888,10.444C526.258,8.845 525.768,9.008 522.208,11.988C503.758,27.464 483.978,35.486 457.738,38.144C427.508,41.205 400.818,43.168 368.238,44.727C334.548,46.34 334.668,46.53 369.238,46.273C403.058,46.022 406.648,46.386 414.168,50.825C416.048,51.929 418.298,53.934 419.178,55.281L420.788,57.731L440.508,57.813C451.358,57.858 466.308,58.472 473.738,59.177C490.108,60.732 492.678,60.81 495.198,59.823ZM498.238,43.144C500.438,42.292 506.128,40.732 510.888,39.677C515.648,38.621 520.708,37.312 522.138,36.769C525.208,35.602 525.728,37.132 522.798,38.701C520.308,40.033 505.748,43.385 499.238,44.124L494.238,44.692L498.238,43.144ZM5.738,52.731C5.738,47.414 5.403,45.731 4.345,45.731C2.42,45.731 1.738,47.975 1.738,54.313C1.738,59.064 1.984,59.731 3.738,59.731C5.548,59.731 5.738,59.064 5.738,52.731ZM40.738,56.731C40.738,55.081 40.288,53.731 39.738,53.731C39.188,53.731 38.738,55.081 38.738,56.731C38.738,58.381 39.188,59.731 39.738,59.731C40.288,59.731 40.738,58.381 40.738,56.731ZM286.738,58.731C286.738,58.181 284.738,57.731 282.298,57.731C279.858,57.731 277.578,58.181 277.238,58.731C276.858,59.347 278.558,59.731 281.678,59.731C284.458,59.731 286.738,59.281 286.738,58.731ZM325.088,58.678C349.028,58.592 351.738,58.372 351.738,56.509C351.738,55.602 288.898,56.359 287.888,57.278C287.698,57.454 287.868,58.134 288.278,58.789C288.778,59.613 290.888,59.792 295.128,59.371C298.488,59.037 311.968,58.725 325.088,58.678ZM373.408,58.116C371.788,57.24 369.858,56.895 368.908,57.313C367.588,57.889 367.878,58.199 370.238,58.77C375.228,59.975 376.398,59.735 373.408,58.116ZM386.738,57.231C386.458,56.681 383.588,56.193 380.358,56.146C375.118,56.07 374.678,56.213 376.358,57.44C378.498,59.011 387.538,58.829 386.738,57.231ZM21.558,56.151C22.704,55.794 22.438,52.293 21.154,50.854C20.331,49.93 12.754,49.104 11.607,49.812C9.803,50.927 9.89,56.098 11.725,56.856C13.154,57.445 18.663,57.05 21.558,56.151ZM354.458,50.995C354.228,49.475 354.028,50.481 354.028,53.231C354.018,55.981 354.208,57.225 354.438,55.995C354.678,54.765 354.688,52.515 354.458,50.995ZM366.238,56.731C366.618,56.115 364.938,55.731 361.858,55.731C359.108,55.731 356.578,56.181 356.238,56.731C355.858,57.347 357.538,57.731 360.618,57.731C363.368,57.731 365.898,57.281 366.238,56.731ZM395.238,56.731C392.448,55.533 388.738,55.533 388.738,56.731C388.738,57.281 390.648,57.699 392.988,57.661C396.278,57.606 396.788,57.397 395.238,56.731ZM122.578,56.07C148.848,55.431 149.738,55.345 149.738,53.409C149.738,51.439 149.288,51.419 120.488,52.068C104.398,52.431 85.725,52.728 78.988,52.729C67.405,52.731 66.738,52.84 66.738,54.731C66.738,56.638 67.405,56.731 81.075,56.731C88.961,56.731 107.638,56.434 122.578,56.07ZM8.428,49.969C8.178,49.013 7.982,50.031 7.993,52.231C8.004,54.431 8.209,55.213 8.448,53.969C8.687,52.725 8.678,50.925 8.428,49.969ZM56.282,54.664C57.271,53.065 56.79,52.915 49.739,52.628C44.313,52.406 43.189,52.64 42.919,54.047C42.641,55.487 43.539,55.731 49.109,55.731C52.691,55.731 55.919,55.251 56.282,54.664ZM265.492,54.753L274.742,54.731L274.742,49.58L230.992,50.251C206.932,50.62 185.892,51.073 184.242,51.259C182.592,51.444 174.422,51.626 166.082,51.664C151.132,51.73 150.932,51.759 151.482,53.861L152.042,55.991L204.142,55.383C232.802,55.049 260.402,54.766 265.492,54.753ZM285.742,52.231C285.742,49.935 285.372,49.731 281.242,49.731C277.112,49.731 276.742,49.935 276.742,52.231C276.742,54.527 277.112,54.731 281.242,54.731C285.372,54.731 285.742,54.527 285.742,52.231ZM327.992,53.134C350.322,52.525 351.742,52.374 351.742,50.611C351.742,48.826 350.602,48.742 327.992,48.874C314.932,48.95 300.912,49.286 296.852,49.621C290.262,50.165 289.372,50.487 288.592,52.6L287.722,54.97L295.982,54.376C300.522,54.049 314.932,53.491 327.992,53.134ZM386.982,50.231L386.512,47.731L371.122,47.731C356.872,47.731 355.742,47.866 355.742,49.564C355.742,50.573 356.042,51.698 356.412,52.064C356.772,52.431 363.912,52.731 372.272,52.731L387.462,52.731L386.982,50.231ZM395.742,50.231C395.742,48.041 395.312,47.731 392.242,47.731C389.172,47.731 388.742,48.041 388.742,50.231C388.742,52.422 389.172,52.731 392.242,52.731C395.312,52.731 395.742,52.422 395.742,50.231ZM215.562,47.4C215.832,46.037 215.052,45.731 211.312,45.731C207.482,45.731 206.742,46.04 206.742,47.64C206.742,49.256 207.392,49.512 210.992,49.309C214.042,49.137 215.332,48.598 215.562,47.4ZM224.742,46.672C224.742,46.154 224.062,45.731 223.242,45.731C221.692,45.731 221.252,46.911 222.382,48.037C223.182,48.836 224.742,47.933 224.742,46.672ZM234.742,47.231C234.742,46.298 233.802,45.731 232.242,45.731C230.682,45.731 229.742,46.298 229.742,47.231C229.742,48.164 230.682,48.731 232.242,48.731C233.802,48.731 234.742,48.164 234.742,47.231ZM238.512,46.919C239.112,45.119 237.042,45.497 236.352,47.315C235.972,48.288 236.202,48.746 236.932,48.502C237.582,48.284 238.292,47.572 238.512,46.919ZM246.742,47.231C246.742,46.406 246.062,45.731 245.242,45.731C244.412,45.731 243.742,46.406 243.742,47.231C243.742,48.056 244.412,48.731 245.242,48.731C246.062,48.731 246.742,48.056 246.742,47.231ZM263.222,47.069C261.822,45.664 261.422,45.625 260.662,46.819C260.032,47.816 259.772,47.864 259.762,46.981C259.752,46.222 258.372,45.731 256.242,45.731C253.802,45.731 252.742,46.183 252.742,47.231C252.742,48.4 254.082,48.731 258.812,48.731C264.472,48.731 264.772,48.618 263.222,47.069ZM269.742,47.231C269.742,46.406 269.342,45.731 268.852,45.731C268.362,45.731 267.692,46.406 267.382,47.231C267.032,48.145 267.382,48.731 268.272,48.731C269.082,48.731 269.742,48.056 269.742,47.231ZM319.992,47.025C318.752,46.787 316.732,46.787 315.492,47.025C314.252,47.264 315.262,47.459 317.742,47.459C320.212,47.459 321.232,47.264 319.992,47.025ZM219.742,43.231C219.742,42.148 218.632,41.731 215.742,41.731C212.852,41.731 211.742,42.148 211.742,43.231C211.742,44.314 212.852,44.731 215.742,44.731C218.632,44.731 219.742,44.314 219.742,43.231ZM242.532,42.85C242.772,42.146 241.392,41.731 238.822,41.731C235.922,41.731 234.742,42.151 234.742,43.183C234.742,44.942 241.942,44.634 242.532,42.85ZM266.742,42.731C266.742,42.181 264.942,41.731 262.742,41.731C260.542,41.731 258.742,42.181 258.742,42.731C258.742,43.281 260.542,43.731 262.742,43.731C264.942,43.731 266.742,43.281 266.742,42.731ZM216.932,37.231C216.682,35.105 215.982,33.731 215.132,33.731C214.212,33.731 213.742,34.909 213.742,37.231C213.742,39.934 214.152,40.731 215.542,40.731C217.012,40.731 217.262,40.086 216.932,37.231ZM239.742,37.262C239.742,34.59 239.402,33.926 238.242,34.369C237.382,34.698 236.742,36.189 236.742,37.838C236.742,39.743 237.252,40.731 238.242,40.731C239.282,40.731 239.742,39.679 239.742,37.262ZM262.932,37.231C262.702,35.306 262.122,33.731 261.632,33.731C261.142,33.731 260.742,35.306 260.742,37.231C260.742,39.435 261.222,40.731 262.042,40.731C262.942,40.731 263.212,39.645 262.932,37.231ZM529.102,23.52C530.752,20.906 529.102,20.249 526.152,22.346C524.682,23.383 522.312,25.012 520.862,25.967C519.422,26.923 518.192,28.583 518.132,29.658C518.032,31.414 518.522,31.289 523.032,28.413C525.782,26.653 528.512,24.452 529.102,23.52ZM220.242,28.731C219.902,28.181 217.852,27.731 215.682,27.731C213.512,27.731 211.742,28.181 211.742,28.731C211.742,29.281 213.792,29.731 216.302,29.731C219.082,29.731 220.622,29.342 220.242,28.731ZM243.102,28.231C243.562,27.036 242.772,26.731 239.212,26.731C235.902,26.731 234.742,27.121 234.742,28.231C234.742,29.307 235.842,29.731 238.632,29.731C241.172,29.731 242.732,29.209 243.102,28.231ZM265.492,27.966C265.782,27.106 264.522,26.731 261.322,26.731C257.052,26.731 255.812,27.469 257.412,29.068C258.522,30.182 265.052,29.292 265.492,27.966ZM217.612,26.106C222.432,25.143 221.322,23.731 215.742,23.731C211.962,23.731 210.742,24.098 210.742,25.231C210.742,26.847 212.682,27.094 217.612,26.106ZM242.742,24.731C243.842,24.02 243.122,23.758 240.052,23.746C237.742,23.738 235.582,24.181 235.242,24.731C234.442,26.027 240.742,26.027 242.742,24.731ZM266.052,23.644C265.582,23.171 263.402,23.1 261.222,23.486L257.242,24.189L261.242,24.755C265.632,25.376 267.382,24.973 266.052,23.644Z" style="fill-rule:nonzero;"/>
    </g>
</svg>
