<?xml version="1.0" encoding="UTF-8" standalone="no"?><!DOCTYPE svg PUBLIC "-//W3C//DTD SVG 1.1//EN" "http://www.w3.org/Graphics/SVG/1.1/DTD/svg11.dtd"><svg width="100%" height="100%" viewBox="0 0 181 178" version="1.1" xmlns="http://www.w3.org/2000/svg" xmlns:xlink="http://www.w3.org/1999/xlink" xml:space="preserve" xmlns:serif="http://www.serif.com/" style="fill-rule:evenodd;clip-rule:evenodd;stroke-linecap:round;stroke-linejoin:round;stroke-miterlimit:1.5;"><path id="b" d="M165.342,16.111L165.342,116.111L154.021,116.111L154.021,161.111L180.262,161.111L180.262,16.111L165.342,16.111Z" style="fill:#fff;stroke:#000;stroke-width:0.42px;"/><rect id="bb" x="150.334" y="16.111" width="15.007" height="100" style="stroke:#000;stroke-width:0.4px;"/><path id="a" d="M150.334,116.111L150.334,16.111L135.327,16.111L135.327,116.111L127.78,116.111L127.78,161.111L154.021,161.111L154.021,116.111L150.334,116.111Z" style="fill:#fff;stroke:#000;stroke-width:0.42px;"/><rect id="ab" x="120.32" y="16.111" width="15.007" height="100" style="stroke:#000;stroke-width:0.4px;"/><path id="g" d="M127.78,16.111L101.539,16.111L105.313,16.111L105.313,116.111L101.539,116.111L101.539,161.111L127.78,161.111L127.78,116.111L120.32,116.111L120.32,16.111L127.78,16.111Z" style="fill:#fff;stroke:#000;stroke-width:0.42px;"/><rect id="gb" x="90.306" y="16.111" width="15.007" height="100" style="stroke:#000;stroke-width:0.4px;"/><path id="f" d="M90.306,116.111L90.306,16.111L75.298,16.111L75.298,161.111L101.539,161.111L101.539,116.111L90.306,116.111Z" style="fill:#fff;stroke:#000;stroke-width:0.42px;"/><path id="e" d="M50.307,16.111L60.291,16.111L60.291,116.111L50.307,116.111L50.307,161.111L75.298,161.111L75.298,16.111L50.307,16.111Z" style="fill:#fff;stroke:#000;stroke-width:0.42px;"/><rect id="eb" x="45.284" y="16.111" width="15.007" height="100" style="stroke:#000;stroke-width:0.4px;"/><path id="d" d="M45.284,116.111L45.284,16.111L30.277,16.111L30.277,116.111L25.254,116.111L25.254,161.111L50.245,161.111L50.245,116.111L45.284,116.111Z" style="fill:#fff;stroke:#000;stroke-width:0.42px;"/><path id="db" d="M30.277,16.111L15.27,16.111L15.27,116.111L30.277,116.111L30.277,16.111Z" style="stroke:#000;stroke-width:0.4px;"/><path id="c" d="M15.27,116.111L15.27,16.111L0.262,16.111L0.262,161.111L25.254,161.111L25.254,116.111L15.27,116.111Z" style="fill:#fff;stroke:#000;stroke-width:0.42px;"/><path d="M0.5,10.712L0.5,13.776L0.5,12.294L14.805,12.294L14.925,13.974L14.925,10.432" style="fill:none;stroke:#000;stroke-width:1px;"/><path d="M75.298,170.202L0.5,170.202L0.5,168.5L0.5,171.745L0.5,170.202L75.298,170.202Z" style="fill:none;stroke:#000;stroke-width:1px;"/><path d="M179.845,175.011L75.298,175.011L75.298,173.309L75.298,176.554L75.298,175.011L179.845,175.011Z" style="fill:none;stroke:#000;stroke-width:1px;"/><g><path d="M179.845,11.011L75.298,11.011L75.298,9.309L75.298,12.554L75.298,11.011L179.845,11.011Z" style="fill:none;stroke:#000;stroke-width:1px;"/><path d="M179.845,9.309L179.845,12.554" style="fill:none;stroke:#000;stroke-width:1px;"/></g><path d="M75.298,168.5L75.298,171.745" style="fill:none;stroke:#000;stroke-width:1px;"/><path d="M179.845,174.932L179.845,173.309L179.845,176.554" style="fill:none;stroke:#000;stroke-width:1px;"/><g><path d="M75.298,2.202L0.5,2.202L0.5,0.5L0.5,3.745L0.5,2.202L75.298,2.202Z" style="fill:none;stroke:#000;stroke-width:1px;"/><path d="M75.298,0.5L75.298,3.745" style="fill:none;stroke:#000;stroke-width:1px;"/></g><path d="M33.608,8.147L34.377,8.082C34.434,8.457 34.567,8.738 34.774,8.927C34.982,9.115 35.232,9.209 35.525,9.209C35.878,9.209 36.176,9.077 36.42,8.811C36.664,8.545 36.786,8.192 36.786,7.753C36.786,7.335 36.669,7.005 36.434,6.764C36.2,6.523 35.892,6.402 35.513,6.402C35.277,6.402 35.064,6.455 34.874,6.563C34.684,6.67 34.535,6.809 34.426,6.98L33.739,6.89L34.316,3.826L37.283,3.826L37.283,4.526L34.902,4.526L34.581,6.129C34.939,5.88 35.315,5.755 35.708,5.755C36.229,5.755 36.668,5.935 37.026,6.296C37.384,6.657 37.563,7.121 37.563,7.688C37.563,8.228 37.406,8.694 37.091,9.087C36.709,9.57 36.187,9.812 35.525,9.812C34.982,9.812 34.54,9.66 34.196,9.356C33.853,9.052 33.657,8.649 33.608,8.147Z" style="fill-rule:nonzero;"/><path d="M39.122,9.71L38.442,9.71L38.442,3.745L39.175,3.745L39.175,5.873C39.484,5.485 39.879,5.291 40.359,5.291C40.625,5.291 40.876,5.345 41.114,5.452C41.351,5.559 41.546,5.709 41.7,5.903C41.853,6.097 41.973,6.331 42.06,6.605C42.147,6.879 42.19,7.172 42.19,7.484C42.19,8.225 42.007,8.797 41.641,9.201C41.274,9.606 40.835,9.808 40.322,9.808C39.812,9.808 39.412,9.595 39.122,9.169L39.122,9.71ZM39.114,7.517C39.114,8.035 39.184,8.409 39.325,8.64C39.556,9.017 39.868,9.205 40.261,9.205C40.581,9.205 40.858,9.066 41.091,8.788C41.325,8.51 41.441,8.096 41.441,7.545C41.441,6.981 41.329,6.565 41.106,6.296C40.882,6.028 40.611,5.893 40.294,5.893C39.974,5.893 39.697,6.032 39.464,6.31C39.23,6.588 39.114,6.991 39.114,7.517Z" style="fill-rule:nonzero;"/><path d="M32.78,176.16L33.513,176.062C33.597,176.477 33.74,176.776 33.942,176.959C34.144,177.142 34.39,177.234 34.681,177.234C35.025,177.234 35.316,177.115 35.553,176.876C35.791,176.637 35.909,176.341 35.909,175.989C35.909,175.652 35.8,175.375 35.58,175.157C35.36,174.938 35.081,174.829 34.742,174.829C34.603,174.829 34.431,174.856 34.225,174.911L34.306,174.268C34.355,174.273 34.394,174.276 34.424,174.276C34.736,174.276 35.017,174.194 35.267,174.032C35.516,173.869 35.641,173.618 35.641,173.279C35.641,173.01 35.55,172.788 35.368,172.612C35.186,172.435 34.952,172.347 34.664,172.347C34.379,172.347 34.142,172.437 33.952,172.616C33.762,172.795 33.64,173.063 33.586,173.421L32.854,173.291C32.943,172.8 33.147,172.42 33.464,172.15C33.781,171.88 34.176,171.745 34.648,171.745C34.974,171.745 35.273,171.815 35.547,171.954C35.821,172.094 36.031,172.285 36.176,172.526C36.321,172.767 36.394,173.024 36.394,173.295C36.394,173.553 36.324,173.787 36.186,173.999C36.048,174.211 35.843,174.379 35.572,174.504C35.924,174.585 36.198,174.754 36.394,175.01C36.589,175.267 36.687,175.587 36.687,175.973C36.687,176.493 36.497,176.935 36.117,177.297C35.737,177.659 35.257,177.84 34.677,177.84C34.153,177.84 33.718,177.684 33.372,177.372C33.027,177.06 32.829,176.656 32.78,176.16Z" style="fill-rule:nonzero;"/><path d="M38.412,177.734L37.089,173.413L37.846,173.413L38.534,175.907L38.79,176.835C38.801,176.789 38.876,176.492 39.014,175.944L39.702,173.413L40.455,173.413L41.101,175.92L41.317,176.746L41.565,175.911L42.306,173.413L43.018,173.413L41.667,177.734L40.906,177.734L40.219,175.147L40.052,174.41L39.177,177.734L38.412,177.734Z" style="fill-rule:nonzero;"/><path d="M125.259,173.064L125.259,171.636L122.671,171.636L122.671,170.965L125.393,167.099L125.991,167.099L125.991,170.965L126.797,170.965L126.797,171.636L125.991,171.636L125.991,173.064L125.259,173.064ZM125.259,170.965L125.259,168.275L123.391,170.965L125.259,170.965Z" style="fill-rule:nonzero;"/><path d="M128.546,173.064L127.224,168.743L127.981,168.743L128.668,171.237L128.925,172.165C128.936,172.119 129.01,171.822 129.149,171.274L129.836,168.743L130.589,168.743L131.236,171.25L131.452,172.076L131.7,171.241L132.44,168.743L133.152,168.743L131.802,173.064L131.041,173.064L130.353,170.476L130.186,169.74L129.311,173.064L128.546,173.064Z" style="fill-rule:nonzero;"/><path d="M6.683,10.834L6.003,10.834L6.003,4.869L6.736,4.869L6.736,6.997C7.045,6.609 7.44,6.415 7.92,6.415C8.186,6.415 8.437,6.469 8.674,6.576C8.912,6.683 9.107,6.833 9.26,7.027C9.414,7.221 9.534,7.455 9.621,7.729C9.707,8.003 9.751,8.296 9.751,8.608C9.751,9.349 9.568,9.921 9.201,10.325C8.835,10.73 8.396,10.932 7.883,10.932C7.373,10.932 6.973,10.719 6.683,10.293L6.683,10.834ZM6.675,8.641C6.675,9.159 6.745,9.533 6.886,9.764C7.117,10.141 7.429,10.329 7.822,10.329C8.142,10.329 8.419,10.19 8.652,9.912C8.885,9.634 9.002,9.22 9.002,8.669C9.002,8.105 8.89,7.689 8.666,7.42C8.443,7.152 8.172,7.017 7.855,7.017C7.534,7.017 7.258,7.156 7.024,7.434C6.791,7.712 6.675,8.115 6.675,8.641Z" style="fill-rule:nonzero;"/><path d="M123.489,3.904L123.489,3.2L127.351,3.2L127.351,3.769C126.971,4.174 126.594,4.711 126.221,5.381C125.848,6.051 125.56,6.74 125.357,7.448C125.21,7.947 125.117,8.493 125.076,9.088L124.323,9.088C124.331,8.618 124.424,8.051 124.6,7.387C124.776,6.722 125.029,6.081 125.359,5.464C125.688,4.847 126.039,4.327 126.411,3.904L123.489,3.904Z" style="fill-rule:nonzero;"/><path d="M128.954,9.088L128.274,9.088L128.274,3.122L129.007,3.122L129.007,5.25C129.316,4.863 129.711,4.669 130.191,4.669C130.457,4.669 130.708,4.722 130.946,4.829C131.183,4.937 131.378,5.087 131.531,5.281C131.685,5.475 131.805,5.709 131.892,5.983C131.978,6.257 132.022,6.55 132.022,6.862C132.022,7.602 131.839,8.175 131.472,8.579C131.106,8.983 130.667,9.185 130.154,9.185C129.644,9.185 129.244,8.972 128.954,8.546L128.954,9.088ZM128.946,6.894C128.946,7.412 129.016,7.787 129.157,8.017C129.388,8.394 129.7,8.583 130.093,8.583C130.413,8.583 130.69,8.444 130.923,8.166C131.156,7.888 131.273,7.474 131.273,6.923C131.273,6.359 131.161,5.942 130.937,5.674C130.714,5.405 130.443,5.271 130.126,5.271C129.806,5.271 129.529,5.41 129.296,5.688C129.062,5.966 128.946,6.368 128.946,6.894Z" style="fill-rule:nonzero;"/></svg>