<?xml version="1.0" encoding="UTF-8" standalone="no"?>
<!DOCTYPE svg PUBLIC "-//W3C//DTD SVG 1.1//EN" "http://www.w3.org/Graphics/SVG/1.1/DTD/svg11.dtd">
<svg width="100%"
  height="100%" viewBox="0 0 175 173" version="1.1" xmlns="http://www.w3.org/2000/svg"
  xmlns:xlink="http://www.w3.org/1999/xlink" xml:space="preserve" xmlns:serif="http://www.serif.com/"
  style="fill-rule:evenodd;clip-rule:evenodd;stroke-linejoin:round;stroke-miterlimit:2;">
  <rect id="Knob" x="0" y="0" width="174.745" height="172.13" style="fill:none;" />
  <clipPath id="_clip1">
    <rect x="0" y="0" width="174.745" height="172.13" />
  </clipPath>
  <g clip-path="url(#_clip1)">
    <g id="knob">
      <g id="rotatable">
        <path
          d="M70.882,2.487C82.581,0.097 94.459,0.19 105.817,2.52C109.929,8.512 115.614,13.546 122.629,16.924C129.652,20.306 137.142,21.612 144.405,21.085C153.193,28.418 160.666,37.601 166.173,48.402C164.047,55.36 163.655,62.948 165.388,70.543C167.123,78.143 170.772,84.813 175.709,90.158C175.421,101.963 172.737,113.555 167.908,124.221C161.151,126.898 154.98,131.32 150.128,137.405C145.266,143.501 142.326,150.515 141.225,157.713C136.636,161.196 131.638,164.27 126.254,166.863C120.87,169.455 115.351,171.446 109.767,172.863C103.452,169.236 96.136,167.161 88.338,167.161C80.555,167.161 73.25,169.228 66.945,172.843C55.598,169.97 44.861,164.84 35.45,157.703C34.348,150.511 31.409,143.499 26.548,137.405C21.691,131.314 15.514,126.89 8.748,124.214C3.737,113.172 1.217,101.604 0.963,90.162C5.904,84.813 9.553,78.143 11.288,70.543C13.02,62.953 12.629,55.369 10.508,48.418C15.769,38.084 23.101,28.741 32.264,21.084C39.525,21.613 47.02,20.308 54.047,16.924C61.075,13.54 66.768,8.494 70.882,2.487Z"
          style="fill:#212121;" />
        <path
          d="M83.958,34.817L83.958,1.753C86.885,1.615 89.808,1.619 92.714,1.761L92.714,34.824C89.818,34.567 86.888,34.549 83.958,34.817Z"
          style="fill:#e2e2e2;" />
        <path
          d="M65.607,40.927C91.658,28.382 122.994,39.346 135.54,65.398C148.086,91.449 137.121,122.785 111.069,135.331C85.018,147.877 53.682,136.912 41.136,110.86C28.59,84.809 39.555,53.473 65.607,40.927Z"
          style="fill:#ccc;" />
      </g>
      <g id="highlights">
        <path d="M137.116,107.26C142.19,94.323 141.917,79.901 136.357,67.165L88.338,88.129L137.116,107.26Z"
          style="fill:#747474;fill-opacity:0.37;" />
        <path d="M107.469,39.351C94.532,34.277 80.11,34.55 67.374,40.11L88.338,88.129L107.469,39.351Z"
          style="fill:#fff;fill-opacity:0.44;" />
        <path d="M39.56,68.998C34.486,81.935 34.759,96.358 40.319,109.093L88.338,88.129L39.56,68.998Z"
          style="fill:#747474;fill-opacity:0.44;" />
        <path d="M69.207,136.907C82.144,141.981 96.566,141.708 109.302,136.148L88.338,88.129L69.207,136.907Z"
          style="fill:#fff;fill-opacity:0.44;" />
      </g>
    </g>
  </g>
</svg>